<svg width="28" height="18" viewBox="0 0 28 18" fill="none" xmlns="http://www.w3.org/2000/svg">
<rect y="2" width="2" height="14" fill="#002A51"/>
<rect x="26" y="2" width="2" height="14" fill="#002A51"/>
<rect x="2" width="24" height="2" fill="#002A51"/>
<rect x="2" y="16" width="24" height="2" fill="#002A51"/>
<rect x="2" y="2" width="2" height="2" fill="#002A51"/>
<rect x="4" y="4" width="2" height="2" fill="#002A51"/>
<rect x="6" y="6" width="2" height="2" fill="#002A51"/>
<rect x="8" y="8" width="2" height="2" fill="#002A51"/>
<rect x="10" y="10" width="2" height="2" fill="#002A51"/>
<rect x="12" y="12" width="2" height="2" fill="#002A51"/>
<rect x="14" y="12" width="2" height="2" fill="#002A51"/>
<rect x="16" y="10" width="2" height="2" fill="#002A51"/>
<rect x="18" y="8" width="2" height="2" fill="#002A51"/>
<rect x="20" y="6" width="2" height="2" fill="#002A51"/>
<rect x="22" y="4" width="2" height="2" fill="#002A51"/>
<rect x="24" y="2" width="2" height="2" fill="#002A51"/>
</svg>
