<svg width="263" height="107" viewBox="0 0 263 107" fill="none" xmlns="http://www.w3.org/2000/svg">
<path fill-rule="evenodd" clip-rule="evenodd" d="M122.639 0.671576C145.03 -1.78151 166.924 2.8284 186.766 8.94288C216.482 18.0996 255.451 25.419 261.842 43.567C268.601 62.7591 244.745 81.9883 216.878 94.4491C191.108 105.972 155.577 108.993 122.639 105.813C94.5657 103.102 77.7226 89.5865 56.995 79.0102C35.207 67.8929 -5.62788 59.3942 0.648125 43.567C7.18758 27.0753 53.9719 29.8279 80.1469 20.6241C96.4988 14.8743 103.515 2.76681 122.639 0.671576Z" fill="#FEE8FF" fill-opacity="0.4"/>
<path d="M50.1347 58.56L50.0947 58.6H50.0547C49.628 58.6 49.228 58.5467 48.8547 58.44C48.508 58.3333 48.188 58.1733 47.8947 57.96C47.5747 57.7467 47.308 57.4933 47.0947 57.2C46.8814 56.88 46.7214 56.5467 46.6147 56.2C46.508 55.8267 46.4547 55.4267 46.4547 55V54.96L46.4947 54.92H50.1347V58.56ZM49.9747 58.56V54.92H53.6147L53.6547 54.96V55C53.6547 55.4267 53.6014 55.8267 53.4947 56.2C53.388 56.5467 53.228 56.88 53.0147 57.2C52.8014 57.4933 52.5347 57.7467 52.2147 57.96C51.9214 58.1733 51.588 58.3333 51.2147 58.44C50.868 58.5467 50.4814 58.6 50.0547 58.6H50.0147L49.9747 58.56ZM49.9747 51.44L50.0147 51.4H50.0547C50.4814 51.4 50.868 51.4533 51.2147 51.56C51.588 51.6667 51.9214 51.8267 52.2147 52.04C52.5347 52.2533 52.8014 52.52 53.0147 52.84C53.228 53.1333 53.388 53.4667 53.4947 53.84C53.6014 54.1867 53.6547 54.5733 53.6547 55V55.04L53.6147 55.08H49.9747V51.44ZM50.1347 51.44V55.08H46.4947L46.4547 55.04V55C46.4547 54.5733 46.508 54.1867 46.6147 53.84C46.7214 53.4667 46.8814 53.1333 47.0947 52.84C47.308 52.52 47.5747 52.2533 47.8947 52.04C48.188 51.8267 48.508 51.6667 48.8547 51.56C49.228 51.4533 49.628 51.4 50.0547 51.4H50.0947L50.1347 51.44ZM50.1347 54.56L50.0947 54.6H50.0547C49.628 54.6 49.228 54.5467 48.8547 54.44C48.508 54.3333 48.188 54.1733 47.8947 53.96C47.5747 53.7467 47.308 53.4933 47.0947 53.2C46.8814 52.88 46.7214 52.5467 46.6147 52.2C46.508 51.8267 46.4547 51.4267 46.4547 51V50.96L46.4947 50.92H50.1347V54.56ZM49.9747 54.56V50.92H53.6147L53.6547 50.96V51C53.6547 51.4267 53.6014 51.8267 53.4947 52.2C53.388 52.5467 53.228 52.88 53.0147 53.2C52.8014 53.4933 52.5347 53.7467 52.2147 53.96C51.9214 54.1733 51.588 54.3333 51.2147 54.44C50.868 54.5467 50.4814 54.6 50.0547 54.6H50.0147L49.9747 54.56ZM49.9747 47.44L50.0147 47.4H50.0547C50.4814 47.4 50.868 47.4533 51.2147 47.56C51.588 47.6667 51.9214 47.8267 52.2147 48.04C52.5347 48.2533 52.8014 48.52 53.0147 48.84C53.228 49.1333 53.388 49.4667 53.4947 49.84C53.6014 50.1867 53.6547 50.5733 53.6547 51V51.04L53.6147 51.08H49.9747V47.44ZM50.1347 47.44V51.08H46.4947L46.4547 51.04V51C46.4547 50.5733 46.508 50.1867 46.6147 49.84C46.7214 49.4667 46.8814 49.1333 47.0947 48.84C47.308 48.52 47.5747 48.2533 47.8947 48.04C48.188 47.8267 48.508 47.6667 48.8547 47.56C49.228 47.4533 49.628 47.4 50.0547 47.4H50.0947L50.1347 47.44ZM50.1347 50.56L50.0947 50.6H50.0547C49.628 50.6 49.228 50.5467 48.8547 50.44C48.508 50.3333 48.188 50.1733 47.8947 49.96C47.5747 49.7467 47.308 49.4933 47.0947 49.2C46.8814 48.88 46.7214 48.5467 46.6147 48.2C46.508 47.8267 46.4547 47.4267 46.4547 47V46.96L46.4947 46.92H50.1347V50.56ZM49.9747 50.56V46.92H53.6147L53.6547 46.96V47C53.6547 47.4267 53.6014 47.8267 53.4947 48.2C53.388 48.5467 53.228 48.88 53.0147 49.2C52.8014 49.4933 52.5347 49.7467 52.2147 49.96C51.9214 50.1733 51.588 50.3333 51.2147 50.44C50.868 50.5467 50.4814 50.6 50.0547 50.6H50.0147L49.9747 50.56ZM49.9747 43.44L50.0147 43.4H50.0547C50.4814 43.4 50.868 43.4533 51.2147 43.56C51.588 43.6667 51.9214 43.8267 52.2147 44.04C52.5347 44.2533 52.8014 44.52 53.0147 44.84C53.228 45.1333 53.388 45.4667 53.4947 45.84C53.6014 46.1867 53.6547 46.5733 53.6547 47V47.04L53.6147 47.08H49.9747V43.44ZM50.1347 43.44V47.08H46.4947L46.4547 47.04V47C46.4547 46.5733 46.508 46.1867 46.6147 45.84C46.7214 45.4667 46.8814 45.1333 47.0947 44.84C47.308 44.52 47.5747 44.2533 47.8947 44.04C48.188 43.8267 48.508 43.6667 48.8547 43.56C49.228 43.4533 49.628 43.4 50.0547 43.4H50.0947L50.1347 43.44ZM54.1347 62.56L54.0947 62.6H54.0547C53.628 62.6 53.228 62.5467 52.8547 62.44C52.508 62.3333 52.1747 62.1733 51.8547 61.96C51.5614 61.7467 51.308 61.48 51.0947 61.16C50.8814 60.8667 50.7214 60.5467 50.6147 60.2C50.508 59.8267 50.4547 59.4267 50.4547 59V58.96L50.4947 58.92H54.1347V62.56ZM53.9747 62.56V58.92H57.6147L57.6547 58.96V59C57.6547 59.4267 57.6014 59.8267 57.4947 60.2C57.388 60.5467 57.228 60.8667 57.0147 61.16C56.8014 61.48 56.5347 61.7467 56.2147 61.96C55.9214 62.1733 55.588 62.3333 55.2147 62.44C54.868 62.5467 54.4814 62.6 54.0547 62.6H54.0147L53.9747 62.56ZM53.9747 55.44L54.0147 55.4H54.0547C54.4814 55.4 54.868 55.4533 55.2147 55.56C55.588 55.6667 55.9214 55.8267 56.2147 56.04C56.5347 56.2533 56.8014 56.52 57.0147 56.84C57.228 57.1333 57.388 57.4667 57.4947 57.84C57.6014 58.1867 57.6547 58.5733 57.6547 59V59.04L57.6147 59.08H53.9747V55.44ZM54.1347 55.44V59.08H50.4947L50.4547 59.04V59C50.4547 58.5733 50.508 58.1867 50.6147 57.84C50.7214 57.4667 50.8814 57.1333 51.0947 56.84C51.308 56.52 51.5614 56.2533 51.8547 56.04C52.1747 55.8267 52.508 55.6667 52.8547 55.56C53.228 55.4533 53.628 55.4 54.0547 55.4H54.0947L54.1347 55.44ZM54.1347 46.56L54.0947 46.6H54.0547C53.628 46.6 53.228 46.5467 52.8547 46.44C52.508 46.3333 52.1747 46.1733 51.8547 45.96C51.5614 45.7467 51.308 45.4933 51.0947 45.2C50.8814 44.88 50.7214 44.5467 50.6147 44.2C50.508 43.8267 50.4547 43.4267 50.4547 43V42.96L50.4947 42.92H54.1347V46.56ZM53.9747 46.56V42.92H57.6147L57.6547 42.96V43C57.6547 43.4267 57.6014 43.8267 57.4947 44.2C57.388 44.5467 57.228 44.88 57.0147 45.2C56.8014 45.4933 56.5347 45.7467 56.2147 45.96C55.9214 46.1733 55.588 46.3333 55.2147 46.44C54.868 46.5467 54.4814 46.6 54.0547 46.6H54.0147L53.9747 46.56ZM53.9747 39.44L54.0147 39.4H54.0547C54.4814 39.4 54.868 39.4533 55.2147 39.56C55.588 39.6667 55.9214 39.8267 56.2147 40.04C56.5347 40.2533 56.8014 40.52 57.0147 40.84C57.228 41.1333 57.388 41.4667 57.4947 41.84C57.6014 42.1867 57.6547 42.5733 57.6547 43V43.04L57.6147 43.08H53.9747V39.44ZM54.1347 39.44V43.08H50.4947L50.4547 43.04V43C50.4547 42.5733 50.508 42.1867 50.6147 41.84C50.7214 41.4667 50.8814 41.1333 51.0947 40.84C51.308 40.52 51.5614 40.2533 51.8547 40.04C52.1747 39.8267 52.508 39.6667 52.8547 39.56C53.228 39.4533 53.628 39.4 54.0547 39.4H54.0947L54.1347 39.44ZM58.1347 62.56L58.0947 62.6H58.0547C57.628 62.6 57.228 62.5467 56.8547 62.44C56.508 62.3333 56.1747 62.1733 55.8547 61.96C55.5614 61.7467 55.308 61.48 55.0947 61.16C54.8814 60.8667 54.7214 60.5467 54.6147 60.2C54.508 59.8267 54.4547 59.4267 54.4547 59V58.96L54.4947 58.92H58.1347V62.56ZM57.9747 62.56V58.92H61.6147L61.6547 58.96V59C61.6547 59.4267 61.6014 59.8267 61.4947 60.2C61.388 60.5467 61.228 60.8667 61.0147 61.16C60.8014 61.48 60.5347 61.7467 60.2147 61.96C59.9214 62.1733 59.588 62.3333 59.2147 62.44C58.868 62.5467 58.4814 62.6 58.0547 62.6H58.0147L57.9747 62.56ZM57.9747 55.44L58.0147 55.4H58.0547C58.4814 55.4 58.868 55.4533 59.2147 55.56C59.588 55.6667 59.9214 55.8267 60.2147 56.04C60.5347 56.2533 60.8014 56.52 61.0147 56.84C61.228 57.1333 61.388 57.4667 61.4947 57.84C61.6014 58.1867 61.6547 58.5733 61.6547 59V59.04L61.6147 59.08H57.9747V55.44ZM58.1347 55.44V59.08H54.4947L54.4547 59.04V59C54.4547 58.5733 54.508 58.1867 54.6147 57.84C54.7214 57.4667 54.8814 57.1333 55.0947 56.84C55.308 56.52 55.5614 56.2533 55.8547 56.04C56.1747 55.8267 56.508 55.6667 56.8547 55.56C57.228 55.4533 57.628 55.4 58.0547 55.4H58.0947L58.1347 55.44ZM58.1347 46.56L58.0947 46.6H58.0547C57.628 46.6 57.228 46.5467 56.8547 46.44C56.508 46.3333 56.1747 46.1733 55.8547 45.96C55.5614 45.7467 55.308 45.4933 55.0947 45.2C54.8814 44.88 54.7214 44.5467 54.6147 44.2C54.508 43.8267 54.4547 43.4267 54.4547 43V42.96L54.4947 42.92H58.1347V46.56ZM57.9747 46.56V42.92H61.6147L61.6547 42.96V43C61.6547 43.4267 61.6014 43.8267 61.4947 44.2C61.388 44.5467 61.228 44.88 61.0147 45.2C60.8014 45.4933 60.5347 45.7467 60.2147 45.96C59.9214 46.1733 59.588 46.3333 59.2147 46.44C58.868 46.5467 58.4814 46.6 58.0547 46.6H58.0147L57.9747 46.56ZM57.9747 39.44L58.0147 39.4H58.0547C58.4814 39.4 58.868 39.4533 59.2147 39.56C59.588 39.6667 59.9214 39.8267 60.2147 40.04C60.5347 40.2533 60.8014 40.52 61.0147 40.84C61.228 41.1333 61.388 41.4667 61.4947 41.84C61.6014 42.1867 61.6547 42.5733 61.6547 43V43.04L61.6147 43.08H57.9747V39.44ZM58.1347 39.44V43.08H54.4947L54.4547 43.04V43C54.4547 42.5733 54.508 42.1867 54.6147 41.84C54.7214 41.4667 54.8814 41.1333 55.0947 40.84C55.308 40.52 55.5614 40.2533 55.8547 40.04C56.1747 39.8267 56.508 39.6667 56.8547 39.56C57.228 39.4533 57.628 39.4 58.0547 39.4H58.0947L58.1347 39.44ZM62.1347 62.56L62.0947 62.6H62.0547C61.628 62.6 61.228 62.5467 60.8547 62.44C60.508 62.3333 60.1747 62.1733 59.8547 61.96C59.5614 61.7467 59.308 61.48 59.0947 61.16C58.8814 60.8667 58.7214 60.5467 58.6147 60.2C58.508 59.8267 58.4547 59.4267 58.4547 59V58.96L58.4947 58.92H62.1347V62.56ZM61.9747 62.56V58.92H65.6147L65.6547 58.96V59C65.6547 59.4267 65.6014 59.8267 65.4947 60.2C65.388 60.5467 65.228 60.8667 65.0147 61.16C64.8014 61.48 64.5347 61.7467 64.2147 61.96C63.9214 62.1733 63.588 62.3333 63.2147 62.44C62.868 62.5467 62.4814 62.6 62.0547 62.6H62.0147L61.9747 62.56ZM61.9747 55.44L62.0147 55.4H62.0547C62.4814 55.4 62.868 55.4533 63.2147 55.56C63.588 55.6667 63.9214 55.8267 64.2147 56.04C64.5347 56.2533 64.8014 56.52 65.0147 56.84C65.228 57.1333 65.388 57.4667 65.4947 57.84C65.6014 58.1867 65.6547 58.5733 65.6547 59V59.04L65.6147 59.08H61.9747V55.44ZM62.1347 55.44V59.08H58.4947L58.4547 59.04V59C58.4547 58.5733 58.508 58.1867 58.6147 57.84C58.7214 57.4667 58.8814 57.1333 59.0947 56.84C59.308 56.52 59.5614 56.2533 59.8547 56.04C60.1747 55.8267 60.508 55.6667 60.8547 55.56C61.228 55.4533 61.628 55.4 62.0547 55.4H62.0947L62.1347 55.44ZM62.1347 46.56L62.0947 46.6H62.0547C61.628 46.6 61.228 46.5467 60.8547 46.44C60.508 46.3333 60.1747 46.1733 59.8547 45.96C59.5614 45.7467 59.308 45.4933 59.0947 45.2C58.8814 44.88 58.7214 44.5467 58.6147 44.2C58.508 43.8267 58.4547 43.4267 58.4547 43V42.96L58.4947 42.92H62.1347V46.56ZM61.9747 46.56V42.92H65.6147L65.6547 42.96V43C65.6547 43.4267 65.6014 43.8267 65.4947 44.2C65.388 44.5467 65.228 44.88 65.0147 45.2C64.8014 45.4933 64.5347 45.7467 64.2147 45.96C63.9214 46.1733 63.588 46.3333 63.2147 46.44C62.868 46.5467 62.4814 46.6 62.0547 46.6H62.0147L61.9747 46.56ZM61.9747 39.44L62.0147 39.4H62.0547C62.4814 39.4 62.868 39.4533 63.2147 39.56C63.588 39.6667 63.9214 39.8267 64.2147 40.04C64.5347 40.2533 64.8014 40.52 65.0147 40.84C65.228 41.1333 65.388 41.4667 65.4947 41.84C65.6014 42.1867 65.6547 42.5733 65.6547 43V43.04L65.6147 43.08H61.9747V39.44ZM62.1347 39.44V43.08H58.4947L58.4547 43.04V43C58.4547 42.5733 58.508 42.1867 58.6147 41.84C58.7214 41.4667 58.8814 41.1333 59.0947 40.84C59.308 40.52 59.5614 40.2533 59.8547 40.04C60.1747 39.8267 60.508 39.6667 60.8547 39.56C61.228 39.4533 61.628 39.4 62.0547 39.4H62.0947L62.1347 39.44ZM66.1347 58.56L66.0947 58.6H66.0547C65.628 58.6 65.228 58.5467 64.8547 58.44C64.508 58.3333 64.1747 58.1733 63.8547 57.96C63.5614 57.7467 63.308 57.4933 63.0947 57.2C62.8814 56.88 62.7214 56.5467 62.6147 56.2C62.508 55.8267 62.4547 55.4267 62.4547 55V54.96L62.4947 54.92H66.1347V58.56ZM65.9747 58.56V54.92H69.6147L69.6547 54.96V55C69.6547 55.4267 69.6014 55.8267 69.4947 56.2C69.388 56.5467 69.228 56.88 69.0147 57.2C68.8014 57.4933 68.5347 57.7467 68.2147 57.96C67.9214 58.1733 67.588 58.3333 67.2147 58.44C66.868 58.5467 66.4814 58.6 66.0547 58.6H66.0147L65.9747 58.56ZM65.9747 51.44L66.0147 51.4H66.0547C66.4814 51.4 66.868 51.4533 67.2147 51.56C67.588 51.6667 67.9214 51.8267 68.2147 52.04C68.5347 52.2533 68.8014 52.52 69.0147 52.84C69.228 53.1333 69.388 53.4667 69.4947 53.84C69.6014 54.1867 69.6547 54.5733 69.6547 55V55.04L69.6147 55.08H65.9747V51.44ZM66.1347 51.44V55.08H62.4947L62.4547 55.04V55C62.4547 54.5733 62.508 54.1867 62.6147 53.84C62.7214 53.4667 62.8814 53.1333 63.0947 52.84C63.308 52.52 63.5614 52.2533 63.8547 52.04C64.1747 51.8267 64.508 51.6667 64.8547 51.56C65.228 51.4533 65.628 51.4 66.0547 51.4H66.0947L66.1347 51.44ZM66.1347 46.56L66.0947 46.6H66.0547C65.628 46.6 65.228 46.5467 64.8547 46.44C64.508 46.3333 64.1747 46.1733 63.8547 45.96C63.5614 45.7467 63.308 45.4933 63.0947 45.2C62.8814 44.88 62.7214 44.5467 62.6147 44.2C62.508 43.8267 62.4547 43.4267 62.4547 43V42.96L62.4947 42.92H66.1347V46.56ZM65.9747 46.56V42.92H69.6147L69.6547 42.96V43C69.6547 43.4267 69.6014 43.8267 69.4947 44.2C69.388 44.5467 69.228 44.88 69.0147 45.2C68.8014 45.4933 68.5347 45.7467 68.2147 45.96C67.9214 46.1733 67.588 46.3333 67.2147 46.44C66.868 46.5467 66.4814 46.6 66.0547 46.6H66.0147L65.9747 46.56ZM65.9747 39.44L66.0147 39.4H66.0547C66.4814 39.4 66.868 39.4533 67.2147 39.56C67.588 39.6667 67.9214 39.8267 68.2147 40.04C68.5347 40.2533 68.8014 40.52 69.0147 40.84C69.228 41.1333 69.388 41.4667 69.4947 41.84C69.6014 42.1867 69.6547 42.5733 69.6547 43V43.04L69.6147 43.08H65.9747V39.44ZM66.1347 39.44V43.08H62.4947L62.4547 43.04V43C62.4547 42.5733 62.508 42.1867 62.6147 41.84C62.7214 41.4667 62.8814 41.1333 63.0947 40.84C63.308 40.52 63.5614 40.2533 63.8547 40.04C64.1747 39.8267 64.508 39.6667 64.8547 39.56C65.228 39.4533 65.628 39.4 66.0547 39.4H66.0947L66.1347 39.44ZM76.1191 58.56L76.0791 58.6H76.0391C75.6124 58.6 75.2124 58.5467 74.8391 58.44C74.4924 58.3333 74.1724 58.1733 73.8791 57.96C73.5591 57.7467 73.2924 57.4933 73.0791 57.2C72.8657 56.88 72.7057 56.5467 72.5991 56.2C72.4924 55.8267 72.4391 55.4267 72.4391 55V54.96L72.4791 54.92H76.1191V58.56ZM75.9591 58.56V54.92H79.5991L79.6391 54.96V55C79.6391 55.4267 79.5857 55.8267 79.4791 56.2C79.3724 56.5467 79.2124 56.88 78.9991 57.2C78.7857 57.4933 78.5191 57.7467 78.1991 57.96C77.9057 58.1733 77.5724 58.3333 77.1991 58.44C76.8524 58.5467 76.4657 58.6 76.0391 58.6H75.9991L75.9591 58.56ZM75.9591 51.44L75.9991 51.4H76.0391C76.4657 51.4 76.8524 51.4533 77.1991 51.56C77.5724 51.6667 77.9057 51.8267 78.1991 52.04C78.5191 52.2533 78.7857 52.52 78.9991 52.84C79.2124 53.1333 79.3724 53.4667 79.4791 53.84C79.5857 54.1867 79.6391 54.5733 79.6391 55V55.04L79.5991 55.08H75.9591V51.44ZM76.1191 51.44V55.08H72.4791L72.4391 55.04V55C72.4391 54.5733 72.4924 54.1867 72.5991 53.84C72.7057 53.4667 72.8657 53.1333 73.0791 52.84C73.2924 52.52 73.5591 52.2533 73.8791 52.04C74.1724 51.8267 74.4924 51.6667 74.8391 51.56C75.2124 51.4533 75.6124 51.4 76.0391 51.4H76.0791L76.1191 51.44ZM76.1191 54.56L76.0791 54.6H76.0391C75.6124 54.6 75.2124 54.5467 74.8391 54.44C74.4924 54.3333 74.1724 54.1733 73.8791 53.96C73.5591 53.7467 73.2924 53.4933 73.0791 53.2C72.8657 52.88 72.7057 52.5467 72.5991 52.2C72.4924 51.8267 72.4391 51.4267 72.4391 51V50.96L72.4791 50.92H76.1191V54.56ZM75.9591 54.56V50.92H79.5991L79.6391 50.96V51C79.6391 51.4267 79.5857 51.8267 79.4791 52.2C79.3724 52.5467 79.2124 52.88 78.9991 53.2C78.7857 53.4933 78.5191 53.7467 78.1991 53.96C77.9057 54.1733 77.5724 54.3333 77.1991 54.44C76.8524 54.5467 76.4657 54.6 76.0391 54.6H75.9991L75.9591 54.56ZM75.9591 47.44L75.9991 47.4H76.0391C76.4657 47.4 76.8524 47.4533 77.1991 47.56C77.5724 47.6667 77.9057 47.8267 78.1991 48.04C78.5191 48.2533 78.7857 48.52 78.9991 48.84C79.2124 49.1333 79.3724 49.4667 79.4791 49.84C79.5857 50.1867 79.6391 50.5733 79.6391 51V51.04L79.5991 51.08H75.9591V47.44ZM76.1191 47.44V51.08H72.4791L72.4391 51.04V51C72.4391 50.5733 72.4924 50.1867 72.5991 49.84C72.7057 49.4667 72.8657 49.1333 73.0791 48.84C73.2924 48.52 73.5591 48.2533 73.8791 48.04C74.1724 47.8267 74.4924 47.6667 74.8391 47.56C75.2124 47.4533 75.6124 47.4 76.0391 47.4H76.0791L76.1191 47.44ZM76.1191 50.56L76.0791 50.6H76.0391C75.6124 50.6 75.2124 50.5467 74.8391 50.44C74.4924 50.3333 74.1724 50.1733 73.8791 49.96C73.5591 49.7467 73.2924 49.4933 73.0791 49.2C72.8657 48.88 72.7057 48.5467 72.5991 48.2C72.4924 47.8267 72.4391 47.4267 72.4391 47V46.96L72.4791 46.92H76.1191V50.56ZM75.9591 50.56V46.92H79.5991L79.6391 46.96V47C79.6391 47.4267 79.5857 47.8267 79.4791 48.2C79.3724 48.5467 79.2124 48.88 78.9991 49.2C78.7857 49.4933 78.5191 49.7467 78.1991 49.96C77.9057 50.1733 77.5724 50.3333 77.1991 50.44C76.8524 50.5467 76.4657 50.6 76.0391 50.6H75.9991L75.9591 50.56ZM75.9591 43.44L75.9991 43.4H76.0391C76.4657 43.4 76.8524 43.4533 77.1991 43.56C77.5724 43.6667 77.9057 43.8267 78.1991 44.04C78.5191 44.2533 78.7857 44.52 78.9991 44.84C79.2124 45.1333 79.3724 45.4667 79.4791 45.84C79.5857 46.1867 79.6391 46.5733 79.6391 47V47.04L79.5991 47.08H75.9591V43.44ZM76.1191 43.44V47.08H72.4791L72.4391 47.04V47C72.4391 46.5733 72.4924 46.1867 72.5991 45.84C72.7057 45.4667 72.8657 45.1333 73.0791 44.84C73.2924 44.52 73.5591 44.2533 73.8791 44.04C74.1724 43.8267 74.4924 43.6667 74.8391 43.56C75.2124 43.4533 75.6124 43.4 76.0391 43.4H76.0791L76.1191 43.44ZM80.1191 62.56L80.0791 62.6H80.0391C79.6124 62.6 79.2124 62.5467 78.8391 62.44C78.4924 62.3333 78.1591 62.1733 77.8391 61.96C77.5457 61.7467 77.2924 61.48 77.0791 61.16C76.8657 60.8667 76.7057 60.5467 76.5991 60.2C76.4924 59.8267 76.4391 59.4267 76.4391 59V58.96L76.4791 58.92H80.1191V62.56ZM79.9591 62.56V58.92H83.5991L83.6391 58.96V59C83.6391 59.4267 83.5857 59.8267 83.4791 60.2C83.3724 60.5467 83.2124 60.8667 82.9991 61.16C82.7857 61.48 82.5191 61.7467 82.1991 61.96C81.9057 62.1733 81.5724 62.3333 81.1991 62.44C80.8524 62.5467 80.4657 62.6 80.0391 62.6H79.9991L79.9591 62.56ZM79.9591 55.44L79.9991 55.4H80.0391C80.4657 55.4 80.8524 55.4533 81.1991 55.56C81.5724 55.6667 81.9057 55.8267 82.1991 56.04C82.5191 56.2533 82.7857 56.52 82.9991 56.84C83.2124 57.1333 83.3724 57.4667 83.4791 57.84C83.5857 58.1867 83.6391 58.5733 83.6391 59V59.04L83.5991 59.08H79.9591V55.44ZM80.1191 55.44V59.08H76.4791L76.4391 59.04V59C76.4391 58.5733 76.4924 58.1867 76.5991 57.84C76.7057 57.4667 76.8657 57.1333 77.0791 56.84C77.2924 56.52 77.5457 56.2533 77.8391 56.04C78.1591 55.8267 78.4924 55.6667 78.8391 55.56C79.2124 55.4533 79.6124 55.4 80.0391 55.4H80.0791L80.1191 55.44ZM80.1191 46.56L80.0791 46.6H80.0391C79.6124 46.6 79.2124 46.5467 78.8391 46.44C78.4924 46.3333 78.1591 46.1733 77.8391 45.96C77.5457 45.7467 77.2924 45.4933 77.0791 45.2C76.8657 44.88 76.7057 44.5467 76.5991 44.2C76.4924 43.8267 76.4391 43.4267 76.4391 43V42.96L76.4791 42.92H80.1191V46.56ZM79.9591 46.56V42.92H83.5991L83.6391 42.96V43C83.6391 43.4267 83.5857 43.8267 83.4791 44.2C83.3724 44.5467 83.2124 44.88 82.9991 45.2C82.7857 45.4933 82.5191 45.7467 82.1991 45.96C81.9057 46.1733 81.5724 46.3333 81.1991 46.44C80.8524 46.5467 80.4657 46.6 80.0391 46.6H79.9991L79.9591 46.56ZM79.9591 39.44L79.9991 39.4H80.0391C80.4657 39.4 80.8524 39.4533 81.1991 39.56C81.5724 39.6667 81.9057 39.8267 82.1991 40.04C82.5191 40.2533 82.7857 40.52 82.9991 40.84C83.2124 41.1333 83.3724 41.4667 83.4791 41.84C83.5857 42.1867 83.6391 42.5733 83.6391 43V43.04L83.5991 43.08H79.9591V39.44ZM80.1191 39.44V43.08H76.4791L76.4391 43.04V43C76.4391 42.5733 76.4924 42.1867 76.5991 41.84C76.7057 41.4667 76.8657 41.1333 77.0791 40.84C77.2924 40.52 77.5457 40.2533 77.8391 40.04C78.1591 39.8267 78.4924 39.6667 78.8391 39.56C79.2124 39.4533 79.6124 39.4 80.0391 39.4H80.0791L80.1191 39.44ZM84.1191 62.56L84.0791 62.6H84.0391C83.6124 62.6 83.2124 62.5467 82.8391 62.44C82.4924 62.3333 82.1591 62.1733 81.8391 61.96C81.5457 61.7467 81.2924 61.48 81.0791 61.16C80.8657 60.8667 80.7057 60.5467 80.5991 60.2C80.4924 59.8267 80.4391 59.4267 80.4391 59V58.96L80.4791 58.92H84.1191V62.56ZM83.9591 62.56V58.92H87.5991L87.6391 58.96V59C87.6391 59.4267 87.5857 59.8267 87.4791 60.2C87.3724 60.5467 87.2124 60.8667 86.9991 61.16C86.7857 61.48 86.5191 61.7467 86.1991 61.96C85.9057 62.1733 85.5724 62.3333 85.1991 62.44C84.8524 62.5467 84.4657 62.6 84.0391 62.6H83.9991L83.9591 62.56ZM83.9591 55.44L83.9991 55.4H84.0391C84.4657 55.4 84.8524 55.4533 85.1991 55.56C85.5724 55.6667 85.9057 55.8267 86.1991 56.04C86.5191 56.2533 86.7857 56.52 86.9991 56.84C87.2124 57.1333 87.3724 57.4667 87.4791 57.84C87.5857 58.1867 87.6391 58.5733 87.6391 59V59.04L87.5991 59.08H83.9591V55.44ZM84.1191 55.44V59.08H80.4791L80.4391 59.04V59C80.4391 58.5733 80.4924 58.1867 80.5991 57.84C80.7057 57.4667 80.8657 57.1333 81.0791 56.84C81.2924 56.52 81.5457 56.2533 81.8391 56.04C82.1591 55.8267 82.4924 55.6667 82.8391 55.56C83.2124 55.4533 83.6124 55.4 84.0391 55.4H84.0791L84.1191 55.44ZM84.1191 46.56L84.0791 46.6H84.0391C83.6124 46.6 83.2124 46.5467 82.8391 46.44C82.4924 46.3333 82.1591 46.1733 81.8391 45.96C81.5457 45.7467 81.2924 45.4933 81.0791 45.2C80.8657 44.88 80.7057 44.5467 80.5991 44.2C80.4924 43.8267 80.4391 43.4267 80.4391 43V42.96L80.4791 42.92H84.1191V46.56ZM83.9591 46.56V42.92H87.5991L87.6391 42.96V43C87.6391 43.4267 87.5857 43.8267 87.4791 44.2C87.3724 44.5467 87.2124 44.88 86.9991 45.2C86.7857 45.4933 86.5191 45.7467 86.1991 45.96C85.9057 46.1733 85.5724 46.3333 85.1991 46.44C84.8524 46.5467 84.4657 46.6 84.0391 46.6H83.9991L83.9591 46.56ZM83.9591 39.44L83.9991 39.4H84.0391C84.4657 39.4 84.8524 39.4533 85.1991 39.56C85.5724 39.6667 85.9057 39.8267 86.1991 40.04C86.5191 40.2533 86.7857 40.52 86.9991 40.84C87.2124 41.1333 87.3724 41.4667 87.4791 41.84C87.5857 42.1867 87.6391 42.5733 87.6391 43V43.04L87.5991 43.08H83.9591V39.44ZM84.1191 39.44V43.08H80.4791L80.4391 43.04V43C80.4391 42.5733 80.4924 42.1867 80.5991 41.84C80.7057 41.4667 80.8657 41.1333 81.0791 40.84C81.2924 40.52 81.5457 40.2533 81.8391 40.04C82.1591 39.8267 82.4924 39.6667 82.8391 39.56C83.2124 39.4533 83.6124 39.4 84.0391 39.4H84.0791L84.1191 39.44ZM88.1191 62.56L88.0791 62.6H88.0391C87.6124 62.6 87.2124 62.5467 86.8391 62.44C86.4924 62.3333 86.1591 62.1733 85.8391 61.96C85.5457 61.7467 85.2924 61.48 85.0791 61.16C84.8657 60.8667 84.7057 60.5467 84.5991 60.2C84.4924 59.8267 84.4391 59.4267 84.4391 59V58.96L84.4791 58.92H88.1191V62.56ZM87.9591 62.56V58.92H91.5991L91.6391 58.96V59C91.6391 59.4267 91.5857 59.8267 91.4791 60.2C91.3724 60.5467 91.2124 60.8667 90.9991 61.16C90.7857 61.48 90.5191 61.7467 90.1991 61.96C89.9057 62.1733 89.5724 62.3333 89.1991 62.44C88.8524 62.5467 88.4657 62.6 88.0391 62.6H87.9991L87.9591 62.56ZM87.9591 55.44L87.9991 55.4H88.0391C88.4657 55.4 88.8524 55.4533 89.1991 55.56C89.5724 55.6667 89.9057 55.8267 90.1991 56.04C90.5191 56.2533 90.7857 56.52 90.9991 56.84C91.2124 57.1333 91.3724 57.4667 91.4791 57.84C91.5857 58.1867 91.6391 58.5733 91.6391 59V59.04L91.5991 59.08H87.9591V55.44ZM88.1191 55.44V59.08H84.4791L84.4391 59.04V59C84.4391 58.5733 84.4924 58.1867 84.5991 57.84C84.7057 57.4667 84.8657 57.1333 85.0791 56.84C85.2924 56.52 85.5457 56.2533 85.8391 56.04C86.1591 55.8267 86.4924 55.6667 86.8391 55.56C87.2124 55.4533 87.6124 55.4 88.0391 55.4H88.0791L88.1191 55.44ZM88.1191 46.56L88.0791 46.6H88.0391C87.6124 46.6 87.2124 46.5467 86.8391 46.44C86.4924 46.3333 86.1591 46.1733 85.8391 45.96C85.5457 45.7467 85.2924 45.4933 85.0791 45.2C84.8657 44.88 84.7057 44.5467 84.5991 44.2C84.4924 43.8267 84.4391 43.4267 84.4391 43V42.96L84.4791 42.92H88.1191V46.56ZM87.9591 46.56V42.92H91.5991L91.6391 42.96V43C91.6391 43.4267 91.5857 43.8267 91.4791 44.2C91.3724 44.5467 91.2124 44.88 90.9991 45.2C90.7857 45.4933 90.5191 45.7467 90.1991 45.96C89.9057 46.1733 89.5724 46.3333 89.1991 46.44C88.8524 46.5467 88.4657 46.6 88.0391 46.6H87.9991L87.9591 46.56ZM87.9591 39.44L87.9991 39.4H88.0391C88.4657 39.4 88.8524 39.4533 89.1991 39.56C89.5724 39.6667 89.9057 39.8267 90.1991 40.04C90.5191 40.2533 90.7857 40.52 90.9991 40.84C91.2124 41.1333 91.3724 41.4667 91.4791 41.84C91.5857 42.1867 91.6391 42.5733 91.6391 43V43.04L91.5991 43.08H87.9591V39.44ZM88.1191 39.44V43.08H84.4791L84.4391 43.04V43C84.4391 42.5733 84.4924 42.1867 84.5991 41.84C84.7057 41.4667 84.8657 41.1333 85.0791 40.84C85.2924 40.52 85.5457 40.2533 85.8391 40.04C86.1591 39.8267 86.4924 39.6667 86.8391 39.56C87.2124 39.4533 87.6124 39.4 88.0391 39.4H88.0791L88.1191 39.44ZM92.1191 58.56L92.0791 58.6H92.0391C91.6124 58.6 91.2124 58.5467 90.8391 58.44C90.4924 58.3333 90.1591 58.1733 89.8391 57.96C89.5457 57.7467 89.2924 57.4933 89.0791 57.2C88.8657 56.88 88.7057 56.5467 88.5991 56.2C88.4924 55.8267 88.4391 55.4267 88.4391 55V54.96L88.4791 54.92H92.1191V58.56ZM91.9591 58.56V54.92H95.5991L95.6391 54.96V55C95.6391 55.4267 95.5857 55.8267 95.4791 56.2C95.3724 56.5467 95.2124 56.88 94.9991 57.2C94.7857 57.4933 94.5191 57.7467 94.1991 57.96C93.9057 58.1733 93.5724 58.3333 93.1991 58.44C92.8524 58.5467 92.4657 58.6 92.0391 58.6H91.9991L91.9591 58.56ZM91.9591 51.44L91.9991 51.4H92.0391C92.4657 51.4 92.8524 51.4533 93.1991 51.56C93.5724 51.6667 93.9057 51.8267 94.1991 52.04C94.5191 52.2533 94.7857 52.52 94.9991 52.84C95.2124 53.1333 95.3724 53.4667 95.4791 53.84C95.5857 54.1867 95.6391 54.5733 95.6391 55V55.04L95.5991 55.08H91.9591V51.44ZM92.1191 51.44V55.08H88.4791L88.4391 55.04V55C88.4391 54.5733 88.4924 54.1867 88.5991 53.84C88.7057 53.4667 88.8657 53.1333 89.0791 52.84C89.2924 52.52 89.5457 52.2533 89.8391 52.04C90.1591 51.8267 90.4924 51.6667 90.8391 51.56C91.2124 51.4533 91.6124 51.4 92.0391 51.4H92.0791L92.1191 51.44ZM92.1191 54.56L92.0791 54.6H92.0391C91.6124 54.6 91.2124 54.5467 90.8391 54.44C90.4924 54.3333 90.1591 54.1733 89.8391 53.96C89.5457 53.7467 89.2924 53.4933 89.0791 53.2C88.8657 52.88 88.7057 52.5467 88.5991 52.2C88.4924 51.8267 88.4391 51.4267 88.4391 51V50.96L88.4791 50.92H92.1191V54.56ZM91.9591 54.56V50.92H95.5991L95.6391 50.96V51C95.6391 51.4267 95.5857 51.8267 95.4791 52.2C95.3724 52.5467 95.2124 52.88 94.9991 53.2C94.7857 53.4933 94.5191 53.7467 94.1991 53.96C93.9057 54.1733 93.5724 54.3333 93.1991 54.44C92.8524 54.5467 92.4657 54.6 92.0391 54.6H91.9991L91.9591 54.56ZM91.9591 47.44L91.9991 47.4H92.0391C92.4657 47.4 92.8524 47.4533 93.1991 47.56C93.5724 47.6667 93.9057 47.8267 94.1991 48.04C94.5191 48.2533 94.7857 48.52 94.9991 48.84C95.2124 49.1333 95.3724 49.4667 95.4791 49.84C95.5857 50.1867 95.6391 50.5733 95.6391 51V51.04L95.5991 51.08H91.9591V47.44ZM92.1191 47.44V51.08H88.4791L88.4391 51.04V51C88.4391 50.5733 88.4924 50.1867 88.5991 49.84C88.7057 49.4667 88.8657 49.1333 89.0791 48.84C89.2924 48.52 89.5457 48.2533 89.8391 48.04C90.1591 47.8267 90.4924 47.6667 90.8391 47.56C91.2124 47.4533 91.6124 47.4 92.0391 47.4H92.0791L92.1191 47.44ZM92.1191 50.56L92.0791 50.6H92.0391C91.6124 50.6 91.2124 50.5467 90.8391 50.44C90.4924 50.3333 90.1591 50.1733 89.8391 49.96C89.5457 49.7467 89.2924 49.4933 89.0791 49.2C88.8657 48.88 88.7057 48.5467 88.5991 48.2C88.4924 47.8267 88.4391 47.4267 88.4391 47V46.96L88.4791 46.92H92.1191V50.56ZM91.9591 50.56V46.92H95.5991L95.6391 46.96V47C95.6391 47.4267 95.5857 47.8267 95.4791 48.2C95.3724 48.5467 95.2124 48.88 94.9991 49.2C94.7857 49.4933 94.5191 49.7467 94.1991 49.96C93.9057 50.1733 93.5724 50.3333 93.1991 50.44C92.8524 50.5467 92.4657 50.6 92.0391 50.6H91.9991L91.9591 50.56ZM91.9591 43.44L91.9991 43.4H92.0391C92.4657 43.4 92.8524 43.4533 93.1991 43.56C93.5724 43.6667 93.9057 43.8267 94.1991 44.04C94.5191 44.2533 94.7857 44.52 94.9991 44.84C95.2124 45.1333 95.3724 45.4667 95.4791 45.84C95.5857 46.1867 95.6391 46.5733 95.6391 47V47.04L95.5991 47.08H91.9591V43.44ZM92.1191 43.44V47.08H88.4791L88.4391 47.04V47C88.4391 46.5733 88.4924 46.1867 88.5991 45.84C88.7057 45.4667 88.8657 45.1333 89.0791 44.84C89.2924 44.52 89.5457 44.2533 89.8391 44.04C90.1591 43.8267 90.4924 43.6667 90.8391 43.56C91.2124 43.4533 91.6124 43.4 92.0391 43.4H92.0791L92.1191 43.44ZM102.103 62.56L102.063 62.6H102.023C101.597 62.6 101.197 62.5467 100.823 62.44C100.477 62.3333 100.157 62.1733 99.8634 61.96C99.5434 61.7467 99.2768 61.48 99.0634 61.16C98.8501 60.8667 98.6901 60.5467 98.5834 60.2C98.4768 59.8267 98.4234 59.4267 98.4234 59V58.96L98.4634 58.92H102.103V62.56ZM101.943 62.56V58.92H105.583L105.623 58.96V59C105.623 59.4267 105.57 59.8267 105.463 60.2C105.357 60.5467 105.197 60.8667 104.983 61.16C104.77 61.48 104.503 61.7467 104.183 61.96C103.89 62.1733 103.557 62.3333 103.183 62.44C102.837 62.5467 102.45 62.6 102.023 62.6H101.983L101.943 62.56ZM101.943 55.44L101.983 55.4H102.023C102.45 55.4 102.837 55.4533 103.183 55.56C103.557 55.6667 103.89 55.8267 104.183 56.04C104.503 56.2533 104.77 56.52 104.983 56.84C105.197 57.1333 105.357 57.4667 105.463 57.84C105.57 58.1867 105.623 58.5733 105.623 59V59.04L105.583 59.08H101.943V55.44ZM102.103 55.44V59.08H98.4634L98.4234 59.04V59C98.4234 58.5733 98.4768 58.1867 98.5834 57.84C98.6901 57.4667 98.8501 57.1333 99.0634 56.84C99.2768 56.52 99.5434 56.2533 99.8634 56.04C100.157 55.8267 100.477 55.6667 100.823 55.56C101.197 55.4533 101.597 55.4 102.023 55.4H102.063L102.103 55.44ZM102.103 58.56L102.063 58.6H102.023C101.597 58.6 101.197 58.5467 100.823 58.44C100.477 58.3333 100.157 58.1733 99.8634 57.96C99.5434 57.7467 99.2768 57.4933 99.0634 57.2C98.8501 56.88 98.6901 56.5467 98.5834 56.2C98.4768 55.8267 98.4234 55.4267 98.4234 55V54.96L98.4634 54.92H102.103V58.56ZM101.943 58.56V54.92H105.583L105.623 54.96V55C105.623 55.4267 105.57 55.8267 105.463 56.2C105.357 56.5467 105.197 56.88 104.983 57.2C104.77 57.4933 104.503 57.7467 104.183 57.96C103.89 58.1733 103.557 58.3333 103.183 58.44C102.837 58.5467 102.45 58.6 102.023 58.6H101.983L101.943 58.56ZM101.943 51.44L101.983 51.4H102.023C102.45 51.4 102.837 51.4533 103.183 51.56C103.557 51.6667 103.89 51.8267 104.183 52.04C104.503 52.2533 104.77 52.52 104.983 52.84C105.197 53.1333 105.357 53.4667 105.463 53.84C105.57 54.1867 105.623 54.5733 105.623 55V55.04L105.583 55.08H101.943V51.44ZM102.103 51.44V55.08H98.4634L98.4234 55.04V55C98.4234 54.5733 98.4768 54.1867 98.5834 53.84C98.6901 53.4667 98.8501 53.1333 99.0634 52.84C99.2768 52.52 99.5434 52.2533 99.8634 52.04C100.157 51.8267 100.477 51.6667 100.823 51.56C101.197 51.4533 101.597 51.4 102.023 51.4H102.063L102.103 51.44ZM102.103 54.56L102.063 54.6H102.023C101.597 54.6 101.197 54.5467 100.823 54.44C100.477 54.3333 100.157 54.1733 99.8634 53.96C99.5434 53.7467 99.2768 53.4933 99.0634 53.2C98.8501 52.88 98.6901 52.5467 98.5834 52.2C98.4768 51.8267 98.4234 51.4267 98.4234 51V50.96L98.4634 50.92H102.103V54.56ZM101.943 54.56V50.92H105.583L105.623 50.96V51C105.623 51.4267 105.57 51.8267 105.463 52.2C105.357 52.5467 105.197 52.88 104.983 53.2C104.77 53.4933 104.503 53.7467 104.183 53.96C103.89 54.1733 103.557 54.3333 103.183 54.44C102.837 54.5467 102.45 54.6 102.023 54.6H101.983L101.943 54.56ZM101.943 47.44L101.983 47.4H102.023C102.45 47.4 102.837 47.4533 103.183 47.56C103.557 47.6667 103.89 47.8267 104.183 48.04C104.503 48.2533 104.77 48.52 104.983 48.84C105.197 49.1333 105.357 49.4667 105.463 49.84C105.57 50.1867 105.623 50.5733 105.623 51V51.04L105.583 51.08H101.943V47.44ZM102.103 47.44V51.08H98.4634L98.4234 51.04V51C98.4234 50.5733 98.4768 50.1867 98.5834 49.84C98.6901 49.4667 98.8501 49.1333 99.0634 48.84C99.2768 48.52 99.5434 48.2533 99.8634 48.04C100.157 47.8267 100.477 47.6667 100.823 47.56C101.197 47.4533 101.597 47.4 102.023 47.4H102.063L102.103 47.44ZM102.103 50.56L102.063 50.6H102.023C101.597 50.6 101.197 50.5467 100.823 50.44C100.477 50.3333 100.157 50.1733 99.8634 49.96C99.5434 49.7467 99.2768 49.4933 99.0634 49.2C98.8501 48.88 98.6901 48.5467 98.5834 48.2C98.4768 47.8267 98.4234 47.4267 98.4234 47V46.96L98.4634 46.92H102.103V50.56ZM101.943 50.56V46.92H105.583L105.623 46.96V47C105.623 47.4267 105.57 47.8267 105.463 48.2C105.357 48.5467 105.197 48.88 104.983 49.2C104.77 49.4933 104.503 49.7467 104.183 49.96C103.89 50.1733 103.557 50.3333 103.183 50.44C102.837 50.5467 102.45 50.6 102.023 50.6H101.983L101.943 50.56ZM101.943 43.44L101.983 43.4H102.023C102.45 43.4 102.837 43.4533 103.183 43.56C103.557 43.6667 103.89 43.8267 104.183 44.04C104.503 44.2533 104.77 44.52 104.983 44.84C105.197 45.1333 105.357 45.4667 105.463 45.84C105.57 46.1867 105.623 46.5733 105.623 47V47.04L105.583 47.08H101.943V43.44ZM102.103 43.44V47.08H98.4634L98.4234 47.04V47C98.4234 46.5733 98.4768 46.1867 98.5834 45.84C98.6901 45.4667 98.8501 45.1333 99.0634 44.84C99.2768 44.52 99.5434 44.2533 99.8634 44.04C100.157 43.8267 100.477 43.6667 100.823 43.56C101.197 43.4533 101.597 43.4 102.023 43.4H102.063L102.103 43.44ZM102.103 46.56L102.063 46.6H102.023C101.597 46.6 101.197 46.5467 100.823 46.44C100.477 46.3333 100.157 46.1733 99.8634 45.96C99.5434 45.7467 99.2768 45.4933 99.0634 45.2C98.8501 44.88 98.6901 44.5467 98.5834 44.2C98.4768 43.8267 98.4234 43.4267 98.4234 43V42.96L98.4634 42.92H102.103V46.56ZM101.943 46.56V42.92H105.583L105.623 42.96V43C105.623 43.4267 105.57 43.8267 105.463 44.2C105.357 44.5467 105.197 44.88 104.983 45.2C104.77 45.4933 104.503 45.7467 104.183 45.96C103.89 46.1733 103.557 46.3333 103.183 46.44C102.837 46.5467 102.45 46.6 102.023 46.6H101.983L101.943 46.56ZM101.943 39.44L101.983 39.4H102.023C102.45 39.4 102.837 39.4533 103.183 39.56C103.557 39.6667 103.89 39.8267 104.183 40.04C104.503 40.2533 104.77 40.52 104.983 40.84C105.197 41.1333 105.357 41.4667 105.463 41.84C105.57 42.1867 105.623 42.5733 105.623 43V43.04L105.583 43.08H101.943V39.44ZM102.103 39.44V43.08H98.4634L98.4234 43.04V43C98.4234 42.5733 98.4768 42.1867 98.5834 41.84C98.6901 41.4667 98.8501 41.1333 99.0634 40.84C99.2768 40.52 99.5434 40.2533 99.8634 40.04C100.157 39.8267 100.477 39.6667 100.823 39.56C101.197 39.4533 101.597 39.4 102.023 39.4H102.063L102.103 39.44ZM106.103 50.56L106.063 50.6H106.023C105.597 50.6 105.197 50.5467 104.823 50.44C104.477 50.3333 104.143 50.1733 103.823 49.96C103.53 49.7467 103.277 49.4933 103.063 49.2C102.85 48.88 102.69 48.5467 102.583 48.2C102.477 47.8267 102.423 47.4267 102.423 47V46.96L102.463 46.92H106.103V50.56ZM105.943 50.56V46.92H109.583L109.623 46.96V47C109.623 47.4267 109.57 47.8267 109.463 48.2C109.357 48.5467 109.197 48.88 108.983 49.2C108.77 49.4933 108.503 49.7467 108.183 49.96C107.89 50.1733 107.557 50.3333 107.183 50.44C106.837 50.5467 106.45 50.6 106.023 50.6H105.983L105.943 50.56ZM105.943 43.44L105.983 43.4H106.023C106.45 43.4 106.837 43.4533 107.183 43.56C107.557 43.6667 107.89 43.8267 108.183 44.04C108.503 44.2533 108.77 44.52 108.983 44.84C109.197 45.1333 109.357 45.4667 109.463 45.84C109.57 46.1867 109.623 46.5733 109.623 47V47.04L109.583 47.08H105.943V43.44ZM106.103 43.44V47.08H102.463L102.423 47.04V47C102.423 46.5733 102.477 46.1867 102.583 45.84C102.69 45.4667 102.85 45.1333 103.063 44.84C103.277 44.52 103.53 44.2533 103.823 44.04C104.143 43.8267 104.477 43.6667 104.823 43.56C105.197 43.4533 105.597 43.4 106.023 43.4H106.063L106.103 43.44ZM110.103 46.56L110.063 46.6H110.023C109.597 46.6 109.197 46.5467 108.823 46.44C108.477 46.3333 108.143 46.1733 107.823 45.96C107.53 45.7467 107.277 45.4933 107.063 45.2C106.85 44.88 106.69 44.5467 106.583 44.2C106.477 43.8267 106.423 43.4267 106.423 43V42.96L106.463 42.92H110.103V46.56ZM109.943 46.56V42.92H113.583L113.623 42.96V43C113.623 43.4267 113.57 43.8267 113.463 44.2C113.357 44.5467 113.197 44.88 112.983 45.2C112.77 45.4933 112.503 45.7467 112.183 45.96C111.89 46.1733 111.557 46.3333 111.183 46.44C110.837 46.5467 110.45 46.6 110.023 46.6H109.983L109.943 46.56ZM109.943 39.44L109.983 39.4H110.023C110.45 39.4 110.837 39.4533 111.183 39.56C111.557 39.6667 111.89 39.8267 112.183 40.04C112.503 40.2533 112.77 40.52 112.983 40.84C113.197 41.1333 113.357 41.4667 113.463 41.84C113.57 42.1867 113.623 42.5733 113.623 43V43.04L113.583 43.08H109.943V39.44ZM110.103 39.44V43.08H106.463L106.423 43.04V43C106.423 42.5733 106.477 42.1867 106.583 41.84C106.69 41.4667 106.85 41.1333 107.063 40.84C107.277 40.52 107.53 40.2533 107.823 40.04C108.143 39.8267 108.477 39.6667 108.823 39.56C109.197 39.4533 109.597 39.4 110.023 39.4H110.063L110.103 39.44ZM114.103 46.56L114.063 46.6H114.023C113.597 46.6 113.197 46.5467 112.823 46.44C112.477 46.3333 112.143 46.1733 111.823 45.96C111.53 45.7467 111.277 45.4933 111.063 45.2C110.85 44.88 110.69 44.5467 110.583 44.2C110.477 43.8267 110.423 43.4267 110.423 43V42.96L110.463 42.92H114.103V46.56ZM113.943 46.56V42.92H117.583L117.623 42.96V43C117.623 43.4267 117.57 43.8267 117.463 44.2C117.357 44.5467 117.197 44.88 116.983 45.2C116.77 45.4933 116.503 45.7467 116.183 45.96C115.89 46.1733 115.557 46.3333 115.183 46.44C114.837 46.5467 114.45 46.6 114.023 46.6H113.983L113.943 46.56ZM113.943 39.44L113.983 39.4H114.023C114.45 39.4 114.837 39.4533 115.183 39.56C115.557 39.6667 115.89 39.8267 116.183 40.04C116.503 40.2533 116.77 40.52 116.983 40.84C117.197 41.1333 117.357 41.4667 117.463 41.84C117.57 42.1867 117.623 42.5733 117.623 43V43.04L117.583 43.08H113.943V39.44ZM114.103 39.44V43.08H110.463L110.423 43.04V43C110.423 42.5733 110.477 42.1867 110.583 41.84C110.69 41.4667 110.85 41.1333 111.063 40.84C111.277 40.52 111.53 40.2533 111.823 40.04C112.143 39.8267 112.477 39.6667 112.823 39.56C113.197 39.4533 113.597 39.4 114.023 39.4H114.063L114.103 39.44ZM118.103 62.56L118.063 62.6H118.023C117.597 62.6 117.197 62.5467 116.823 62.44C116.477 62.3333 116.143 62.1733 115.823 61.96C115.53 61.7467 115.277 61.48 115.063 61.16C114.85 60.8667 114.69 60.5467 114.583 60.2C114.477 59.8267 114.423 59.4267 114.423 59V58.96L114.463 58.92H118.103V62.56ZM117.943 62.56V58.92H121.583L121.623 58.96V59C121.623 59.4267 121.57 59.8267 121.463 60.2C121.357 60.5467 121.197 60.8667 120.983 61.16C120.77 61.48 120.503 61.7467 120.183 61.96C119.89 62.1733 119.557 62.3333 119.183 62.44C118.837 62.5467 118.45 62.6 118.023 62.6H117.983L117.943 62.56ZM117.943 55.44L117.983 55.4H118.023C118.45 55.4 118.837 55.4533 119.183 55.56C119.557 55.6667 119.89 55.8267 120.183 56.04C120.503 56.2533 120.77 56.52 120.983 56.84C121.197 57.1333 121.357 57.4667 121.463 57.84C121.57 58.1867 121.623 58.5733 121.623 59V59.04L121.583 59.08H117.943V55.44ZM118.103 55.44V59.08H114.463L114.423 59.04V59C114.423 58.5733 114.477 58.1867 114.583 57.84C114.69 57.4667 114.85 57.1333 115.063 56.84C115.277 56.52 115.53 56.2533 115.823 56.04C116.143 55.8267 116.477 55.6667 116.823 55.56C117.197 55.4533 117.597 55.4 118.023 55.4H118.063L118.103 55.44ZM118.103 58.56L118.063 58.6H118.023C117.597 58.6 117.197 58.5467 116.823 58.44C116.477 58.3333 116.143 58.1733 115.823 57.96C115.53 57.7467 115.277 57.4933 115.063 57.2C114.85 56.88 114.69 56.5467 114.583 56.2C114.477 55.8267 114.423 55.4267 114.423 55V54.96L114.463 54.92H118.103V58.56ZM117.943 58.56V54.92H121.583L121.623 54.96V55C121.623 55.4267 121.57 55.8267 121.463 56.2C121.357 56.5467 121.197 56.88 120.983 57.2C120.77 57.4933 120.503 57.7467 120.183 57.96C119.89 58.1733 119.557 58.3333 119.183 58.44C118.837 58.5467 118.45 58.6 118.023 58.6H117.983L117.943 58.56ZM117.943 51.44L117.983 51.4H118.023C118.45 51.4 118.837 51.4533 119.183 51.56C119.557 51.6667 119.89 51.8267 120.183 52.04C120.503 52.2533 120.77 52.52 120.983 52.84C121.197 53.1333 121.357 53.4667 121.463 53.84C121.57 54.1867 121.623 54.5733 121.623 55V55.04L121.583 55.08H117.943V51.44ZM118.103 51.44V55.08H114.463L114.423 55.04V55C114.423 54.5733 114.477 54.1867 114.583 53.84C114.69 53.4667 114.85 53.1333 115.063 52.84C115.277 52.52 115.53 52.2533 115.823 52.04C116.143 51.8267 116.477 51.6667 116.823 51.56C117.197 51.4533 117.597 51.4 118.023 51.4H118.063L118.103 51.44ZM118.103 54.56L118.063 54.6H118.023C117.597 54.6 117.197 54.5467 116.823 54.44C116.477 54.3333 116.143 54.1733 115.823 53.96C115.53 53.7467 115.277 53.4933 115.063 53.2C114.85 52.88 114.69 52.5467 114.583 52.2C114.477 51.8267 114.423 51.4267 114.423 51V50.96L114.463 50.92H118.103V54.56ZM117.943 54.56V50.92H121.583L121.623 50.96V51C121.623 51.4267 121.57 51.8267 121.463 52.2C121.357 52.5467 121.197 52.88 120.983 53.2C120.77 53.4933 120.503 53.7467 120.183 53.96C119.89 54.1733 119.557 54.3333 119.183 54.44C118.837 54.5467 118.45 54.6 118.023 54.6H117.983L117.943 54.56ZM117.943 47.44L117.983 47.4H118.023C118.45 47.4 118.837 47.4533 119.183 47.56C119.557 47.6667 119.89 47.8267 120.183 48.04C120.503 48.2533 120.77 48.52 120.983 48.84C121.197 49.1333 121.357 49.4667 121.463 49.84C121.57 50.1867 121.623 50.5733 121.623 51V51.04L121.583 51.08H117.943V47.44ZM118.103 47.44V51.08H114.463L114.423 51.04V51C114.423 50.5733 114.477 50.1867 114.583 49.84C114.69 49.4667 114.85 49.1333 115.063 48.84C115.277 48.52 115.53 48.2533 115.823 48.04C116.143 47.8267 116.477 47.6667 116.823 47.56C117.197 47.4533 117.597 47.4 118.023 47.4H118.063L118.103 47.44ZM118.103 50.56L118.063 50.6H118.023C117.597 50.6 117.197 50.5467 116.823 50.44C116.477 50.3333 116.143 50.1733 115.823 49.96C115.53 49.7467 115.277 49.4933 115.063 49.2C114.85 48.88 114.69 48.5467 114.583 48.2C114.477 47.8267 114.423 47.4267 114.423 47V46.96L114.463 46.92H118.103V50.56ZM117.943 50.56V46.92H121.583L121.623 46.96V47C121.623 47.4267 121.57 47.8267 121.463 48.2C121.357 48.5467 121.197 48.88 120.983 49.2C120.77 49.4933 120.503 49.7467 120.183 49.96C119.89 50.1733 119.557 50.3333 119.183 50.44C118.837 50.5467 118.45 50.6 118.023 50.6H117.983L117.943 50.56ZM117.943 43.44L117.983 43.4H118.023C118.45 43.4 118.837 43.4533 119.183 43.56C119.557 43.6667 119.89 43.8267 120.183 44.04C120.503 44.2533 120.77 44.52 120.983 44.84C121.197 45.1333 121.357 45.4667 121.463 45.84C121.57 46.1867 121.623 46.5733 121.623 47V47.04L121.583 47.08H117.943V43.44ZM118.103 43.44V47.08H114.463L114.423 47.04V47C114.423 46.5733 114.477 46.1867 114.583 45.84C114.69 45.4667 114.85 45.1333 115.063 44.84C115.277 44.52 115.53 44.2533 115.823 44.04C116.143 43.8267 116.477 43.6667 116.823 43.56C117.197 43.4533 117.597 43.4 118.023 43.4H118.063L118.103 43.44ZM128.088 46.56L128.048 46.6H128.008C127.581 46.6 127.181 46.5467 126.808 46.44C126.461 46.3333 126.141 46.1733 125.848 45.96C125.528 45.7467 125.261 45.4933 125.048 45.2C124.834 44.88 124.674 44.5467 124.568 44.2C124.461 43.8267 124.408 43.4267 124.408 43V42.96L124.448 42.92H128.088V46.56ZM127.928 46.56V42.92H131.568L131.608 42.96V43C131.608 43.4267 131.554 43.8267 131.448 44.2C131.341 44.5467 131.181 44.88 130.968 45.2C130.754 45.4933 130.488 45.7467 130.168 45.96C129.874 46.1733 129.541 46.3333 129.168 46.44C128.821 46.5467 128.434 46.6 128.008 46.6H127.968L127.928 46.56ZM127.928 39.44L127.968 39.4H128.008C128.434 39.4 128.821 39.4533 129.168 39.56C129.541 39.6667 129.874 39.8267 130.168 40.04C130.488 40.2533 130.754 40.52 130.968 40.84C131.181 41.1333 131.341 41.4667 131.448 41.84C131.554 42.1867 131.608 42.5733 131.608 43V43.04L131.568 43.08H127.928V39.44ZM128.088 39.44V43.08H124.448L124.408 43.04V43C124.408 42.5733 124.461 42.1867 124.568 41.84C124.674 41.4667 124.834 41.1333 125.048 40.84C125.261 40.52 125.528 40.2533 125.848 40.04C126.141 39.8267 126.461 39.6667 126.808 39.56C127.181 39.4533 127.581 39.4 128.008 39.4H128.048L128.088 39.44ZM132.088 58.56L132.048 58.6H132.008C131.581 58.6 131.181 58.5467 130.808 58.44C130.461 58.3333 130.128 58.1733 129.808 57.96C129.514 57.7467 129.261 57.4933 129.048 57.2C128.834 56.88 128.674 56.5467 128.568 56.2C128.461 55.8267 128.408 55.4267 128.408 55V54.96L128.448 54.92H132.088V58.56ZM131.928 58.56V54.92H135.568L135.608 54.96V55C135.608 55.4267 135.554 55.8267 135.448 56.2C135.341 56.5467 135.181 56.88 134.968 57.2C134.754 57.4933 134.488 57.7467 134.168 57.96C133.874 58.1733 133.541 58.3333 133.168 58.44C132.821 58.5467 132.434 58.6 132.008 58.6H131.968L131.928 58.56ZM131.928 51.44L131.968 51.4H132.008C132.434 51.4 132.821 51.4533 133.168 51.56C133.541 51.6667 133.874 51.8267 134.168 52.04C134.488 52.2533 134.754 52.52 134.968 52.84C135.181 53.1333 135.341 53.4667 135.448 53.84C135.554 54.1867 135.608 54.5733 135.608 55V55.04L135.568 55.08H131.928V51.44ZM132.088 51.44V55.08H128.448L128.408 55.04V55C128.408 54.5733 128.461 54.1867 128.568 53.84C128.674 53.4667 128.834 53.1333 129.048 52.84C129.261 52.52 129.514 52.2533 129.808 52.04C130.128 51.8267 130.461 51.6667 130.808 51.56C131.181 51.4533 131.581 51.4 132.008 51.4H132.048L132.088 51.44ZM132.088 54.56L132.048 54.6H132.008C131.581 54.6 131.181 54.5467 130.808 54.44C130.461 54.3333 130.128 54.1733 129.808 53.96C129.514 53.7467 129.261 53.4933 129.048 53.2C128.834 52.88 128.674 52.5467 128.568 52.2C128.461 51.8267 128.408 51.4267 128.408 51V50.96L128.448 50.92H132.088V54.56ZM131.928 54.56V50.92H135.568L135.608 50.96V51C135.608 51.4267 135.554 51.8267 135.448 52.2C135.341 52.5467 135.181 52.88 134.968 53.2C134.754 53.4933 134.488 53.7467 134.168 53.96C133.874 54.1733 133.541 54.3333 133.168 54.44C132.821 54.5467 132.434 54.6 132.008 54.6H131.968L131.928 54.56ZM131.928 47.44L131.968 47.4H132.008C132.434 47.4 132.821 47.4533 133.168 47.56C133.541 47.6667 133.874 47.8267 134.168 48.04C134.488 48.2533 134.754 48.52 134.968 48.84C135.181 49.1333 135.341 49.4667 135.448 49.84C135.554 50.1867 135.608 50.5733 135.608 51V51.04L135.568 51.08H131.928V47.44ZM132.088 47.44V51.08H128.448L128.408 51.04V51C128.408 50.5733 128.461 50.1867 128.568 49.84C128.674 49.4667 128.834 49.1333 129.048 48.84C129.261 48.52 129.514 48.2533 129.808 48.04C130.128 47.8267 130.461 47.6667 130.808 47.56C131.181 47.4533 131.581 47.4 132.008 47.4H132.048L132.088 47.44ZM132.088 50.56L132.048 50.6H132.008C131.581 50.6 131.181 50.5467 130.808 50.44C130.461 50.3333 130.128 50.1733 129.808 49.96C129.514 49.7467 129.261 49.4933 129.048 49.2C128.834 48.88 128.674 48.5467 128.568 48.2C128.461 47.8267 128.408 47.4267 128.408 47V46.96L128.448 46.92H132.088V50.56ZM131.928 50.56V46.92H135.568L135.608 46.96V47C135.608 47.4267 135.554 47.8267 135.448 48.2C135.341 48.5467 135.181 48.88 134.968 49.2C134.754 49.4933 134.488 49.7467 134.168 49.96C133.874 50.1733 133.541 50.3333 133.168 50.44C132.821 50.5467 132.434 50.6 132.008 50.6H131.968L131.928 50.56ZM131.928 43.44L131.968 43.4H132.008C132.434 43.4 132.821 43.4533 133.168 43.56C133.541 43.6667 133.874 43.8267 134.168 44.04C134.488 44.2533 134.754 44.52 134.968 44.84C135.181 45.1333 135.341 45.4667 135.448 45.84C135.554 46.1867 135.608 46.5733 135.608 47V47.04L135.568 47.08H131.928V43.44ZM132.088 43.44V47.08H128.448L128.408 47.04V47C128.408 46.5733 128.461 46.1867 128.568 45.84C128.674 45.4667 128.834 45.1333 129.048 44.84C129.261 44.52 129.514 44.2533 129.808 44.04C130.128 43.8267 130.461 43.6667 130.808 43.56C131.181 43.4533 131.581 43.4 132.008 43.4H132.048L132.088 43.44ZM132.088 46.56L132.048 46.6H132.008C131.581 46.6 131.181 46.5467 130.808 46.44C130.461 46.3333 130.128 46.1733 129.808 45.96C129.514 45.7467 129.261 45.4933 129.048 45.2C128.834 44.88 128.674 44.5467 128.568 44.2C128.461 43.8267 128.408 43.4267 128.408 43V42.96L128.448 42.92H132.088V46.56ZM131.928 46.56V42.92H135.568L135.608 42.96V43C135.608 43.4267 135.554 43.8267 135.448 44.2C135.341 44.5467 135.181 44.88 134.968 45.2C134.754 45.4933 134.488 45.7467 134.168 45.96C133.874 46.1733 133.541 46.3333 133.168 46.44C132.821 46.5467 132.434 46.6 132.008 46.6H131.968L131.928 46.56ZM131.928 39.44L131.968 39.4H132.008C132.434 39.4 132.821 39.4533 133.168 39.56C133.541 39.6667 133.874 39.8267 134.168 40.04C134.488 40.2533 134.754 40.52 134.968 40.84C135.181 41.1333 135.341 41.4667 135.448 41.84C135.554 42.1867 135.608 42.5733 135.608 43V43.04L135.568 43.08H131.928V39.44ZM132.088 39.44V43.08H128.448L128.408 43.04V43C128.408 42.5733 128.461 42.1867 128.568 41.84C128.674 41.4667 128.834 41.1333 129.048 40.84C129.261 40.52 129.514 40.2533 129.808 40.04C130.128 39.8267 130.461 39.6667 130.808 39.56C131.181 39.4533 131.581 39.4 132.008 39.4H132.048L132.088 39.44ZM132.088 42.56L132.048 42.6H132.008C131.581 42.6 131.181 42.5467 130.808 42.44C130.461 42.3333 130.128 42.1733 129.808 41.96C129.514 41.7467 129.261 41.4933 129.048 41.2C128.834 40.88 128.674 40.5467 128.568 40.2C128.461 39.8267 128.408 39.4267 128.408 39V38.96L128.448 38.92H132.088V42.56ZM131.928 42.56V38.92H135.568L135.608 38.96V39C135.608 39.4267 135.554 39.8267 135.448 40.2C135.341 40.5467 135.181 40.88 134.968 41.2C134.754 41.4933 134.488 41.7467 134.168 41.96C133.874 42.1733 133.541 42.3333 133.168 42.44C132.821 42.5467 132.434 42.6 132.008 42.6H131.968L131.928 42.56ZM131.928 35.44L131.968 35.4H132.008C132.434 35.4 132.821 35.4533 133.168 35.56C133.541 35.6667 133.874 35.8267 134.168 36.04C134.488 36.2533 134.754 36.52 134.968 36.84C135.181 37.1333 135.341 37.4667 135.448 37.84C135.554 38.1867 135.608 38.5733 135.608 39V39.04L135.568 39.08H131.928V35.44ZM132.088 35.44V39.08H128.448L128.408 39.04V39C128.408 38.5733 128.461 38.1867 128.568 37.84C128.674 37.4667 128.834 37.1333 129.048 36.84C129.261 36.52 129.514 36.2533 129.808 36.04C130.128 35.8267 130.461 35.6667 130.808 35.56C131.181 35.4533 131.581 35.4 132.008 35.4H132.048L132.088 35.44ZM136.088 62.56L136.048 62.6H136.008C135.581 62.6 135.181 62.5467 134.808 62.44C134.461 62.3333 134.128 62.1733 133.808 61.96C133.514 61.7467 133.261 61.48 133.048 61.16C132.834 60.8667 132.674 60.5467 132.568 60.2C132.461 59.8267 132.408 59.4267 132.408 59V58.96L132.448 58.92H136.088V62.56ZM135.928 62.56V58.92H139.568L139.608 58.96V59C139.608 59.4267 139.554 59.8267 139.448 60.2C139.341 60.5467 139.181 60.8667 138.968 61.16C138.754 61.48 138.488 61.7467 138.168 61.96C137.874 62.1733 137.541 62.3333 137.168 62.44C136.821 62.5467 136.434 62.6 136.008 62.6H135.968L135.928 62.56ZM135.928 55.44L135.968 55.4H136.008C136.434 55.4 136.821 55.4533 137.168 55.56C137.541 55.6667 137.874 55.8267 138.168 56.04C138.488 56.2533 138.754 56.52 138.968 56.84C139.181 57.1333 139.341 57.4667 139.448 57.84C139.554 58.1867 139.608 58.5733 139.608 59V59.04L139.568 59.08H135.928V55.44ZM136.088 55.44V59.08H132.448L132.408 59.04V59C132.408 58.5733 132.461 58.1867 132.568 57.84C132.674 57.4667 132.834 57.1333 133.048 56.84C133.261 56.52 133.514 56.2533 133.808 56.04C134.128 55.8267 134.461 55.6667 134.808 55.56C135.181 55.4533 135.581 55.4 136.008 55.4H136.048L136.088 55.44ZM136.088 46.56L136.048 46.6H136.008C135.581 46.6 135.181 46.5467 134.808 46.44C134.461 46.3333 134.128 46.1733 133.808 45.96C133.514 45.7467 133.261 45.4933 133.048 45.2C132.834 44.88 132.674 44.5467 132.568 44.2C132.461 43.8267 132.408 43.4267 132.408 43V42.96L132.448 42.92H136.088V46.56ZM135.928 46.56V42.92H139.568L139.608 42.96V43C139.608 43.4267 139.554 43.8267 139.448 44.2C139.341 44.5467 139.181 44.88 138.968 45.2C138.754 45.4933 138.488 45.7467 138.168 45.96C137.874 46.1733 137.541 46.3333 137.168 46.44C136.821 46.5467 136.434 46.6 136.008 46.6H135.968L135.928 46.56ZM135.928 39.44L135.968 39.4H136.008C136.434 39.4 136.821 39.4533 137.168 39.56C137.541 39.6667 137.874 39.8267 138.168 40.04C138.488 40.2533 138.754 40.52 138.968 40.84C139.181 41.1333 139.341 41.4667 139.448 41.84C139.554 42.1867 139.608 42.5733 139.608 43V43.04L139.568 43.08H135.928V39.44ZM136.088 39.44V43.08H132.448L132.408 43.04V43C132.408 42.5733 132.461 42.1867 132.568 41.84C132.674 41.4667 132.834 41.1333 133.048 40.84C133.261 40.52 133.514 40.2533 133.808 40.04C134.128 39.8267 134.461 39.6667 134.808 39.56C135.181 39.4533 135.581 39.4 136.008 39.4H136.048L136.088 39.44ZM140.088 62.56L140.048 62.6H140.008C139.581 62.6 139.181 62.5467 138.808 62.44C138.461 62.3333 138.128 62.1733 137.808 61.96C137.514 61.7467 137.261 61.48 137.048 61.16C136.834 60.8667 136.674 60.5467 136.568 60.2C136.461 59.8267 136.408 59.4267 136.408 59V58.96L136.448 58.92H140.088V62.56ZM139.928 62.56V58.92H143.568L143.608 58.96V59C143.608 59.4267 143.554 59.8267 143.448 60.2C143.341 60.5467 143.181 60.8667 142.968 61.16C142.754 61.48 142.488 61.7467 142.168 61.96C141.874 62.1733 141.541 62.3333 141.168 62.44C140.821 62.5467 140.434 62.6 140.008 62.6H139.968L139.928 62.56ZM139.928 55.44L139.968 55.4H140.008C140.434 55.4 140.821 55.4533 141.168 55.56C141.541 55.6667 141.874 55.8267 142.168 56.04C142.488 56.2533 142.754 56.52 142.968 56.84C143.181 57.1333 143.341 57.4667 143.448 57.84C143.554 58.1867 143.608 58.5733 143.608 59V59.04L143.568 59.08H139.928V55.44ZM140.088 55.44V59.08H136.448L136.408 59.04V59C136.408 58.5733 136.461 58.1867 136.568 57.84C136.674 57.4667 136.834 57.1333 137.048 56.84C137.261 56.52 137.514 56.2533 137.808 56.04C138.128 55.8267 138.461 55.6667 138.808 55.56C139.181 55.4533 139.581 55.4 140.008 55.4H140.048L140.088 55.44ZM140.088 46.56L140.048 46.6H140.008C139.581 46.6 139.181 46.5467 138.808 46.44C138.461 46.3333 138.128 46.1733 137.808 45.96C137.514 45.7467 137.261 45.4933 137.048 45.2C136.834 44.88 136.674 44.5467 136.568 44.2C136.461 43.8267 136.408 43.4267 136.408 43V42.96L136.448 42.92H140.088V46.56ZM139.928 46.56V42.92H143.568L143.608 42.96V43C143.608 43.4267 143.554 43.8267 143.448 44.2C143.341 44.5467 143.181 44.88 142.968 45.2C142.754 45.4933 142.488 45.7467 142.168 45.96C141.874 46.1733 141.541 46.3333 141.168 46.44C140.821 46.5467 140.434 46.6 140.008 46.6H139.968L139.928 46.56ZM139.928 39.44L139.968 39.4H140.008C140.434 39.4 140.821 39.4533 141.168 39.56C141.541 39.6667 141.874 39.8267 142.168 40.04C142.488 40.2533 142.754 40.52 142.968 40.84C143.181 41.1333 143.341 41.4667 143.448 41.84C143.554 42.1867 143.608 42.5733 143.608 43V43.04L143.568 43.08H139.928V39.44ZM140.088 39.44V43.08H136.448L136.408 43.04V43C136.408 42.5733 136.461 42.1867 136.568 41.84C136.674 41.4667 136.834 41.1333 137.048 40.84C137.261 40.52 137.514 40.2533 137.808 40.04C138.128 39.8267 138.461 39.6667 138.808 39.56C139.181 39.4533 139.581 39.4 140.008 39.4H140.048L140.088 39.44ZM144.088 62.56L144.048 62.6H144.008C143.581 62.6 143.181 62.5467 142.808 62.44C142.461 62.3333 142.128 62.1733 141.808 61.96C141.514 61.7467 141.261 61.48 141.048 61.16C140.834 60.8667 140.674 60.5467 140.568 60.2C140.461 59.8267 140.408 59.4267 140.408 59V58.96L140.448 58.92H144.088V62.56ZM143.928 62.56V58.92H147.568L147.608 58.96V59C147.608 59.4267 147.554 59.8267 147.448 60.2C147.341 60.5467 147.181 60.8667 146.968 61.16C146.754 61.48 146.488 61.7467 146.168 61.96C145.874 62.1733 145.541 62.3333 145.168 62.44C144.821 62.5467 144.434 62.6 144.008 62.6H143.968L143.928 62.56ZM143.928 55.44L143.968 55.4H144.008C144.434 55.4 144.821 55.4533 145.168 55.56C145.541 55.6667 145.874 55.8267 146.168 56.04C146.488 56.2533 146.754 56.52 146.968 56.84C147.181 57.1333 147.341 57.4667 147.448 57.84C147.554 58.1867 147.608 58.5733 147.608 59V59.04L147.568 59.08H143.928V55.44ZM144.088 55.44V59.08H140.448L140.408 59.04V59C140.408 58.5733 140.461 58.1867 140.568 57.84C140.674 57.4667 140.834 57.1333 141.048 56.84C141.261 56.52 141.514 56.2533 141.808 56.04C142.128 55.8267 142.461 55.6667 142.808 55.56C143.181 55.4533 143.581 55.4 144.008 55.4H144.048L144.088 55.44ZM144.088 46.56L144.048 46.6H144.008C143.581 46.6 143.181 46.5467 142.808 46.44C142.461 46.3333 142.128 46.1733 141.808 45.96C141.514 45.7467 141.261 45.4933 141.048 45.2C140.834 44.88 140.674 44.5467 140.568 44.2C140.461 43.8267 140.408 43.4267 140.408 43V42.96L140.448 42.92H144.088V46.56ZM143.928 46.56V42.92H147.568L147.608 42.96V43C147.608 43.4267 147.554 43.8267 147.448 44.2C147.341 44.5467 147.181 44.88 146.968 45.2C146.754 45.4933 146.488 45.7467 146.168 45.96C145.874 46.1733 145.541 46.3333 145.168 46.44C144.821 46.5467 144.434 46.6 144.008 46.6H143.968L143.928 46.56ZM143.928 39.44L143.968 39.4H144.008C144.434 39.4 144.821 39.4533 145.168 39.56C145.541 39.6667 145.874 39.8267 146.168 40.04C146.488 40.2533 146.754 40.52 146.968 40.84C147.181 41.1333 147.341 41.4667 147.448 41.84C147.554 42.1867 147.608 42.5733 147.608 43V43.04L147.568 43.08H143.928V39.44ZM144.088 39.44V43.08H140.448L140.408 43.04V43C140.408 42.5733 140.461 42.1867 140.568 41.84C140.674 41.4667 140.834 41.1333 141.048 40.84C141.261 40.52 141.514 40.2533 141.808 40.04C142.128 39.8267 142.461 39.6667 142.808 39.56C143.181 39.4533 143.581 39.4 144.008 39.4H144.048L144.088 39.44ZM154.072 58.56L154.032 58.6H153.992C153.566 58.6 153.166 58.5467 152.792 58.44C152.446 58.3333 152.126 58.1733 151.832 57.96C151.512 57.7467 151.246 57.4933 151.032 57.2C150.819 56.88 150.659 56.5467 150.552 56.2C150.446 55.8267 150.392 55.4267 150.392 55V54.96L150.432 54.92H154.072V58.56ZM153.912 58.56V54.92H157.552L157.592 54.96V55C157.592 55.4267 157.539 55.8267 157.432 56.2C157.326 56.5467 157.166 56.88 156.952 57.2C156.739 57.4933 156.472 57.7467 156.152 57.96C155.859 58.1733 155.526 58.3333 155.152 58.44C154.806 58.5467 154.419 58.6 153.992 58.6H153.952L153.912 58.56ZM153.912 51.44L153.952 51.4H153.992C154.419 51.4 154.806 51.4533 155.152 51.56C155.526 51.6667 155.859 51.8267 156.152 52.04C156.472 52.2533 156.739 52.52 156.952 52.84C157.166 53.1333 157.326 53.4667 157.432 53.84C157.539 54.1867 157.592 54.5733 157.592 55V55.04L157.552 55.08H153.912V51.44ZM154.072 51.44V55.08H150.432L150.392 55.04V55C150.392 54.5733 150.446 54.1867 150.552 53.84C150.659 53.4667 150.819 53.1333 151.032 52.84C151.246 52.52 151.512 52.2533 151.832 52.04C152.126 51.8267 152.446 51.6667 152.792 51.56C153.166 51.4533 153.566 51.4 153.992 51.4H154.032L154.072 51.44ZM158.072 62.56L158.032 62.6H157.992C157.566 62.6 157.166 62.5467 156.792 62.44C156.446 62.3333 156.112 62.1733 155.792 61.96C155.499 61.7467 155.246 61.48 155.032 61.16C154.819 60.8667 154.659 60.5467 154.552 60.2C154.446 59.8267 154.392 59.4267 154.392 59V58.96L154.432 58.92H158.072V62.56ZM157.912 62.56V58.92H161.552L161.592 58.96V59C161.592 59.4267 161.539 59.8267 161.432 60.2C161.326 60.5467 161.166 60.8667 160.952 61.16C160.739 61.48 160.472 61.7467 160.152 61.96C159.859 62.1733 159.526 62.3333 159.152 62.44C158.806 62.5467 158.419 62.6 157.992 62.6H157.952L157.912 62.56ZM157.912 55.44L157.952 55.4H157.992C158.419 55.4 158.806 55.4533 159.152 55.56C159.526 55.6667 159.859 55.8267 160.152 56.04C160.472 56.2533 160.739 56.52 160.952 56.84C161.166 57.1333 161.326 57.4667 161.432 57.84C161.539 58.1867 161.592 58.5733 161.592 59V59.04L161.552 59.08H157.912V55.44ZM158.072 55.44V59.08H154.432L154.392 59.04V59C154.392 58.5733 154.446 58.1867 154.552 57.84C154.659 57.4667 154.819 57.1333 155.032 56.84C155.246 56.52 155.499 56.2533 155.792 56.04C156.112 55.8267 156.446 55.6667 156.792 55.56C157.166 55.4533 157.566 55.4 157.992 55.4H158.032L158.072 55.44ZM158.072 54.56L158.032 54.6H157.992C157.566 54.6 157.166 54.5467 156.792 54.44C156.446 54.3333 156.112 54.1733 155.792 53.96C155.499 53.7467 155.246 53.4933 155.032 53.2C154.819 52.88 154.659 52.5467 154.552 52.2C154.446 51.8267 154.392 51.4267 154.392 51V50.96L154.432 50.92H158.072V54.56ZM157.912 54.56V50.92H161.552L161.592 50.96V51C161.592 51.4267 161.539 51.8267 161.432 52.2C161.326 52.5467 161.166 52.88 160.952 53.2C160.739 53.4933 160.472 53.7467 160.152 53.96C159.859 54.1733 159.526 54.3333 159.152 54.44C158.806 54.5467 158.419 54.6 157.992 54.6H157.952L157.912 54.56ZM157.912 47.44L157.952 47.4H157.992C158.419 47.4 158.806 47.4533 159.152 47.56C159.526 47.6667 159.859 47.8267 160.152 48.04C160.472 48.2533 160.739 48.52 160.952 48.84C161.166 49.1333 161.326 49.4667 161.432 49.84C161.539 50.1867 161.592 50.5733 161.592 51V51.04L161.552 51.08H157.912V47.44ZM158.072 47.44V51.08H154.432L154.392 51.04V51C154.392 50.5733 154.446 50.1867 154.552 49.84C154.659 49.4667 154.819 49.1333 155.032 48.84C155.246 48.52 155.499 48.2533 155.792 48.04C156.112 47.8267 156.446 47.6667 156.792 47.56C157.166 47.4533 157.566 47.4 157.992 47.4H158.032L158.072 47.44ZM158.072 46.56L158.032 46.6H157.992C157.566 46.6 157.166 46.5467 156.792 46.44C156.446 46.3333 156.112 46.1733 155.792 45.96C155.499 45.7467 155.246 45.4933 155.032 45.2C154.819 44.88 154.659 44.5467 154.552 44.2C154.446 43.8267 154.392 43.4267 154.392 43V42.96L154.432 42.92H158.072V46.56ZM157.912 46.56V42.92H161.552L161.592 42.96V43C161.592 43.4267 161.539 43.8267 161.432 44.2C161.326 44.5467 161.166 44.88 160.952 45.2C160.739 45.4933 160.472 45.7467 160.152 45.96C159.859 46.1733 159.526 46.3333 159.152 46.44C158.806 46.5467 158.419 46.6 157.992 46.6H157.952L157.912 46.56ZM157.912 39.44L157.952 39.4H157.992C158.419 39.4 158.806 39.4533 159.152 39.56C159.526 39.6667 159.859 39.8267 160.152 40.04C160.472 40.2533 160.739 40.52 160.952 40.84C161.166 41.1333 161.326 41.4667 161.432 41.84C161.539 42.1867 161.592 42.5733 161.592 43V43.04L161.552 43.08H157.912V39.44ZM158.072 39.44V43.08H154.432L154.392 43.04V43C154.392 42.5733 154.446 42.1867 154.552 41.84C154.659 41.4667 154.819 41.1333 155.032 40.84C155.246 40.52 155.499 40.2533 155.792 40.04C156.112 39.8267 156.446 39.6667 156.792 39.56C157.166 39.4533 157.566 39.4 157.992 39.4H158.032L158.072 39.44ZM162.072 62.56L162.032 62.6H161.992C161.566 62.6 161.166 62.5467 160.792 62.44C160.446 62.3333 160.112 62.1733 159.792 61.96C159.499 61.7467 159.246 61.48 159.032 61.16C158.819 60.8667 158.659 60.5467 158.552 60.2C158.446 59.8267 158.392 59.4267 158.392 59V58.96L158.432 58.92H162.072V62.56ZM161.912 62.56V58.92H165.552L165.592 58.96V59C165.592 59.4267 165.539 59.8267 165.432 60.2C165.326 60.5467 165.166 60.8667 164.952 61.16C164.739 61.48 164.472 61.7467 164.152 61.96C163.859 62.1733 163.526 62.3333 163.152 62.44C162.806 62.5467 162.419 62.6 161.992 62.6H161.952L161.912 62.56ZM161.912 55.44L161.952 55.4H161.992C162.419 55.4 162.806 55.4533 163.152 55.56C163.526 55.6667 163.859 55.8267 164.152 56.04C164.472 56.2533 164.739 56.52 164.952 56.84C165.166 57.1333 165.326 57.4667 165.432 57.84C165.539 58.1867 165.592 58.5733 165.592 59V59.04L165.552 59.08H161.912V55.44ZM162.072 55.44V59.08H158.432L158.392 59.04V59C158.392 58.5733 158.446 58.1867 158.552 57.84C158.659 57.4667 158.819 57.1333 159.032 56.84C159.246 56.52 159.499 56.2533 159.792 56.04C160.112 55.8267 160.446 55.6667 160.792 55.56C161.166 55.4533 161.566 55.4 161.992 55.4H162.032L162.072 55.44ZM162.072 54.56L162.032 54.6H161.992C161.566 54.6 161.166 54.5467 160.792 54.44C160.446 54.3333 160.112 54.1733 159.792 53.96C159.499 53.7467 159.246 53.4933 159.032 53.2C158.819 52.88 158.659 52.5467 158.552 52.2C158.446 51.8267 158.392 51.4267 158.392 51V50.96L158.432 50.92H162.072V54.56ZM161.912 54.56V50.92H165.552L165.592 50.96V51C165.592 51.4267 165.539 51.8267 165.432 52.2C165.326 52.5467 165.166 52.88 164.952 53.2C164.739 53.4933 164.472 53.7467 164.152 53.96C163.859 54.1733 163.526 54.3333 163.152 54.44C162.806 54.5467 162.419 54.6 161.992 54.6H161.952L161.912 54.56ZM161.912 47.44L161.952 47.4H161.992C162.419 47.4 162.806 47.4533 163.152 47.56C163.526 47.6667 163.859 47.8267 164.152 48.04C164.472 48.2533 164.739 48.52 164.952 48.84C165.166 49.1333 165.326 49.4667 165.432 49.84C165.539 50.1867 165.592 50.5733 165.592 51V51.04L165.552 51.08H161.912V47.44ZM162.072 47.44V51.08H158.432L158.392 51.04V51C158.392 50.5733 158.446 50.1867 158.552 49.84C158.659 49.4667 158.819 49.1333 159.032 48.84C159.246 48.52 159.499 48.2533 159.792 48.04C160.112 47.8267 160.446 47.6667 160.792 47.56C161.166 47.4533 161.566 47.4 161.992 47.4H162.032L162.072 47.44ZM162.072 46.56L162.032 46.6H161.992C161.566 46.6 161.166 46.5467 160.792 46.44C160.446 46.3333 160.112 46.1733 159.792 45.96C159.499 45.7467 159.246 45.4933 159.032 45.2C158.819 44.88 158.659 44.5467 158.552 44.2C158.446 43.8267 158.392 43.4267 158.392 43V42.96L158.432 42.92H162.072V46.56ZM161.912 46.56V42.92H165.552L165.592 42.96V43C165.592 43.4267 165.539 43.8267 165.432 44.2C165.326 44.5467 165.166 44.88 164.952 45.2C164.739 45.4933 164.472 45.7467 164.152 45.96C163.859 46.1733 163.526 46.3333 163.152 46.44C162.806 46.5467 162.419 46.6 161.992 46.6H161.952L161.912 46.56ZM161.912 39.44L161.952 39.4H161.992C162.419 39.4 162.806 39.4533 163.152 39.56C163.526 39.6667 163.859 39.8267 164.152 40.04C164.472 40.2533 164.739 40.52 164.952 40.84C165.166 41.1333 165.326 41.4667 165.432 41.84C165.539 42.1867 165.592 42.5733 165.592 43V43.04L165.552 43.08H161.912V39.44ZM162.072 39.44V43.08H158.432L158.392 43.04V43C158.392 42.5733 158.446 42.1867 158.552 41.84C158.659 41.4667 158.819 41.1333 159.032 40.84C159.246 40.52 159.499 40.2533 159.792 40.04C160.112 39.8267 160.446 39.6667 160.792 39.56C161.166 39.4533 161.566 39.4 161.992 39.4H162.032L162.072 39.44ZM166.072 54.56L166.032 54.6H165.992C165.566 54.6 165.166 54.5467 164.792 54.44C164.446 54.3333 164.112 54.1733 163.792 53.96C163.499 53.7467 163.246 53.4933 163.032 53.2C162.819 52.88 162.659 52.5467 162.552 52.2C162.446 51.8267 162.392 51.4267 162.392 51V50.96L162.432 50.92H166.072V54.56ZM165.912 54.56V50.92H169.552L169.592 50.96V51C169.592 51.4267 169.539 51.8267 169.432 52.2C169.326 52.5467 169.166 52.88 168.952 53.2C168.739 53.4933 168.472 53.7467 168.152 53.96C167.859 54.1733 167.526 54.3333 167.152 54.44C166.806 54.5467 166.419 54.6 165.992 54.6H165.952L165.912 54.56ZM165.912 47.44L165.952 47.4H165.992C166.419 47.4 166.806 47.4533 167.152 47.56C167.526 47.6667 167.859 47.8267 168.152 48.04C168.472 48.2533 168.739 48.52 168.952 48.84C169.166 49.1333 169.326 49.4667 169.432 49.84C169.539 50.1867 169.592 50.5733 169.592 51V51.04L169.552 51.08H165.912V47.44ZM166.072 47.44V51.08H162.432L162.392 51.04V51C162.392 50.5733 162.446 50.1867 162.552 49.84C162.659 49.4667 162.819 49.1333 163.032 48.84C163.246 48.52 163.499 48.2533 163.792 48.04C164.112 47.8267 164.446 47.6667 164.792 47.56C165.166 47.4533 165.566 47.4 165.992 47.4H166.032L166.072 47.44ZM166.072 46.56L166.032 46.6H165.992C165.566 46.6 165.166 46.5467 164.792 46.44C164.446 46.3333 164.112 46.1733 163.792 45.96C163.499 45.7467 163.246 45.4933 163.032 45.2C162.819 44.88 162.659 44.5467 162.552 44.2C162.446 43.8267 162.392 43.4267 162.392 43V42.96L162.432 42.92H166.072V46.56ZM165.912 46.56V42.92H169.552L169.592 42.96V43C169.592 43.4267 169.539 43.8267 169.432 44.2C169.326 44.5467 169.166 44.88 168.952 45.2C168.739 45.4933 168.472 45.7467 168.152 45.96C167.859 46.1733 167.526 46.3333 167.152 46.44C166.806 46.5467 166.419 46.6 165.992 46.6H165.952L165.912 46.56ZM165.912 39.44L165.952 39.4H165.992C166.419 39.4 166.806 39.4533 167.152 39.56C167.526 39.6667 167.859 39.8267 168.152 40.04C168.472 40.2533 168.739 40.52 168.952 40.84C169.166 41.1333 169.326 41.4667 169.432 41.84C169.539 42.1867 169.592 42.5733 169.592 43V43.04L169.552 43.08H165.912V39.44ZM166.072 39.44V43.08H162.432L162.392 43.04V43C162.392 42.5733 162.446 42.1867 162.552 41.84C162.659 41.4667 162.819 41.1333 163.032 40.84C163.246 40.52 163.499 40.2533 163.792 40.04C164.112 39.8267 164.446 39.6667 164.792 39.56C165.166 39.4533 165.566 39.4 165.992 39.4H166.032L166.072 39.44ZM170.072 62.56L170.032 62.6H169.992C169.566 62.6 169.166 62.5467 168.792 62.44C168.446 62.3333 168.112 62.1733 167.792 61.96C167.499 61.7467 167.246 61.48 167.032 61.16C166.819 60.8667 166.659 60.5467 166.552 60.2C166.446 59.8267 166.392 59.4267 166.392 59V58.96L166.432 58.92H170.072V62.56ZM169.912 62.56V58.92H173.552L173.592 58.96V59C173.592 59.4267 173.539 59.8267 173.432 60.2C173.326 60.5467 173.166 60.8667 172.952 61.16C172.739 61.48 172.472 61.7467 172.152 61.96C171.859 62.1733 171.526 62.3333 171.152 62.44C170.806 62.5467 170.419 62.6 169.992 62.6H169.952L169.912 62.56ZM169.912 55.44L169.952 55.4H169.992C170.419 55.4 170.806 55.4533 171.152 55.56C171.526 55.6667 171.859 55.8267 172.152 56.04C172.472 56.2533 172.739 56.52 172.952 56.84C173.166 57.1333 173.326 57.4667 173.432 57.84C173.539 58.1867 173.592 58.5733 173.592 59V59.04L173.552 59.08H169.912V55.44ZM170.072 55.44V59.08H166.432L166.392 59.04V59C166.392 58.5733 166.446 58.1867 166.552 57.84C166.659 57.4667 166.819 57.1333 167.032 56.84C167.246 56.52 167.499 56.2533 167.792 56.04C168.112 55.8267 168.446 55.6667 168.792 55.56C169.166 55.4533 169.566 55.4 169.992 55.4H170.032L170.072 55.44ZM170.072 58.56L170.032 58.6H169.992C169.566 58.6 169.166 58.5467 168.792 58.44C168.446 58.3333 168.112 58.1733 167.792 57.96C167.499 57.7467 167.246 57.4933 167.032 57.2C166.819 56.88 166.659 56.5467 166.552 56.2C166.446 55.8267 166.392 55.4267 166.392 55V54.96L166.432 54.92H170.072V58.56ZM169.912 58.56V54.92H173.552L173.592 54.96V55C173.592 55.4267 173.539 55.8267 173.432 56.2C173.326 56.5467 173.166 56.88 172.952 57.2C172.739 57.4933 172.472 57.7467 172.152 57.96C171.859 58.1733 171.526 58.3333 171.152 58.44C170.806 58.5467 170.419 58.6 169.992 58.6H169.952L169.912 58.56ZM169.912 51.44L169.952 51.4H169.992C170.419 51.4 170.806 51.4533 171.152 51.56C171.526 51.6667 171.859 51.8267 172.152 52.04C172.472 52.2533 172.739 52.52 172.952 52.84C173.166 53.1333 173.326 53.4667 173.432 53.84C173.539 54.1867 173.592 54.5733 173.592 55V55.04L173.552 55.08H169.912V51.44ZM170.072 51.44V55.08H166.432L166.392 55.04V55C166.392 54.5733 166.446 54.1867 166.552 53.84C166.659 53.4667 166.819 53.1333 167.032 52.84C167.246 52.52 167.499 52.2533 167.792 52.04C168.112 51.8267 168.446 51.6667 168.792 51.56C169.166 51.4533 169.566 51.4 169.992 51.4H170.032L170.072 51.44ZM170.072 54.56L170.032 54.6H169.992C169.566 54.6 169.166 54.5467 168.792 54.44C168.446 54.3333 168.112 54.1733 167.792 53.96C167.499 53.7467 167.246 53.4933 167.032 53.2C166.819 52.88 166.659 52.5467 166.552 52.2C166.446 51.8267 166.392 51.4267 166.392 51V50.96L166.432 50.92H170.072V54.56ZM169.912 54.56V50.92H173.552L173.592 50.96V51C173.592 51.4267 173.539 51.8267 173.432 52.2C173.326 52.5467 173.166 52.88 172.952 53.2C172.739 53.4933 172.472 53.7467 172.152 53.96C171.859 54.1733 171.526 54.3333 171.152 54.44C170.806 54.5467 170.419 54.6 169.992 54.6H169.952L169.912 54.56ZM169.912 47.44L169.952 47.4H169.992C170.419 47.4 170.806 47.4533 171.152 47.56C171.526 47.6667 171.859 47.8267 172.152 48.04C172.472 48.2533 172.739 48.52 172.952 48.84C173.166 49.1333 173.326 49.4667 173.432 49.84C173.539 50.1867 173.592 50.5733 173.592 51V51.04L173.552 51.08H169.912V47.44ZM170.072 47.44V51.08H166.432L166.392 51.04V51C166.392 50.5733 166.446 50.1867 166.552 49.84C166.659 49.4667 166.819 49.1333 167.032 48.84C167.246 48.52 167.499 48.2533 167.792 48.04C168.112 47.8267 168.446 47.6667 168.792 47.56C169.166 47.4533 169.566 47.4 169.992 47.4H170.032L170.072 47.44ZM170.072 50.56L170.032 50.6H169.992C169.566 50.6 169.166 50.5467 168.792 50.44C168.446 50.3333 168.112 50.1733 167.792 49.96C167.499 49.7467 167.246 49.4933 167.032 49.2C166.819 48.88 166.659 48.5467 166.552 48.2C166.446 47.8267 166.392 47.4267 166.392 47V46.96L166.432 46.92H170.072V50.56ZM169.912 50.56V46.92H173.552L173.592 46.96V47C173.592 47.4267 173.539 47.8267 173.432 48.2C173.326 48.5467 173.166 48.88 172.952 49.2C172.739 49.4933 172.472 49.7467 172.152 49.96C171.859 50.1733 171.526 50.3333 171.152 50.44C170.806 50.5467 170.419 50.6 169.992 50.6H169.952L169.912 50.56ZM169.912 43.44L169.952 43.4H169.992C170.419 43.4 170.806 43.4533 171.152 43.56C171.526 43.6667 171.859 43.8267 172.152 44.04C172.472 44.2533 172.739 44.52 172.952 44.84C173.166 45.1333 173.326 45.4667 173.432 45.84C173.539 46.1867 173.592 46.5733 173.592 47V47.04L173.552 47.08H169.912V43.44ZM170.072 43.44V47.08H166.432L166.392 47.04V47C166.392 46.5733 166.446 46.1867 166.552 45.84C166.659 45.4667 166.819 45.1333 167.032 44.84C167.246 44.52 167.499 44.2533 167.792 44.04C168.112 43.8267 168.446 43.6667 168.792 43.56C169.166 43.4533 169.566 43.4 169.992 43.4H170.032L170.072 43.44ZM180.057 58.56L180.017 58.6H179.977C179.55 58.6 179.15 58.5467 178.777 58.44C178.43 58.3333 178.11 58.1733 177.817 57.96C177.497 57.7467 177.23 57.4933 177.017 57.2C176.803 56.88 176.643 56.5467 176.537 56.2C176.43 55.8267 176.377 55.4267 176.377 55V54.96L176.417 54.92H180.057V58.56ZM179.897 58.56V54.92H183.537L183.577 54.96V55C183.577 55.4267 183.523 55.8267 183.417 56.2C183.31 56.5467 183.15 56.88 182.937 57.2C182.723 57.4933 182.457 57.7467 182.137 57.96C181.843 58.1733 181.51 58.3333 181.137 58.44C180.79 58.5467 180.403 58.6 179.977 58.6H179.937L179.897 58.56ZM179.897 51.44L179.937 51.4H179.977C180.403 51.4 180.79 51.4533 181.137 51.56C181.51 51.6667 181.843 51.8267 182.137 52.04C182.457 52.2533 182.723 52.52 182.937 52.84C183.15 53.1333 183.31 53.4667 183.417 53.84C183.523 54.1867 183.577 54.5733 183.577 55V55.04L183.537 55.08H179.897V51.44ZM180.057 51.44V55.08H176.417L176.377 55.04V55C176.377 54.5733 176.43 54.1867 176.537 53.84C176.643 53.4667 176.803 53.1333 177.017 52.84C177.23 52.52 177.497 52.2533 177.817 52.04C178.11 51.8267 178.43 51.6667 178.777 51.56C179.15 51.4533 179.55 51.4 179.977 51.4H180.017L180.057 51.44ZM180.057 54.56L180.017 54.6H179.977C179.55 54.6 179.15 54.5467 178.777 54.44C178.43 54.3333 178.11 54.1733 177.817 53.96C177.497 53.7467 177.23 53.4933 177.017 53.2C176.803 52.88 176.643 52.5467 176.537 52.2C176.43 51.8267 176.377 51.4267 176.377 51V50.96L176.417 50.92H180.057V54.56ZM179.897 54.56V50.92H183.537L183.577 50.96V51C183.577 51.4267 183.523 51.8267 183.417 52.2C183.31 52.5467 183.15 52.88 182.937 53.2C182.723 53.4933 182.457 53.7467 182.137 53.96C181.843 54.1733 181.51 54.3333 181.137 54.44C180.79 54.5467 180.403 54.6 179.977 54.6H179.937L179.897 54.56ZM179.897 47.44L179.937 47.4H179.977C180.403 47.4 180.79 47.4533 181.137 47.56C181.51 47.6667 181.843 47.8267 182.137 48.04C182.457 48.2533 182.723 48.52 182.937 48.84C183.15 49.1333 183.31 49.4667 183.417 49.84C183.523 50.1867 183.577 50.5733 183.577 51V51.04L183.537 51.08H179.897V47.44ZM180.057 47.44V51.08H176.417L176.377 51.04V51C176.377 50.5733 176.43 50.1867 176.537 49.84C176.643 49.4667 176.803 49.1333 177.017 48.84C177.23 48.52 177.497 48.2533 177.817 48.04C178.11 47.8267 178.43 47.6667 178.777 47.56C179.15 47.4533 179.55 47.4 179.977 47.4H180.017L180.057 47.44ZM180.057 50.56L180.017 50.6H179.977C179.55 50.6 179.15 50.5467 178.777 50.44C178.43 50.3333 178.11 50.1733 177.817 49.96C177.497 49.7467 177.23 49.4933 177.017 49.2C176.803 48.88 176.643 48.5467 176.537 48.2C176.43 47.8267 176.377 47.4267 176.377 47V46.96L176.417 46.92H180.057V50.56ZM179.897 50.56V46.92H183.537L183.577 46.96V47C183.577 47.4267 183.523 47.8267 183.417 48.2C183.31 48.5467 183.15 48.88 182.937 49.2C182.723 49.4933 182.457 49.7467 182.137 49.96C181.843 50.1733 181.51 50.3333 181.137 50.44C180.79 50.5467 180.403 50.6 179.977 50.6H179.937L179.897 50.56ZM179.897 43.44L179.937 43.4H179.977C180.403 43.4 180.79 43.4533 181.137 43.56C181.51 43.6667 181.843 43.8267 182.137 44.04C182.457 44.2533 182.723 44.52 182.937 44.84C183.15 45.1333 183.31 45.4667 183.417 45.84C183.523 46.1867 183.577 46.5733 183.577 47V47.04L183.537 47.08H179.897V43.44ZM180.057 43.44V47.08H176.417L176.377 47.04V47C176.377 46.5733 176.43 46.1867 176.537 45.84C176.643 45.4667 176.803 45.1333 177.017 44.84C177.23 44.52 177.497 44.2533 177.817 44.04C178.11 43.8267 178.43 43.6667 178.777 43.56C179.15 43.4533 179.55 43.4 179.977 43.4H180.017L180.057 43.44ZM184.057 62.56L184.017 62.6H183.977C183.55 62.6 183.15 62.5467 182.777 62.44C182.43 62.3333 182.097 62.1733 181.777 61.96C181.483 61.7467 181.23 61.48 181.017 61.16C180.803 60.8667 180.643 60.5467 180.537 60.2C180.43 59.8267 180.377 59.4267 180.377 59V58.96L180.417 58.92H184.057V62.56ZM183.897 62.56V58.92H187.537L187.577 58.96V59C187.577 59.4267 187.523 59.8267 187.417 60.2C187.31 60.5467 187.15 60.8667 186.937 61.16C186.723 61.48 186.457 61.7467 186.137 61.96C185.843 62.1733 185.51 62.3333 185.137 62.44C184.79 62.5467 184.403 62.6 183.977 62.6H183.937L183.897 62.56ZM183.897 55.44L183.937 55.4H183.977C184.403 55.4 184.79 55.4533 185.137 55.56C185.51 55.6667 185.843 55.8267 186.137 56.04C186.457 56.2533 186.723 56.52 186.937 56.84C187.15 57.1333 187.31 57.4667 187.417 57.84C187.523 58.1867 187.577 58.5733 187.577 59V59.04L187.537 59.08H183.897V55.44ZM184.057 55.44V59.08H180.417L180.377 59.04V59C180.377 58.5733 180.43 58.1867 180.537 57.84C180.643 57.4667 180.803 57.1333 181.017 56.84C181.23 56.52 181.483 56.2533 181.777 56.04C182.097 55.8267 182.43 55.6667 182.777 55.56C183.15 55.4533 183.55 55.4 183.977 55.4H184.017L184.057 55.44ZM184.057 46.56L184.017 46.6H183.977C183.55 46.6 183.15 46.5467 182.777 46.44C182.43 46.3333 182.097 46.1733 181.777 45.96C181.483 45.7467 181.23 45.4933 181.017 45.2C180.803 44.88 180.643 44.5467 180.537 44.2C180.43 43.8267 180.377 43.4267 180.377 43V42.96L180.417 42.92H184.057V46.56ZM183.897 46.56V42.92H187.537L187.577 42.96V43C187.577 43.4267 187.523 43.8267 187.417 44.2C187.31 44.5467 187.15 44.88 186.937 45.2C186.723 45.4933 186.457 45.7467 186.137 45.96C185.843 46.1733 185.51 46.3333 185.137 46.44C184.79 46.5467 184.403 46.6 183.977 46.6H183.937L183.897 46.56ZM183.897 39.44L183.937 39.4H183.977C184.403 39.4 184.79 39.4533 185.137 39.56C185.51 39.6667 185.843 39.8267 186.137 40.04C186.457 40.2533 186.723 40.52 186.937 40.84C187.15 41.1333 187.31 41.4667 187.417 41.84C187.523 42.1867 187.577 42.5733 187.577 43V43.04L187.537 43.08H183.897V39.44ZM184.057 39.44V43.08H180.417L180.377 43.04V43C180.377 42.5733 180.43 42.1867 180.537 41.84C180.643 41.4667 180.803 41.1333 181.017 40.84C181.23 40.52 181.483 40.2533 181.777 40.04C182.097 39.8267 182.43 39.6667 182.777 39.56C183.15 39.4533 183.55 39.4 183.977 39.4H184.017L184.057 39.44ZM188.057 62.56L188.017 62.6H187.977C187.55 62.6 187.15 62.5467 186.777 62.44C186.43 62.3333 186.097 62.1733 185.777 61.96C185.483 61.7467 185.23 61.48 185.017 61.16C184.803 60.8667 184.643 60.5467 184.537 60.2C184.43 59.8267 184.377 59.4267 184.377 59V58.96L184.417 58.92H188.057V62.56ZM187.897 62.56V58.92H191.537L191.577 58.96V59C191.577 59.4267 191.523 59.8267 191.417 60.2C191.31 60.5467 191.15 60.8667 190.937 61.16C190.723 61.48 190.457 61.7467 190.137 61.96C189.843 62.1733 189.51 62.3333 189.137 62.44C188.79 62.5467 188.403 62.6 187.977 62.6H187.937L187.897 62.56ZM187.897 55.44L187.937 55.4H187.977C188.403 55.4 188.79 55.4533 189.137 55.56C189.51 55.6667 189.843 55.8267 190.137 56.04C190.457 56.2533 190.723 56.52 190.937 56.84C191.15 57.1333 191.31 57.4667 191.417 57.84C191.523 58.1867 191.577 58.5733 191.577 59V59.04L191.537 59.08H187.897V55.44ZM188.057 55.44V59.08H184.417L184.377 59.04V59C184.377 58.5733 184.43 58.1867 184.537 57.84C184.643 57.4667 184.803 57.1333 185.017 56.84C185.23 56.52 185.483 56.2533 185.777 56.04C186.097 55.8267 186.43 55.6667 186.777 55.56C187.15 55.4533 187.55 55.4 187.977 55.4H188.017L188.057 55.44ZM188.057 46.56L188.017 46.6H187.977C187.55 46.6 187.15 46.5467 186.777 46.44C186.43 46.3333 186.097 46.1733 185.777 45.96C185.483 45.7467 185.23 45.4933 185.017 45.2C184.803 44.88 184.643 44.5467 184.537 44.2C184.43 43.8267 184.377 43.4267 184.377 43V42.96L184.417 42.92H188.057V46.56ZM187.897 46.56V42.92H191.537L191.577 42.96V43C191.577 43.4267 191.523 43.8267 191.417 44.2C191.31 44.5467 191.15 44.88 190.937 45.2C190.723 45.4933 190.457 45.7467 190.137 45.96C189.843 46.1733 189.51 46.3333 189.137 46.44C188.79 46.5467 188.403 46.6 187.977 46.6H187.937L187.897 46.56ZM187.897 39.44L187.937 39.4H187.977C188.403 39.4 188.79 39.4533 189.137 39.56C189.51 39.6667 189.843 39.8267 190.137 40.04C190.457 40.2533 190.723 40.52 190.937 40.84C191.15 41.1333 191.31 41.4667 191.417 41.84C191.523 42.1867 191.577 42.5733 191.577 43V43.04L191.537 43.08H187.897V39.44ZM188.057 39.44V43.08H184.417L184.377 43.04V43C184.377 42.5733 184.43 42.1867 184.537 41.84C184.643 41.4667 184.803 41.1333 185.017 40.84C185.23 40.52 185.483 40.2533 185.777 40.04C186.097 39.8267 186.43 39.6667 186.777 39.56C187.15 39.4533 187.55 39.4 187.977 39.4H188.017L188.057 39.44ZM192.057 62.56L192.017 62.6H191.977C191.55 62.6 191.15 62.5467 190.777 62.44C190.43 62.3333 190.097 62.1733 189.777 61.96C189.483 61.7467 189.23 61.48 189.017 61.16C188.803 60.8667 188.643 60.5467 188.537 60.2C188.43 59.8267 188.377 59.4267 188.377 59V58.96L188.417 58.92H192.057V62.56ZM191.897 62.56V58.92H195.537L195.577 58.96V59C195.577 59.4267 195.523 59.8267 195.417 60.2C195.31 60.5467 195.15 60.8667 194.937 61.16C194.723 61.48 194.457 61.7467 194.137 61.96C193.843 62.1733 193.51 62.3333 193.137 62.44C192.79 62.5467 192.403 62.6 191.977 62.6H191.937L191.897 62.56ZM191.897 55.44L191.937 55.4H191.977C192.403 55.4 192.79 55.4533 193.137 55.56C193.51 55.6667 193.843 55.8267 194.137 56.04C194.457 56.2533 194.723 56.52 194.937 56.84C195.15 57.1333 195.31 57.4667 195.417 57.84C195.523 58.1867 195.577 58.5733 195.577 59V59.04L195.537 59.08H191.897V55.44ZM192.057 55.44V59.08H188.417L188.377 59.04V59C188.377 58.5733 188.43 58.1867 188.537 57.84C188.643 57.4667 188.803 57.1333 189.017 56.84C189.23 56.52 189.483 56.2533 189.777 56.04C190.097 55.8267 190.43 55.6667 190.777 55.56C191.15 55.4533 191.55 55.4 191.977 55.4H192.017L192.057 55.44ZM192.057 46.56L192.017 46.6H191.977C191.55 46.6 191.15 46.5467 190.777 46.44C190.43 46.3333 190.097 46.1733 189.777 45.96C189.483 45.7467 189.23 45.4933 189.017 45.2C188.803 44.88 188.643 44.5467 188.537 44.2C188.43 43.8267 188.377 43.4267 188.377 43V42.96L188.417 42.92H192.057V46.56ZM191.897 46.56V42.92H195.537L195.577 42.96V43C195.577 43.4267 195.523 43.8267 195.417 44.2C195.31 44.5467 195.15 44.88 194.937 45.2C194.723 45.4933 194.457 45.7467 194.137 45.96C193.843 46.1733 193.51 46.3333 193.137 46.44C192.79 46.5467 192.403 46.6 191.977 46.6H191.937L191.897 46.56ZM191.897 39.44L191.937 39.4H191.977C192.403 39.4 192.79 39.4533 193.137 39.56C193.51 39.6667 193.843 39.8267 194.137 40.04C194.457 40.2533 194.723 40.52 194.937 40.84C195.15 41.1333 195.31 41.4667 195.417 41.84C195.523 42.1867 195.577 42.5733 195.577 43V43.04L195.537 43.08H191.897V39.44ZM192.057 39.44V43.08H188.417L188.377 43.04V43C188.377 42.5733 188.43 42.1867 188.537 41.84C188.643 41.4667 188.803 41.1333 189.017 40.84C189.23 40.52 189.483 40.2533 189.777 40.04C190.097 39.8267 190.43 39.6667 190.777 39.56C191.15 39.4533 191.55 39.4 191.977 39.4H192.017L192.057 39.44ZM196.057 58.56L196.017 58.6H195.977C195.55 58.6 195.15 58.5467 194.777 58.44C194.43 58.3333 194.097 58.1733 193.777 57.96C193.483 57.7467 193.23 57.4933 193.017 57.2C192.803 56.88 192.643 56.5467 192.537 56.2C192.43 55.8267 192.377 55.4267 192.377 55V54.96L192.417 54.92H196.057V58.56ZM195.897 58.56V54.92H199.537L199.577 54.96V55C199.577 55.4267 199.523 55.8267 199.417 56.2C199.31 56.5467 199.15 56.88 198.937 57.2C198.723 57.4933 198.457 57.7467 198.137 57.96C197.843 58.1733 197.51 58.3333 197.137 58.44C196.79 58.5467 196.403 58.6 195.977 58.6H195.937L195.897 58.56ZM195.897 51.44L195.937 51.4H195.977C196.403 51.4 196.79 51.4533 197.137 51.56C197.51 51.6667 197.843 51.8267 198.137 52.04C198.457 52.2533 198.723 52.52 198.937 52.84C199.15 53.1333 199.31 53.4667 199.417 53.84C199.523 54.1867 199.577 54.5733 199.577 55V55.04L199.537 55.08H195.897V51.44ZM196.057 51.44V55.08H192.417L192.377 55.04V55C192.377 54.5733 192.43 54.1867 192.537 53.84C192.643 53.4667 192.803 53.1333 193.017 52.84C193.23 52.52 193.483 52.2533 193.777 52.04C194.097 51.8267 194.43 51.6667 194.777 51.56C195.15 51.4533 195.55 51.4 195.977 51.4H196.017L196.057 51.44ZM196.057 46.56L196.017 46.6H195.977C195.55 46.6 195.15 46.5467 194.777 46.44C194.43 46.3333 194.097 46.1733 193.777 45.96C193.483 45.7467 193.23 45.4933 193.017 45.2C192.803 44.88 192.643 44.5467 192.537 44.2C192.43 43.8267 192.377 43.4267 192.377 43V42.96L192.417 42.92H196.057V46.56ZM195.897 46.56V42.92H199.537L199.577 42.96V43C199.577 43.4267 199.523 43.8267 199.417 44.2C199.31 44.5467 199.15 44.88 198.937 45.2C198.723 45.4933 198.457 45.7467 198.137 45.96C197.843 46.1733 197.51 46.3333 197.137 46.44C196.79 46.5467 196.403 46.6 195.977 46.6H195.937L195.897 46.56ZM195.897 39.44L195.937 39.4H195.977C196.403 39.4 196.79 39.4533 197.137 39.56C197.51 39.6667 197.843 39.8267 198.137 40.04C198.457 40.2533 198.723 40.52 198.937 40.84C199.15 41.1333 199.31 41.4667 199.417 41.84C199.523 42.1867 199.577 42.5733 199.577 43V43.04L199.537 43.08H195.897V39.44ZM196.057 39.44V43.08H192.417L192.377 43.04V43C192.377 42.5733 192.43 42.1867 192.537 41.84C192.643 41.4667 192.803 41.1333 193.017 40.84C193.23 40.52 193.483 40.2533 193.777 40.04C194.097 39.8267 194.43 39.6667 194.777 39.56C195.15 39.4533 195.55 39.4 195.977 39.4H196.017L196.057 39.44ZM206.041 46.56L206.001 46.6H205.961C205.534 46.6 205.134 46.5467 204.761 46.44C204.414 46.3333 204.094 46.1733 203.801 45.96C203.481 45.7467 203.214 45.4933 203.001 45.2C202.788 44.88 202.628 44.5467 202.521 44.2C202.414 43.8267 202.361 43.4267 202.361 43V42.96L202.401 42.92H206.041V46.56ZM205.881 46.56V42.92H209.521L209.561 42.96V43C209.561 43.4267 209.508 43.8267 209.401 44.2C209.294 44.5467 209.134 44.88 208.921 45.2C208.708 45.4933 208.441 45.7467 208.121 45.96C207.828 46.1733 207.494 46.3333 207.121 46.44C206.774 46.5467 206.388 46.6 205.961 46.6H205.921L205.881 46.56ZM205.881 39.44L205.921 39.4H205.961C206.388 39.4 206.774 39.4533 207.121 39.56C207.494 39.6667 207.828 39.8267 208.121 40.04C208.441 40.2533 208.708 40.52 208.921 40.84C209.134 41.1333 209.294 41.4667 209.401 41.84C209.508 42.1867 209.561 42.5733 209.561 43V43.04L209.521 43.08H205.881V39.44ZM206.041 39.44V43.08H202.401L202.361 43.04V43C202.361 42.5733 202.414 42.1867 202.521 41.84C202.628 41.4667 202.788 41.1333 203.001 40.84C203.214 40.52 203.481 40.2533 203.801 40.04C204.094 39.8267 204.414 39.6667 204.761 39.56C205.134 39.4533 205.534 39.4 205.961 39.4H206.001L206.041 39.44ZM210.041 58.56L210.001 58.6H209.961C209.534 58.6 209.134 58.5467 208.761 58.44C208.414 58.3333 208.081 58.1733 207.761 57.96C207.468 57.7467 207.214 57.4933 207.001 57.2C206.788 56.88 206.628 56.5467 206.521 56.2C206.414 55.8267 206.361 55.4267 206.361 55V54.96L206.401 54.92H210.041V58.56ZM209.881 58.56V54.92H213.521L213.561 54.96V55C213.561 55.4267 213.508 55.8267 213.401 56.2C213.294 56.5467 213.134 56.88 212.921 57.2C212.708 57.4933 212.441 57.7467 212.121 57.96C211.828 58.1733 211.494 58.3333 211.121 58.44C210.774 58.5467 210.388 58.6 209.961 58.6H209.921L209.881 58.56ZM209.881 51.44L209.921 51.4H209.961C210.388 51.4 210.774 51.4533 211.121 51.56C211.494 51.6667 211.828 51.8267 212.121 52.04C212.441 52.2533 212.708 52.52 212.921 52.84C213.134 53.1333 213.294 53.4667 213.401 53.84C213.508 54.1867 213.561 54.5733 213.561 55V55.04L213.521 55.08H209.881V51.44ZM210.041 51.44V55.08H206.401L206.361 55.04V55C206.361 54.5733 206.414 54.1867 206.521 53.84C206.628 53.4667 206.788 53.1333 207.001 52.84C207.214 52.52 207.468 52.2533 207.761 52.04C208.081 51.8267 208.414 51.6667 208.761 51.56C209.134 51.4533 209.534 51.4 209.961 51.4H210.001L210.041 51.44ZM210.041 54.56L210.001 54.6H209.961C209.534 54.6 209.134 54.5467 208.761 54.44C208.414 54.3333 208.081 54.1733 207.761 53.96C207.468 53.7467 207.214 53.4933 207.001 53.2C206.788 52.88 206.628 52.5467 206.521 52.2C206.414 51.8267 206.361 51.4267 206.361 51V50.96L206.401 50.92H210.041V54.56ZM209.881 54.56V50.92H213.521L213.561 50.96V51C213.561 51.4267 213.508 51.8267 213.401 52.2C213.294 52.5467 213.134 52.88 212.921 53.2C212.708 53.4933 212.441 53.7467 212.121 53.96C211.828 54.1733 211.494 54.3333 211.121 54.44C210.774 54.5467 210.388 54.6 209.961 54.6H209.921L209.881 54.56ZM209.881 47.44L209.921 47.4H209.961C210.388 47.4 210.774 47.4533 211.121 47.56C211.494 47.6667 211.828 47.8267 212.121 48.04C212.441 48.2533 212.708 48.52 212.921 48.84C213.134 49.1333 213.294 49.4667 213.401 49.84C213.508 50.1867 213.561 50.5733 213.561 51V51.04L213.521 51.08H209.881V47.44ZM210.041 47.44V51.08H206.401L206.361 51.04V51C206.361 50.5733 206.414 50.1867 206.521 49.84C206.628 49.4667 206.788 49.1333 207.001 48.84C207.214 48.52 207.468 48.2533 207.761 48.04C208.081 47.8267 208.414 47.6667 208.761 47.56C209.134 47.4533 209.534 47.4 209.961 47.4H210.001L210.041 47.44ZM210.041 50.56L210.001 50.6H209.961C209.534 50.6 209.134 50.5467 208.761 50.44C208.414 50.3333 208.081 50.1733 207.761 49.96C207.468 49.7467 207.214 49.4933 207.001 49.2C206.788 48.88 206.628 48.5467 206.521 48.2C206.414 47.8267 206.361 47.4267 206.361 47V46.96L206.401 46.92H210.041V50.56ZM209.881 50.56V46.92H213.521L213.561 46.96V47C213.561 47.4267 213.508 47.8267 213.401 48.2C213.294 48.5467 213.134 48.88 212.921 49.2C212.708 49.4933 212.441 49.7467 212.121 49.96C211.828 50.1733 211.494 50.3333 211.121 50.44C210.774 50.5467 210.388 50.6 209.961 50.6H209.921L209.881 50.56ZM209.881 43.44L209.921 43.4H209.961C210.388 43.4 210.774 43.4533 211.121 43.56C211.494 43.6667 211.828 43.8267 212.121 44.04C212.441 44.2533 212.708 44.52 212.921 44.84C213.134 45.1333 213.294 45.4667 213.401 45.84C213.508 46.1867 213.561 46.5733 213.561 47V47.04L213.521 47.08H209.881V43.44ZM210.041 43.44V47.08H206.401L206.361 47.04V47C206.361 46.5733 206.414 46.1867 206.521 45.84C206.628 45.4667 206.788 45.1333 207.001 44.84C207.214 44.52 207.468 44.2533 207.761 44.04C208.081 43.8267 208.414 43.6667 208.761 43.56C209.134 43.4533 209.534 43.4 209.961 43.4H210.001L210.041 43.44ZM210.041 46.56L210.001 46.6H209.961C209.534 46.6 209.134 46.5467 208.761 46.44C208.414 46.3333 208.081 46.1733 207.761 45.96C207.468 45.7467 207.214 45.4933 207.001 45.2C206.788 44.88 206.628 44.5467 206.521 44.2C206.414 43.8267 206.361 43.4267 206.361 43V42.96L206.401 42.92H210.041V46.56ZM209.881 46.56V42.92H213.521L213.561 42.96V43C213.561 43.4267 213.508 43.8267 213.401 44.2C213.294 44.5467 213.134 44.88 212.921 45.2C212.708 45.4933 212.441 45.7467 212.121 45.96C211.828 46.1733 211.494 46.3333 211.121 46.44C210.774 46.5467 210.388 46.6 209.961 46.6H209.921L209.881 46.56ZM209.881 39.44L209.921 39.4H209.961C210.388 39.4 210.774 39.4533 211.121 39.56C211.494 39.6667 211.828 39.8267 212.121 40.04C212.441 40.2533 212.708 40.52 212.921 40.84C213.134 41.1333 213.294 41.4667 213.401 41.84C213.508 42.1867 213.561 42.5733 213.561 43V43.04L213.521 43.08H209.881V39.44ZM210.041 39.44V43.08H206.401L206.361 43.04V43C206.361 42.5733 206.414 42.1867 206.521 41.84C206.628 41.4667 206.788 41.1333 207.001 40.84C207.214 40.52 207.468 40.2533 207.761 40.04C208.081 39.8267 208.414 39.6667 208.761 39.56C209.134 39.4533 209.534 39.4 209.961 39.4H210.001L210.041 39.44ZM210.041 42.56L210.001 42.6H209.961C209.534 42.6 209.134 42.5467 208.761 42.44C208.414 42.3333 208.081 42.1733 207.761 41.96C207.468 41.7467 207.214 41.4933 207.001 41.2C206.788 40.88 206.628 40.5467 206.521 40.2C206.414 39.8267 206.361 39.4267 206.361 39V38.96L206.401 38.92H210.041V42.56ZM209.881 42.56V38.92H213.521L213.561 38.96V39C213.561 39.4267 213.508 39.8267 213.401 40.2C213.294 40.5467 213.134 40.88 212.921 41.2C212.708 41.4933 212.441 41.7467 212.121 41.96C211.828 42.1733 211.494 42.3333 211.121 42.44C210.774 42.5467 210.388 42.6 209.961 42.6H209.921L209.881 42.56ZM209.881 35.44L209.921 35.4H209.961C210.388 35.4 210.774 35.4533 211.121 35.56C211.494 35.6667 211.828 35.8267 212.121 36.04C212.441 36.2533 212.708 36.52 212.921 36.84C213.134 37.1333 213.294 37.4667 213.401 37.84C213.508 38.1867 213.561 38.5733 213.561 39V39.04L213.521 39.08H209.881V35.44ZM210.041 35.44V39.08H206.401L206.361 39.04V39C206.361 38.5733 206.414 38.1867 206.521 37.84C206.628 37.4667 206.788 37.1333 207.001 36.84C207.214 36.52 207.468 36.2533 207.761 36.04C208.081 35.8267 208.414 35.6667 208.761 35.56C209.134 35.4533 209.534 35.4 209.961 35.4H210.001L210.041 35.44ZM214.041 62.56L214.001 62.6H213.961C213.534 62.6 213.134 62.5467 212.761 62.44C212.414 62.3333 212.081 62.1733 211.761 61.96C211.468 61.7467 211.214 61.48 211.001 61.16C210.788 60.8667 210.628 60.5467 210.521 60.2C210.414 59.8267 210.361 59.4267 210.361 59V58.96L210.401 58.92H214.041V62.56ZM213.881 62.56V58.92H217.521L217.561 58.96V59C217.561 59.4267 217.508 59.8267 217.401 60.2C217.294 60.5467 217.134 60.8667 216.921 61.16C216.708 61.48 216.441 61.7467 216.121 61.96C215.828 62.1733 215.494 62.3333 215.121 62.44C214.774 62.5467 214.388 62.6 213.961 62.6H213.921L213.881 62.56ZM213.881 55.44L213.921 55.4H213.961C214.388 55.4 214.774 55.4533 215.121 55.56C215.494 55.6667 215.828 55.8267 216.121 56.04C216.441 56.2533 216.708 56.52 216.921 56.84C217.134 57.1333 217.294 57.4667 217.401 57.84C217.508 58.1867 217.561 58.5733 217.561 59V59.04L217.521 59.08H213.881V55.44ZM214.041 55.44V59.08H210.401L210.361 59.04V59C210.361 58.5733 210.414 58.1867 210.521 57.84C210.628 57.4667 210.788 57.1333 211.001 56.84C211.214 56.52 211.468 56.2533 211.761 56.04C212.081 55.8267 212.414 55.6667 212.761 55.56C213.134 55.4533 213.534 55.4 213.961 55.4H214.001L214.041 55.44ZM214.041 46.56L214.001 46.6H213.961C213.534 46.6 213.134 46.5467 212.761 46.44C212.414 46.3333 212.081 46.1733 211.761 45.96C211.468 45.7467 211.214 45.4933 211.001 45.2C210.788 44.88 210.628 44.5467 210.521 44.2C210.414 43.8267 210.361 43.4267 210.361 43V42.96L210.401 42.92H214.041V46.56ZM213.881 46.56V42.92H217.521L217.561 42.96V43C217.561 43.4267 217.508 43.8267 217.401 44.2C217.294 44.5467 217.134 44.88 216.921 45.2C216.708 45.4933 216.441 45.7467 216.121 45.96C215.828 46.1733 215.494 46.3333 215.121 46.44C214.774 46.5467 214.388 46.6 213.961 46.6H213.921L213.881 46.56ZM213.881 39.44L213.921 39.4H213.961C214.388 39.4 214.774 39.4533 215.121 39.56C215.494 39.6667 215.828 39.8267 216.121 40.04C216.441 40.2533 216.708 40.52 216.921 40.84C217.134 41.1333 217.294 41.4667 217.401 41.84C217.508 42.1867 217.561 42.5733 217.561 43V43.04L217.521 43.08H213.881V39.44ZM214.041 39.44V43.08H210.401L210.361 43.04V43C210.361 42.5733 210.414 42.1867 210.521 41.84C210.628 41.4667 210.788 41.1333 211.001 40.84C211.214 40.52 211.468 40.2533 211.761 40.04C212.081 39.8267 212.414 39.6667 212.761 39.56C213.134 39.4533 213.534 39.4 213.961 39.4H214.001L214.041 39.44ZM218.041 62.56L218.001 62.6H217.961C217.534 62.6 217.134 62.5467 216.761 62.44C216.414 62.3333 216.081 62.1733 215.761 61.96C215.468 61.7467 215.214 61.48 215.001 61.16C214.788 60.8667 214.628 60.5467 214.521 60.2C214.414 59.8267 214.361 59.4267 214.361 59V58.96L214.401 58.92H218.041V62.56ZM217.881 62.56V58.92H221.521L221.561 58.96V59C221.561 59.4267 221.508 59.8267 221.401 60.2C221.294 60.5467 221.134 60.8667 220.921 61.16C220.708 61.48 220.441 61.7467 220.121 61.96C219.828 62.1733 219.494 62.3333 219.121 62.44C218.774 62.5467 218.388 62.6 217.961 62.6H217.921L217.881 62.56ZM217.881 55.44L217.921 55.4H217.961C218.388 55.4 218.774 55.4533 219.121 55.56C219.494 55.6667 219.828 55.8267 220.121 56.04C220.441 56.2533 220.708 56.52 220.921 56.84C221.134 57.1333 221.294 57.4667 221.401 57.84C221.508 58.1867 221.561 58.5733 221.561 59V59.04L221.521 59.08H217.881V55.44ZM218.041 55.44V59.08H214.401L214.361 59.04V59C214.361 58.5733 214.414 58.1867 214.521 57.84C214.628 57.4667 214.788 57.1333 215.001 56.84C215.214 56.52 215.468 56.2533 215.761 56.04C216.081 55.8267 216.414 55.6667 216.761 55.56C217.134 55.4533 217.534 55.4 217.961 55.4H218.001L218.041 55.44ZM218.041 46.56L218.001 46.6H217.961C217.534 46.6 217.134 46.5467 216.761 46.44C216.414 46.3333 216.081 46.1733 215.761 45.96C215.468 45.7467 215.214 45.4933 215.001 45.2C214.788 44.88 214.628 44.5467 214.521 44.2C214.414 43.8267 214.361 43.4267 214.361 43V42.96L214.401 42.92H218.041V46.56ZM217.881 46.56V42.92H221.521L221.561 42.96V43C221.561 43.4267 221.508 43.8267 221.401 44.2C221.294 44.5467 221.134 44.88 220.921 45.2C220.708 45.4933 220.441 45.7467 220.121 45.96C219.828 46.1733 219.494 46.3333 219.121 46.44C218.774 46.5467 218.388 46.6 217.961 46.6H217.921L217.881 46.56ZM217.881 39.44L217.921 39.4H217.961C218.388 39.4 218.774 39.4533 219.121 39.56C219.494 39.6667 219.828 39.8267 220.121 40.04C220.441 40.2533 220.708 40.52 220.921 40.84C221.134 41.1333 221.294 41.4667 221.401 41.84C221.508 42.1867 221.561 42.5733 221.561 43V43.04L221.521 43.08H217.881V39.44ZM218.041 39.44V43.08H214.401L214.361 43.04V43C214.361 42.5733 214.414 42.1867 214.521 41.84C214.628 41.4667 214.788 41.1333 215.001 40.84C215.214 40.52 215.468 40.2533 215.761 40.04C216.081 39.8267 216.414 39.6667 216.761 39.56C217.134 39.4533 217.534 39.4 217.961 39.4H218.001L218.041 39.44ZM222.041 62.56L222.001 62.6H221.961C221.534 62.6 221.134 62.5467 220.761 62.44C220.414 62.3333 220.081 62.1733 219.761 61.96C219.468 61.7467 219.214 61.48 219.001 61.16C218.788 60.8667 218.628 60.5467 218.521 60.2C218.414 59.8267 218.361 59.4267 218.361 59V58.96L218.401 58.92H222.041V62.56ZM221.881 62.56V58.92H225.521L225.561 58.96V59C225.561 59.4267 225.508 59.8267 225.401 60.2C225.294 60.5467 225.134 60.8667 224.921 61.16C224.708 61.48 224.441 61.7467 224.121 61.96C223.828 62.1733 223.494 62.3333 223.121 62.44C222.774 62.5467 222.388 62.6 221.961 62.6H221.921L221.881 62.56ZM221.881 55.44L221.921 55.4H221.961C222.388 55.4 222.774 55.4533 223.121 55.56C223.494 55.6667 223.828 55.8267 224.121 56.04C224.441 56.2533 224.708 56.52 224.921 56.84C225.134 57.1333 225.294 57.4667 225.401 57.84C225.508 58.1867 225.561 58.5733 225.561 59V59.04L225.521 59.08H221.881V55.44ZM222.041 55.44V59.08H218.401L218.361 59.04V59C218.361 58.5733 218.414 58.1867 218.521 57.84C218.628 57.4667 218.788 57.1333 219.001 56.84C219.214 56.52 219.468 56.2533 219.761 56.04C220.081 55.8267 220.414 55.6667 220.761 55.56C221.134 55.4533 221.534 55.4 221.961 55.4H222.001L222.041 55.44ZM222.041 46.56L222.001 46.6H221.961C221.534 46.6 221.134 46.5467 220.761 46.44C220.414 46.3333 220.081 46.1733 219.761 45.96C219.468 45.7467 219.214 45.4933 219.001 45.2C218.788 44.88 218.628 44.5467 218.521 44.2C218.414 43.8267 218.361 43.4267 218.361 43V42.96L218.401 42.92H222.041V46.56ZM221.881 46.56V42.92H225.521L225.561 42.96V43C225.561 43.4267 225.508 43.8267 225.401 44.2C225.294 44.5467 225.134 44.88 224.921 45.2C224.708 45.4933 224.441 45.7467 224.121 45.96C223.828 46.1733 223.494 46.3333 223.121 46.44C222.774 46.5467 222.388 46.6 221.961 46.6H221.921L221.881 46.56ZM221.881 39.44L221.921 39.4H221.961C222.388 39.4 222.774 39.4533 223.121 39.56C223.494 39.6667 223.828 39.8267 224.121 40.04C224.441 40.2533 224.708 40.52 224.921 40.84C225.134 41.1333 225.294 41.4667 225.401 41.84C225.508 42.1867 225.561 42.5733 225.561 43V43.04L225.521 43.08H221.881V39.44ZM222.041 39.44V43.08H218.401L218.361 43.04V43C218.361 42.5733 218.414 42.1867 218.521 41.84C218.628 41.4667 218.788 41.1333 219.001 40.84C219.214 40.52 219.468 40.2533 219.761 40.04C220.081 39.8267 220.414 39.6667 220.761 39.56C221.134 39.4533 221.534 39.4 221.961 39.4H222.001L222.041 39.44Z" fill="#656565"/>
</svg>
