<svg width="388" height="89" viewBox="0 0 388 89" fill="none" xmlns="http://www.w3.org/2000/svg">
<rect x="2" y="2" width="384" height="85" rx="6" fill="#D9F4FA" stroke="#9D9D9D" stroke-width="4"/>
<path d="M119.127 56.56L119.087 56.6H119.047C118.62 56.6 118.22 56.5467 117.847 56.44C117.5 56.3333 117.18 56.1733 116.887 55.96C116.567 55.7467 116.3 55.48 116.087 55.16C115.874 54.8667 115.714 54.5467 115.607 54.2C115.5 53.8267 115.447 53.4267 115.447 53V52.96L115.487 52.92H119.127V56.56ZM118.967 56.56V52.92H122.607L122.647 52.96V53C122.647 53.4267 122.594 53.8267 122.487 54.2C122.38 54.5467 122.22 54.8667 122.007 55.16C121.794 55.48 121.527 55.7467 121.207 55.96C120.914 56.1733 120.58 56.3333 120.207 56.44C119.86 56.5467 119.474 56.6 119.047 56.6H119.007L118.967 56.56ZM118.967 49.44L119.007 49.4H119.047C119.474 49.4 119.86 49.4533 120.207 49.56C120.58 49.6667 120.914 49.8267 121.207 50.04C121.527 50.2533 121.794 50.52 122.007 50.84C122.22 51.1333 122.38 51.4667 122.487 51.84C122.594 52.1867 122.647 52.5733 122.647 53V53.04L122.607 53.08H118.967V49.44ZM119.127 49.44V53.08H115.487L115.447 53.04V53C115.447 52.5733 115.5 52.1867 115.607 51.84C115.714 51.4667 115.874 51.1333 116.087 50.84C116.3 50.52 116.567 50.2533 116.887 50.04C117.18 49.8267 117.5 49.6667 117.847 49.56C118.22 49.4533 118.62 49.4 119.047 49.4H119.087L119.127 49.44ZM119.127 44.56L119.087 44.6H119.047C118.62 44.6 118.22 44.5467 117.847 44.44C117.5 44.3333 117.18 44.1733 116.887 43.96C116.567 43.7467 116.3 43.4933 116.087 43.2C115.874 42.88 115.714 42.5467 115.607 42.2C115.5 41.8267 115.447 41.4267 115.447 41V40.96L115.487 40.92H119.127V44.56ZM118.967 44.56V40.92H122.607L122.647 40.96V41C122.647 41.4267 122.594 41.8267 122.487 42.2C122.38 42.5467 122.22 42.88 122.007 43.2C121.794 43.4933 121.527 43.7467 121.207 43.96C120.914 44.1733 120.58 44.3333 120.207 44.44C119.86 44.5467 119.474 44.6 119.047 44.6H119.007L118.967 44.56ZM118.967 37.44L119.007 37.4H119.047C119.474 37.4 119.86 37.4533 120.207 37.56C120.58 37.6667 120.914 37.8267 121.207 38.04C121.527 38.2533 121.794 38.52 122.007 38.84C122.22 39.1333 122.38 39.4667 122.487 39.84C122.594 40.1867 122.647 40.5733 122.647 41V41.04L122.607 41.08H118.967V37.44ZM119.127 37.44V41.08H115.487L115.447 41.04V41C115.447 40.5733 115.5 40.1867 115.607 39.84C115.714 39.4667 115.874 39.1333 116.087 38.84C116.3 38.52 116.567 38.2533 116.887 38.04C117.18 37.8267 117.5 37.6667 117.847 37.56C118.22 37.4533 118.62 37.4 119.047 37.4H119.087L119.127 37.44ZM123.127 56.56L123.087 56.6H123.047C122.62 56.6 122.22 56.5467 121.847 56.44C121.5 56.3333 121.167 56.1733 120.847 55.96C120.554 55.7467 120.3 55.48 120.087 55.16C119.874 54.8667 119.714 54.5467 119.607 54.2C119.5 53.8267 119.447 53.4267 119.447 53V52.96L119.487 52.92H123.127V56.56ZM122.967 56.56V52.92H126.607L126.647 52.96V53C126.647 53.4267 126.594 53.8267 126.487 54.2C126.38 54.5467 126.22 54.8667 126.007 55.16C125.794 55.48 125.527 55.7467 125.207 55.96C124.914 56.1733 124.58 56.3333 124.207 56.44C123.86 56.5467 123.474 56.6 123.047 56.6H123.007L122.967 56.56ZM122.967 49.44L123.007 49.4H123.047C123.474 49.4 123.86 49.4533 124.207 49.56C124.58 49.6667 124.914 49.8267 125.207 50.04C125.527 50.2533 125.794 50.52 126.007 50.84C126.22 51.1333 126.38 51.4667 126.487 51.84C126.594 52.1867 126.647 52.5733 126.647 53V53.04L126.607 53.08H122.967V49.44ZM123.127 49.44V53.08H119.487L119.447 53.04V53C119.447 52.5733 119.5 52.1867 119.607 51.84C119.714 51.4667 119.874 51.1333 120.087 50.84C120.3 50.52 120.554 50.2533 120.847 50.04C121.167 49.8267 121.5 49.6667 121.847 49.56C122.22 49.4533 122.62 49.4 123.047 49.4H123.087L123.127 49.44ZM123.127 48.56L123.087 48.6H123.047C122.62 48.6 122.22 48.5467 121.847 48.44C121.5 48.3333 121.167 48.1733 120.847 47.96C120.554 47.7467 120.3 47.4933 120.087 47.2C119.874 46.88 119.714 46.5467 119.607 46.2C119.5 45.8267 119.447 45.4267 119.447 45V44.96L119.487 44.92H123.127V48.56ZM122.967 48.56V44.92H126.607L126.647 44.96V45C126.647 45.4267 126.594 45.8267 126.487 46.2C126.38 46.5467 126.22 46.88 126.007 47.2C125.794 47.4933 125.527 47.7467 125.207 47.96C124.914 48.1733 124.58 48.3333 124.207 48.44C123.86 48.5467 123.474 48.6 123.047 48.6H123.007L122.967 48.56ZM122.967 41.44L123.007 41.4H123.047C123.474 41.4 123.86 41.4533 124.207 41.56C124.58 41.6667 124.914 41.8267 125.207 42.04C125.527 42.2533 125.794 42.52 126.007 42.84C126.22 43.1333 126.38 43.4667 126.487 43.84C126.594 44.1867 126.647 44.5733 126.647 45V45.04L126.607 45.08H122.967V41.44ZM123.127 41.44V45.08H119.487L119.447 45.04V45C119.447 44.5733 119.5 44.1867 119.607 43.84C119.714 43.4667 119.874 43.1333 120.087 42.84C120.3 42.52 120.554 42.2533 120.847 42.04C121.167 41.8267 121.5 41.6667 121.847 41.56C122.22 41.4533 122.62 41.4 123.047 41.4H123.087L123.127 41.44ZM123.127 40.56L123.087 40.6H123.047C122.62 40.6 122.22 40.5467 121.847 40.44C121.5 40.3333 121.167 40.1733 120.847 39.96C120.554 39.7467 120.3 39.4933 120.087 39.2C119.874 38.88 119.714 38.5467 119.607 38.2C119.5 37.8267 119.447 37.4267 119.447 37V36.96L119.487 36.92H123.127V40.56ZM122.967 40.56V36.92H126.607L126.647 36.96V37C126.647 37.4267 126.594 37.8267 126.487 38.2C126.38 38.5467 126.22 38.88 126.007 39.2C125.794 39.4933 125.527 39.7467 125.207 39.96C124.914 40.1733 124.58 40.3333 124.207 40.44C123.86 40.5467 123.474 40.6 123.047 40.6H123.007L122.967 40.56ZM122.967 33.44L123.007 33.4H123.047C123.474 33.4 123.86 33.4533 124.207 33.56C124.58 33.6667 124.914 33.8267 125.207 34.04C125.527 34.2533 125.794 34.52 126.007 34.84C126.22 35.1333 126.38 35.4667 126.487 35.84C126.594 36.1867 126.647 36.5733 126.647 37V37.04L126.607 37.08H122.967V33.44ZM123.127 33.44V37.08H119.487L119.447 37.04V37C119.447 36.5733 119.5 36.1867 119.607 35.84C119.714 35.4667 119.874 35.1333 120.087 34.84C120.3 34.52 120.554 34.2533 120.847 34.04C121.167 33.8267 121.5 33.6667 121.847 33.56C122.22 33.4533 122.62 33.4 123.047 33.4H123.087L123.127 33.44ZM127.127 56.56L127.087 56.6H127.047C126.62 56.6 126.22 56.5467 125.847 56.44C125.5 56.3333 125.167 56.1733 124.847 55.96C124.554 55.7467 124.3 55.48 124.087 55.16C123.874 54.8667 123.714 54.5467 123.607 54.2C123.5 53.8267 123.447 53.4267 123.447 53V52.96L123.487 52.92H127.127V56.56ZM126.967 56.56V52.92H130.607L130.647 52.96V53C130.647 53.4267 130.594 53.8267 130.487 54.2C130.38 54.5467 130.22 54.8667 130.007 55.16C129.794 55.48 129.527 55.7467 129.207 55.96C128.914 56.1733 128.58 56.3333 128.207 56.44C127.86 56.5467 127.474 56.6 127.047 56.6H127.007L126.967 56.56ZM126.967 49.44L127.007 49.4H127.047C127.474 49.4 127.86 49.4533 128.207 49.56C128.58 49.6667 128.914 49.8267 129.207 50.04C129.527 50.2533 129.794 50.52 130.007 50.84C130.22 51.1333 130.38 51.4667 130.487 51.84C130.594 52.1867 130.647 52.5733 130.647 53V53.04L130.607 53.08H126.967V49.44ZM127.127 49.44V53.08H123.487L123.447 53.04V53C123.447 52.5733 123.5 52.1867 123.607 51.84C123.714 51.4667 123.874 51.1333 124.087 50.84C124.3 50.52 124.554 50.2533 124.847 50.04C125.167 49.8267 125.5 49.6667 125.847 49.56C126.22 49.4533 126.62 49.4 127.047 49.4H127.087L127.127 49.44ZM127.127 48.56L127.087 48.6H127.047C126.62 48.6 126.22 48.5467 125.847 48.44C125.5 48.3333 125.167 48.1733 124.847 47.96C124.554 47.7467 124.3 47.4933 124.087 47.2C123.874 46.88 123.714 46.5467 123.607 46.2C123.5 45.8267 123.447 45.4267 123.447 45V44.96L123.487 44.92H127.127V48.56ZM126.967 48.56V44.92H130.607L130.647 44.96V45C130.647 45.4267 130.594 45.8267 130.487 46.2C130.38 46.5467 130.22 46.88 130.007 47.2C129.794 47.4933 129.527 47.7467 129.207 47.96C128.914 48.1733 128.58 48.3333 128.207 48.44C127.86 48.5467 127.474 48.6 127.047 48.6H127.007L126.967 48.56ZM126.967 41.44L127.007 41.4H127.047C127.474 41.4 127.86 41.4533 128.207 41.56C128.58 41.6667 128.914 41.8267 129.207 42.04C129.527 42.2533 129.794 42.52 130.007 42.84C130.22 43.1333 130.38 43.4667 130.487 43.84C130.594 44.1867 130.647 44.5733 130.647 45V45.04L130.607 45.08H126.967V41.44ZM127.127 41.44V45.08H123.487L123.447 45.04V45C123.447 44.5733 123.5 44.1867 123.607 43.84C123.714 43.4667 123.874 43.1333 124.087 42.84C124.3 42.52 124.554 42.2533 124.847 42.04C125.167 41.8267 125.5 41.6667 125.847 41.56C126.22 41.4533 126.62 41.4 127.047 41.4H127.087L127.127 41.44ZM127.127 40.56L127.087 40.6H127.047C126.62 40.6 126.22 40.5467 125.847 40.44C125.5 40.3333 125.167 40.1733 124.847 39.96C124.554 39.7467 124.3 39.4933 124.087 39.2C123.874 38.88 123.714 38.5467 123.607 38.2C123.5 37.8267 123.447 37.4267 123.447 37V36.96L123.487 36.92H127.127V40.56ZM126.967 40.56V36.92H130.607L130.647 36.96V37C130.647 37.4267 130.594 37.8267 130.487 38.2C130.38 38.5467 130.22 38.88 130.007 39.2C129.794 39.4933 129.527 39.7467 129.207 39.96C128.914 40.1733 128.58 40.3333 128.207 40.44C127.86 40.5467 127.474 40.6 127.047 40.6H127.007L126.967 40.56ZM126.967 33.44L127.007 33.4H127.047C127.474 33.4 127.86 33.4533 128.207 33.56C128.58 33.6667 128.914 33.8267 129.207 34.04C129.527 34.2533 129.794 34.52 130.007 34.84C130.22 35.1333 130.38 35.4667 130.487 35.84C130.594 36.1867 130.647 36.5733 130.647 37V37.04L130.607 37.08H126.967V33.44ZM127.127 33.44V37.08H123.487L123.447 37.04V37C123.447 36.5733 123.5 36.1867 123.607 35.84C123.714 35.4667 123.874 35.1333 124.087 34.84C124.3 34.52 124.554 34.2533 124.847 34.04C125.167 33.8267 125.5 33.6667 125.847 33.56C126.22 33.4533 126.62 33.4 127.047 33.4H127.087L127.127 33.44ZM131.127 56.56L131.087 56.6H131.047C130.62 56.6 130.22 56.5467 129.847 56.44C129.5 56.3333 129.167 56.1733 128.847 55.96C128.554 55.7467 128.3 55.48 128.087 55.16C127.874 54.8667 127.714 54.5467 127.607 54.2C127.5 53.8267 127.447 53.4267 127.447 53V52.96L127.487 52.92H131.127V56.56ZM130.967 56.56V52.92H134.607L134.647 52.96V53C134.647 53.4267 134.594 53.8267 134.487 54.2C134.38 54.5467 134.22 54.8667 134.007 55.16C133.794 55.48 133.527 55.7467 133.207 55.96C132.914 56.1733 132.58 56.3333 132.207 56.44C131.86 56.5467 131.474 56.6 131.047 56.6H131.007L130.967 56.56ZM130.967 49.44L131.007 49.4H131.047C131.474 49.4 131.86 49.4533 132.207 49.56C132.58 49.6667 132.914 49.8267 133.207 50.04C133.527 50.2533 133.794 50.52 134.007 50.84C134.22 51.1333 134.38 51.4667 134.487 51.84C134.594 52.1867 134.647 52.5733 134.647 53V53.04L134.607 53.08H130.967V49.44ZM131.127 49.44V53.08H127.487L127.447 53.04V53C127.447 52.5733 127.5 52.1867 127.607 51.84C127.714 51.4667 127.874 51.1333 128.087 50.84C128.3 50.52 128.554 50.2533 128.847 50.04C129.167 49.8267 129.5 49.6667 129.847 49.56C130.22 49.4533 130.62 49.4 131.047 49.4H131.087L131.127 49.44ZM131.127 48.56L131.087 48.6H131.047C130.62 48.6 130.22 48.5467 129.847 48.44C129.5 48.3333 129.167 48.1733 128.847 47.96C128.554 47.7467 128.3 47.4933 128.087 47.2C127.874 46.88 127.714 46.5467 127.607 46.2C127.5 45.8267 127.447 45.4267 127.447 45V44.96L127.487 44.92H131.127V48.56ZM130.967 48.56V44.92H134.607L134.647 44.96V45C134.647 45.4267 134.594 45.8267 134.487 46.2C134.38 46.5467 134.22 46.88 134.007 47.2C133.794 47.4933 133.527 47.7467 133.207 47.96C132.914 48.1733 132.58 48.3333 132.207 48.44C131.86 48.5467 131.474 48.6 131.047 48.6H131.007L130.967 48.56ZM130.967 41.44L131.007 41.4H131.047C131.474 41.4 131.86 41.4533 132.207 41.56C132.58 41.6667 132.914 41.8267 133.207 42.04C133.527 42.2533 133.794 42.52 134.007 42.84C134.22 43.1333 134.38 43.4667 134.487 43.84C134.594 44.1867 134.647 44.5733 134.647 45V45.04L134.607 45.08H130.967V41.44ZM131.127 41.44V45.08H127.487L127.447 45.04V45C127.447 44.5733 127.5 44.1867 127.607 43.84C127.714 43.4667 127.874 43.1333 128.087 42.84C128.3 42.52 128.554 42.2533 128.847 42.04C129.167 41.8267 129.5 41.6667 129.847 41.56C130.22 41.4533 130.62 41.4 131.047 41.4H131.087L131.127 41.44ZM131.127 40.56L131.087 40.6H131.047C130.62 40.6 130.22 40.5467 129.847 40.44C129.5 40.3333 129.167 40.1733 128.847 39.96C128.554 39.7467 128.3 39.4933 128.087 39.2C127.874 38.88 127.714 38.5467 127.607 38.2C127.5 37.8267 127.447 37.4267 127.447 37V36.96L127.487 36.92H131.127V40.56ZM130.967 40.56V36.92H134.607L134.647 36.96V37C134.647 37.4267 134.594 37.8267 134.487 38.2C134.38 38.5467 134.22 38.88 134.007 39.2C133.794 39.4933 133.527 39.7467 133.207 39.96C132.914 40.1733 132.58 40.3333 132.207 40.44C131.86 40.5467 131.474 40.6 131.047 40.6H131.007L130.967 40.56ZM130.967 33.44L131.007 33.4H131.047C131.474 33.4 131.86 33.4533 132.207 33.56C132.58 33.6667 132.914 33.8267 133.207 34.04C133.527 34.2533 133.794 34.52 134.007 34.84C134.22 35.1333 134.38 35.4667 134.487 35.84C134.594 36.1867 134.647 36.5733 134.647 37V37.04L134.607 37.08H130.967V33.44ZM131.127 33.44V37.08H127.487L127.447 37.04V37C127.447 36.5733 127.5 36.1867 127.607 35.84C127.714 35.4667 127.874 35.1333 128.087 34.84C128.3 34.52 128.554 34.2533 128.847 34.04C129.167 33.8267 129.5 33.6667 129.847 33.56C130.22 33.4533 130.62 33.4 131.047 33.4H131.087L131.127 33.44ZM135.127 52.56L135.087 52.6H135.047C134.62 52.6 134.22 52.5467 133.847 52.44C133.5 52.3333 133.167 52.1733 132.847 51.96C132.554 51.7467 132.3 51.4933 132.087 51.2C131.874 50.88 131.714 50.5467 131.607 50.2C131.5 49.8267 131.447 49.4267 131.447 49V48.96L131.487 48.92H135.127V52.56ZM134.967 52.56V48.92H138.607L138.647 48.96V49C138.647 49.4267 138.594 49.8267 138.487 50.2C138.38 50.5467 138.22 50.88 138.007 51.2C137.794 51.4933 137.527 51.7467 137.207 51.96C136.914 52.1733 136.58 52.3333 136.207 52.44C135.86 52.5467 135.474 52.6 135.047 52.6H135.007L134.967 52.56ZM134.967 45.44L135.007 45.4H135.047C135.474 45.4 135.86 45.4533 136.207 45.56C136.58 45.6667 136.914 45.8267 137.207 46.04C137.527 46.2533 137.794 46.52 138.007 46.84C138.22 47.1333 138.38 47.4667 138.487 47.84C138.594 48.1867 138.647 48.5733 138.647 49V49.04L138.607 49.08H134.967V45.44ZM135.127 45.44V49.08H131.487L131.447 49.04V49C131.447 48.5733 131.5 48.1867 131.607 47.84C131.714 47.4667 131.874 47.1333 132.087 46.84C132.3 46.52 132.554 46.2533 132.847 46.04C133.167 45.8267 133.5 45.6667 133.847 45.56C134.22 45.4533 134.62 45.4 135.047 45.4H135.087L135.127 45.44ZM135.127 40.56L135.087 40.6H135.047C134.62 40.6 134.22 40.5467 133.847 40.44C133.5 40.3333 133.167 40.1733 132.847 39.96C132.554 39.7467 132.3 39.4933 132.087 39.2C131.874 38.88 131.714 38.5467 131.607 38.2C131.5 37.8267 131.447 37.4267 131.447 37V36.96L131.487 36.92H135.127V40.56ZM134.967 40.56V36.92H138.607L138.647 36.96V37C138.647 37.4267 138.594 37.8267 138.487 38.2C138.38 38.5467 138.22 38.88 138.007 39.2C137.794 39.4933 137.527 39.7467 137.207 39.96C136.914 40.1733 136.58 40.3333 136.207 40.44C135.86 40.5467 135.474 40.6 135.047 40.6H135.007L134.967 40.56ZM134.967 33.44L135.007 33.4H135.047C135.474 33.4 135.86 33.4533 136.207 33.56C136.58 33.6667 136.914 33.8267 137.207 34.04C137.527 34.2533 137.794 34.52 138.007 34.84C138.22 35.1333 138.38 35.4667 138.487 35.84C138.594 36.1867 138.647 36.5733 138.647 37V37.04L138.607 37.08H134.967V33.44ZM135.127 33.44V37.08H131.487L131.447 37.04V37C131.447 36.5733 131.5 36.1867 131.607 35.84C131.714 35.4667 131.874 35.1333 132.087 34.84C132.3 34.52 132.554 34.2533 132.847 34.04C133.167 33.8267 133.5 33.6667 133.847 33.56C134.22 33.4533 134.62 33.4 135.047 33.4H135.087L135.127 33.44ZM145.111 56.56L145.071 56.6H145.031C144.605 56.6 144.205 56.5467 143.831 56.44C143.485 56.3333 143.165 56.1733 142.871 55.96C142.551 55.7467 142.285 55.48 142.071 55.16C141.858 54.8667 141.698 54.5467 141.591 54.2C141.485 53.8267 141.431 53.4267 141.431 53V52.96L141.471 52.92H145.111V56.56ZM144.951 56.56V52.92H148.591L148.631 52.96V53C148.631 53.4267 148.578 53.8267 148.471 54.2C148.365 54.5467 148.205 54.8667 147.991 55.16C147.778 55.48 147.511 55.7467 147.191 55.96C146.898 56.1733 146.565 56.3333 146.191 56.44C145.845 56.5467 145.458 56.6 145.031 56.6H144.991L144.951 56.56ZM144.951 49.44L144.991 49.4H145.031C145.458 49.4 145.845 49.4533 146.191 49.56C146.565 49.6667 146.898 49.8267 147.191 50.04C147.511 50.2533 147.778 50.52 147.991 50.84C148.205 51.1333 148.365 51.4667 148.471 51.84C148.578 52.1867 148.631 52.5733 148.631 53V53.04L148.591 53.08H144.951V49.44ZM145.111 49.44V53.08H141.471L141.431 53.04V53C141.431 52.5733 141.485 52.1867 141.591 51.84C141.698 51.4667 141.858 51.1333 142.071 50.84C142.285 50.52 142.551 50.2533 142.871 50.04C143.165 49.8267 143.485 49.6667 143.831 49.56C144.205 49.4533 144.605 49.4 145.031 49.4H145.071L145.111 49.44ZM145.111 52.56L145.071 52.6H145.031C144.605 52.6 144.205 52.5467 143.831 52.44C143.485 52.3333 143.165 52.1733 142.871 51.96C142.551 51.7467 142.285 51.4933 142.071 51.2C141.858 50.88 141.698 50.5467 141.591 50.2C141.485 49.8267 141.431 49.4267 141.431 49V48.96L141.471 48.92H145.111V52.56ZM144.951 52.56V48.92H148.591L148.631 48.96V49C148.631 49.4267 148.578 49.8267 148.471 50.2C148.365 50.5467 148.205 50.88 147.991 51.2C147.778 51.4933 147.511 51.7467 147.191 51.96C146.898 52.1733 146.565 52.3333 146.191 52.44C145.845 52.5467 145.458 52.6 145.031 52.6H144.991L144.951 52.56ZM144.951 45.44L144.991 45.4H145.031C145.458 45.4 145.845 45.4533 146.191 45.56C146.565 45.6667 146.898 45.8267 147.191 46.04C147.511 46.2533 147.778 46.52 147.991 46.84C148.205 47.1333 148.365 47.4667 148.471 47.84C148.578 48.1867 148.631 48.5733 148.631 49V49.04L148.591 49.08H144.951V45.44ZM145.111 45.44V49.08H141.471L141.431 49.04V49C141.431 48.5733 141.485 48.1867 141.591 47.84C141.698 47.4667 141.858 47.1333 142.071 46.84C142.285 46.52 142.551 46.2533 142.871 46.04C143.165 45.8267 143.485 45.6667 143.831 45.56C144.205 45.4533 144.605 45.4 145.031 45.4H145.071L145.111 45.44ZM145.111 48.56L145.071 48.6H145.031C144.605 48.6 144.205 48.5467 143.831 48.44C143.485 48.3333 143.165 48.1733 142.871 47.96C142.551 47.7467 142.285 47.4933 142.071 47.2C141.858 46.88 141.698 46.5467 141.591 46.2C141.485 45.8267 141.431 45.4267 141.431 45V44.96L141.471 44.92H145.111V48.56ZM144.951 48.56V44.92H148.591L148.631 44.96V45C148.631 45.4267 148.578 45.8267 148.471 46.2C148.365 46.5467 148.205 46.88 147.991 47.2C147.778 47.4933 147.511 47.7467 147.191 47.96C146.898 48.1733 146.565 48.3333 146.191 48.44C145.845 48.5467 145.458 48.6 145.031 48.6H144.991L144.951 48.56ZM144.951 41.44L144.991 41.4H145.031C145.458 41.4 145.845 41.4533 146.191 41.56C146.565 41.6667 146.898 41.8267 147.191 42.04C147.511 42.2533 147.778 42.52 147.991 42.84C148.205 43.1333 148.365 43.4667 148.471 43.84C148.578 44.1867 148.631 44.5733 148.631 45V45.04L148.591 45.08H144.951V41.44ZM145.111 41.44V45.08H141.471L141.431 45.04V45C141.431 44.5733 141.485 44.1867 141.591 43.84C141.698 43.4667 141.858 43.1333 142.071 42.84C142.285 42.52 142.551 42.2533 142.871 42.04C143.165 41.8267 143.485 41.6667 143.831 41.56C144.205 41.4533 144.605 41.4 145.031 41.4H145.071L145.111 41.44ZM145.111 44.56L145.071 44.6H145.031C144.605 44.6 144.205 44.5467 143.831 44.44C143.485 44.3333 143.165 44.1733 142.871 43.96C142.551 43.7467 142.285 43.4933 142.071 43.2C141.858 42.88 141.698 42.5467 141.591 42.2C141.485 41.8267 141.431 41.4267 141.431 41V40.96L141.471 40.92H145.111V44.56ZM144.951 44.56V40.92H148.591L148.631 40.96V41C148.631 41.4267 148.578 41.8267 148.471 42.2C148.365 42.5467 148.205 42.88 147.991 43.2C147.778 43.4933 147.511 43.7467 147.191 43.96C146.898 44.1733 146.565 44.3333 146.191 44.44C145.845 44.5467 145.458 44.6 145.031 44.6H144.991L144.951 44.56ZM144.951 37.44L144.991 37.4H145.031C145.458 37.4 145.845 37.4533 146.191 37.56C146.565 37.6667 146.898 37.8267 147.191 38.04C147.511 38.2533 147.778 38.52 147.991 38.84C148.205 39.1333 148.365 39.4667 148.471 39.84C148.578 40.1867 148.631 40.5733 148.631 41V41.04L148.591 41.08H144.951V37.44ZM145.111 37.44V41.08H141.471L141.431 41.04V41C141.431 40.5733 141.485 40.1867 141.591 39.84C141.698 39.4667 141.858 39.1333 142.071 38.84C142.285 38.52 142.551 38.2533 142.871 38.04C143.165 37.8267 143.485 37.6667 143.831 37.56C144.205 37.4533 144.605 37.4 145.031 37.4H145.071L145.111 37.44ZM145.111 40.56L145.071 40.6H145.031C144.605 40.6 144.205 40.5467 143.831 40.44C143.485 40.3333 143.165 40.1733 142.871 39.96C142.551 39.7467 142.285 39.4933 142.071 39.2C141.858 38.88 141.698 38.5467 141.591 38.2C141.485 37.8267 141.431 37.4267 141.431 37V36.96L141.471 36.92H145.111V40.56ZM144.951 40.56V36.92H148.591L148.631 36.96V37C148.631 37.4267 148.578 37.8267 148.471 38.2C148.365 38.5467 148.205 38.88 147.991 39.2C147.778 39.4933 147.511 39.7467 147.191 39.96C146.898 40.1733 146.565 40.3333 146.191 40.44C145.845 40.5467 145.458 40.6 145.031 40.6H144.991L144.951 40.56ZM144.951 33.44L144.991 33.4H145.031C145.458 33.4 145.845 33.4533 146.191 33.56C146.565 33.6667 146.898 33.8267 147.191 34.04C147.511 34.2533 147.778 34.52 147.991 34.84C148.205 35.1333 148.365 35.4667 148.471 35.84C148.578 36.1867 148.631 36.5733 148.631 37V37.04L148.591 37.08H144.951V33.44ZM145.111 33.44V37.08H141.471L141.431 37.04V37C141.431 36.5733 141.485 36.1867 141.591 35.84C141.698 35.4667 141.858 35.1333 142.071 34.84C142.285 34.52 142.551 34.2533 142.871 34.04C143.165 33.8267 143.485 33.6667 143.831 33.56C144.205 33.4533 144.605 33.4 145.031 33.4H145.071L145.111 33.44ZM145.111 36.56L145.071 36.6H145.031C144.605 36.6 144.205 36.5467 143.831 36.44C143.485 36.3333 143.165 36.1733 142.871 35.96C142.551 35.7467 142.285 35.4933 142.071 35.2C141.858 34.88 141.698 34.5467 141.591 34.2C141.485 33.8267 141.431 33.4267 141.431 33V32.96L141.471 32.92H145.111V36.56ZM144.951 36.56V32.92H148.591L148.631 32.96V33C148.631 33.4267 148.578 33.8267 148.471 34.2C148.365 34.5467 148.205 34.88 147.991 35.2C147.778 35.4933 147.511 35.7467 147.191 35.96C146.898 36.1733 146.565 36.3333 146.191 36.44C145.845 36.5467 145.458 36.6 145.031 36.6H144.991L144.951 36.56ZM144.951 29.44L144.991 29.4H145.031C145.458 29.4 145.845 29.4533 146.191 29.56C146.565 29.6667 146.898 29.8267 147.191 30.04C147.511 30.2533 147.778 30.52 147.991 30.84C148.205 31.1333 148.365 31.4667 148.471 31.84C148.578 32.1867 148.631 32.5733 148.631 33V33.04L148.591 33.08H144.951V29.44ZM145.111 29.44V33.08H141.471L141.431 33.04V33C141.431 32.5733 141.485 32.1867 141.591 31.84C141.698 31.4667 141.858 31.1333 142.071 30.84C142.285 30.52 142.551 30.2533 142.871 30.04C143.165 29.8267 143.485 29.6667 143.831 29.56C144.205 29.4533 144.605 29.4 145.031 29.4H145.071L145.111 29.44ZM149.111 48.56L149.071 48.6H149.031C148.605 48.6 148.205 48.5467 147.831 48.44C147.485 48.3333 147.151 48.1733 146.831 47.96C146.538 47.7467 146.285 47.4933 146.071 47.2C145.858 46.88 145.698 46.5467 145.591 46.2C145.485 45.8267 145.431 45.4267 145.431 45V44.96L145.471 44.92H149.111V48.56ZM148.951 48.56V44.92H152.591L152.631 44.96V45C152.631 45.4267 152.578 45.8267 152.471 46.2C152.365 46.5467 152.205 46.88 151.991 47.2C151.778 47.4933 151.511 47.7467 151.191 47.96C150.898 48.1733 150.565 48.3333 150.191 48.44C149.845 48.5467 149.458 48.6 149.031 48.6H148.991L148.951 48.56ZM148.951 41.44L148.991 41.4H149.031C149.458 41.4 149.845 41.4533 150.191 41.56C150.565 41.6667 150.898 41.8267 151.191 42.04C151.511 42.2533 151.778 42.52 151.991 42.84C152.205 43.1333 152.365 43.4667 152.471 43.84C152.578 44.1867 152.631 44.5733 152.631 45V45.04L152.591 45.08H148.951V41.44ZM149.111 41.44V45.08H145.471L145.431 45.04V45C145.431 44.5733 145.485 44.1867 145.591 43.84C145.698 43.4667 145.858 43.1333 146.071 42.84C146.285 42.52 146.538 42.2533 146.831 42.04C147.151 41.8267 147.485 41.6667 147.831 41.56C148.205 41.4533 148.605 41.4 149.031 41.4H149.071L149.111 41.44ZM153.111 48.56L153.071 48.6H153.031C152.605 48.6 152.205 48.5467 151.831 48.44C151.485 48.3333 151.151 48.1733 150.831 47.96C150.538 47.7467 150.285 47.4933 150.071 47.2C149.858 46.88 149.698 46.5467 149.591 46.2C149.485 45.8267 149.431 45.4267 149.431 45V44.96L149.471 44.92H153.111V48.56ZM152.951 48.56V44.92H156.591L156.631 44.96V45C156.631 45.4267 156.578 45.8267 156.471 46.2C156.365 46.5467 156.205 46.88 155.991 47.2C155.778 47.4933 155.511 47.7467 155.191 47.96C154.898 48.1733 154.565 48.3333 154.191 48.44C153.845 48.5467 153.458 48.6 153.031 48.6H152.991L152.951 48.56ZM152.951 41.44L152.991 41.4H153.031C153.458 41.4 153.845 41.4533 154.191 41.56C154.565 41.6667 154.898 41.8267 155.191 42.04C155.511 42.2533 155.778 42.52 155.991 42.84C156.205 43.1333 156.365 43.4667 156.471 43.84C156.578 44.1867 156.631 44.5733 156.631 45V45.04L156.591 45.08H152.951V41.44ZM153.111 41.44V45.08H149.471L149.431 45.04V45C149.431 44.5733 149.485 44.1867 149.591 43.84C149.698 43.4667 149.858 43.1333 150.071 42.84C150.285 42.52 150.538 42.2533 150.831 42.04C151.151 41.8267 151.485 41.6667 151.831 41.56C152.205 41.4533 152.605 41.4 153.031 41.4H153.071L153.111 41.44ZM157.111 52.56L157.071 52.6H157.031C156.605 52.6 156.205 52.5467 155.831 52.44C155.485 52.3333 155.151 52.1733 154.831 51.96C154.538 51.7467 154.285 51.4933 154.071 51.2C153.858 50.88 153.698 50.5467 153.591 50.2C153.485 49.8267 153.431 49.4267 153.431 49V48.96L153.471 48.92H157.111V52.56ZM156.951 52.56V48.92H160.591L160.631 48.96V49C160.631 49.4267 160.578 49.8267 160.471 50.2C160.365 50.5467 160.205 50.88 159.991 51.2C159.778 51.4933 159.511 51.7467 159.191 51.96C158.898 52.1733 158.565 52.3333 158.191 52.44C157.845 52.5467 157.458 52.6 157.031 52.6H156.991L156.951 52.56ZM156.951 45.44L156.991 45.4H157.031C157.458 45.4 157.845 45.4533 158.191 45.56C158.565 45.6667 158.898 45.8267 159.191 46.04C159.511 46.2533 159.778 46.52 159.991 46.84C160.205 47.1333 160.365 47.4667 160.471 47.84C160.578 48.1867 160.631 48.5733 160.631 49V49.04L160.591 49.08H156.951V45.44ZM157.111 45.44V49.08H153.471L153.431 49.04V49C153.431 48.5733 153.485 48.1867 153.591 47.84C153.698 47.4667 153.858 47.1333 154.071 46.84C154.285 46.52 154.538 46.2533 154.831 46.04C155.151 45.8267 155.485 45.6667 155.831 45.56C156.205 45.4533 156.605 45.4 157.031 45.4H157.071L157.111 45.44ZM157.111 44.56L157.071 44.6H157.031C156.605 44.6 156.205 44.5467 155.831 44.44C155.485 44.3333 155.151 44.1733 154.831 43.96C154.538 43.7467 154.285 43.4933 154.071 43.2C153.858 42.88 153.698 42.5467 153.591 42.2C153.485 41.8267 153.431 41.4267 153.431 41V40.96L153.471 40.92H157.111V44.56ZM156.951 44.56V40.92H160.591L160.631 40.96V41C160.631 41.4267 160.578 41.8267 160.471 42.2C160.365 42.5467 160.205 42.88 159.991 43.2C159.778 43.4933 159.511 43.7467 159.191 43.96C158.898 44.1733 158.565 44.3333 158.191 44.44C157.845 44.5467 157.458 44.6 157.031 44.6H156.991L156.951 44.56ZM156.951 37.44L156.991 37.4H157.031C157.458 37.4 157.845 37.4533 158.191 37.56C158.565 37.6667 158.898 37.8267 159.191 38.04C159.511 38.2533 159.778 38.52 159.991 38.84C160.205 39.1333 160.365 39.4667 160.471 39.84C160.578 40.1867 160.631 40.5733 160.631 41V41.04L160.591 41.08H156.951V37.44ZM157.111 37.44V41.08H153.471L153.431 41.04V41C153.431 40.5733 153.485 40.1867 153.591 39.84C153.698 39.4667 153.858 39.1333 154.071 38.84C154.285 38.52 154.538 38.2533 154.831 38.04C155.151 37.8267 155.485 37.6667 155.831 37.56C156.205 37.4533 156.605 37.4 157.031 37.4H157.071L157.111 37.44ZM161.111 56.56L161.071 56.6H161.031C160.605 56.6 160.205 56.5467 159.831 56.44C159.485 56.3333 159.151 56.1733 158.831 55.96C158.538 55.7467 158.285 55.48 158.071 55.16C157.858 54.8667 157.698 54.5467 157.591 54.2C157.485 53.8267 157.431 53.4267 157.431 53V52.96L157.471 52.92H161.111V56.56ZM160.951 56.56V52.92H164.591L164.631 52.96V53C164.631 53.4267 164.578 53.8267 164.471 54.2C164.365 54.5467 164.205 54.8667 163.991 55.16C163.778 55.48 163.511 55.7467 163.191 55.96C162.898 56.1733 162.565 56.3333 162.191 56.44C161.845 56.5467 161.458 56.6 161.031 56.6H160.991L160.951 56.56ZM160.951 49.44L160.991 49.4H161.031C161.458 49.4 161.845 49.4533 162.191 49.56C162.565 49.6667 162.898 49.8267 163.191 50.04C163.511 50.2533 163.778 50.52 163.991 50.84C164.205 51.1333 164.365 51.4667 164.471 51.84C164.578 52.1867 164.631 52.5733 164.631 53V53.04L164.591 53.08H160.951V49.44ZM161.111 49.44V53.08H157.471L157.431 53.04V53C157.431 52.5733 157.485 52.1867 157.591 51.84C157.698 51.4667 157.858 51.1333 158.071 50.84C158.285 50.52 158.538 50.2533 158.831 50.04C159.151 49.8267 159.485 49.6667 159.831 49.56C160.205 49.4533 160.605 49.4 161.031 49.4H161.071L161.111 49.44ZM161.111 40.56L161.071 40.6H161.031C160.605 40.6 160.205 40.5467 159.831 40.44C159.485 40.3333 159.151 40.1733 158.831 39.96C158.538 39.7467 158.285 39.4933 158.071 39.2C157.858 38.88 157.698 38.5467 157.591 38.2C157.485 37.8267 157.431 37.4267 157.431 37V36.96L157.471 36.92H161.111V40.56ZM160.951 40.56V36.92H164.591L164.631 36.96V37C164.631 37.4267 164.578 37.8267 164.471 38.2C164.365 38.5467 164.205 38.88 163.991 39.2C163.778 39.4933 163.511 39.7467 163.191 39.96C162.898 40.1733 162.565 40.3333 162.191 40.44C161.845 40.5467 161.458 40.6 161.031 40.6H160.991L160.951 40.56ZM160.951 33.44L160.991 33.4H161.031C161.458 33.4 161.845 33.4533 162.191 33.56C162.565 33.6667 162.898 33.8267 163.191 34.04C163.511 34.2533 163.778 34.52 163.991 34.84C164.205 35.1333 164.365 35.4667 164.471 35.84C164.578 36.1867 164.631 36.5733 164.631 37V37.04L164.591 37.08H160.951V33.44ZM161.111 33.44V37.08H157.471L157.431 37.04V37C157.431 36.5733 157.485 36.1867 157.591 35.84C157.698 35.4667 157.858 35.1333 158.071 34.84C158.285 34.52 158.538 34.2533 158.831 34.04C159.151 33.8267 159.485 33.6667 159.831 33.56C160.205 33.4533 160.605 33.4 161.031 33.4H161.071L161.111 33.44ZM171.096 56.56L171.056 56.6H171.016C170.589 56.6 170.189 56.5467 169.816 56.44C169.469 56.3333 169.149 56.1733 168.856 55.96C168.536 55.7467 168.269 55.48 168.056 55.16C167.842 54.8667 167.682 54.5467 167.576 54.2C167.469 53.8267 167.416 53.4267 167.416 53V52.96L167.456 52.92H171.096V56.56ZM170.936 56.56V52.92H174.576L174.616 52.96V53C174.616 53.4267 174.562 53.8267 174.456 54.2C174.349 54.5467 174.189 54.8667 173.976 55.16C173.762 55.48 173.496 55.7467 173.176 55.96C172.882 56.1733 172.549 56.3333 172.176 56.44C171.829 56.5467 171.442 56.6 171.016 56.6H170.976L170.936 56.56ZM170.936 49.44L170.976 49.4H171.016C171.442 49.4 171.829 49.4533 172.176 49.56C172.549 49.6667 172.882 49.8267 173.176 50.04C173.496 50.2533 173.762 50.52 173.976 50.84C174.189 51.1333 174.349 51.4667 174.456 51.84C174.562 52.1867 174.616 52.5733 174.616 53V53.04L174.576 53.08H170.936V49.44ZM171.096 49.44V53.08H167.456L167.416 53.04V53C167.416 52.5733 167.469 52.1867 167.576 51.84C167.682 51.4667 167.842 51.1333 168.056 50.84C168.269 50.52 168.536 50.2533 168.856 50.04C169.149 49.8267 169.469 49.6667 169.816 49.56C170.189 49.4533 170.589 49.4 171.016 49.4H171.056L171.096 49.44ZM171.096 44.56L171.056 44.6H171.016C170.589 44.6 170.189 44.5467 169.816 44.44C169.469 44.3333 169.149 44.1733 168.856 43.96C168.536 43.7467 168.269 43.4933 168.056 43.2C167.842 42.88 167.682 42.5467 167.576 42.2C167.469 41.8267 167.416 41.4267 167.416 41V40.96L167.456 40.92H171.096V44.56ZM170.936 44.56V40.92H174.576L174.616 40.96V41C174.616 41.4267 174.562 41.8267 174.456 42.2C174.349 42.5467 174.189 42.88 173.976 43.2C173.762 43.4933 173.496 43.7467 173.176 43.96C172.882 44.1733 172.549 44.3333 172.176 44.44C171.829 44.5467 171.442 44.6 171.016 44.6H170.976L170.936 44.56ZM170.936 37.44L170.976 37.4H171.016C171.442 37.4 171.829 37.4533 172.176 37.56C172.549 37.6667 172.882 37.8267 173.176 38.04C173.496 38.2533 173.762 38.52 173.976 38.84C174.189 39.1333 174.349 39.4667 174.456 39.84C174.562 40.1867 174.616 40.5733 174.616 41V41.04L174.576 41.08H170.936V37.44ZM171.096 37.44V41.08H167.456L167.416 41.04V41C167.416 40.5733 167.469 40.1867 167.576 39.84C167.682 39.4667 167.842 39.1333 168.056 38.84C168.269 38.52 168.536 38.2533 168.856 38.04C169.149 37.8267 169.469 37.6667 169.816 37.56C170.189 37.4533 170.589 37.4 171.016 37.4H171.056L171.096 37.44ZM175.096 56.56L175.056 56.6H175.016C174.589 56.6 174.189 56.5467 173.816 56.44C173.469 56.3333 173.136 56.1733 172.816 55.96C172.522 55.7467 172.269 55.48 172.056 55.16C171.842 54.8667 171.682 54.5467 171.576 54.2C171.469 53.8267 171.416 53.4267 171.416 53V52.96L171.456 52.92H175.096V56.56ZM174.936 56.56V52.92H178.576L178.616 52.96V53C178.616 53.4267 178.562 53.8267 178.456 54.2C178.349 54.5467 178.189 54.8667 177.976 55.16C177.762 55.48 177.496 55.7467 177.176 55.96C176.882 56.1733 176.549 56.3333 176.176 56.44C175.829 56.5467 175.442 56.6 175.016 56.6H174.976L174.936 56.56ZM174.936 49.44L174.976 49.4H175.016C175.442 49.4 175.829 49.4533 176.176 49.56C176.549 49.6667 176.882 49.8267 177.176 50.04C177.496 50.2533 177.762 50.52 177.976 50.84C178.189 51.1333 178.349 51.4667 178.456 51.84C178.562 52.1867 178.616 52.5733 178.616 53V53.04L178.576 53.08H174.936V49.44ZM175.096 49.44V53.08H171.456L171.416 53.04V53C171.416 52.5733 171.469 52.1867 171.576 51.84C171.682 51.4667 171.842 51.1333 172.056 50.84C172.269 50.52 172.522 50.2533 172.816 50.04C173.136 49.8267 173.469 49.6667 173.816 49.56C174.189 49.4533 174.589 49.4 175.016 49.4H175.056L175.096 49.44ZM175.096 44.56L175.056 44.6H175.016C174.589 44.6 174.189 44.5467 173.816 44.44C173.469 44.3333 173.136 44.1733 172.816 43.96C172.522 43.7467 172.269 43.4933 172.056 43.2C171.842 42.88 171.682 42.5467 171.576 42.2C171.469 41.8267 171.416 41.4267 171.416 41V40.96L171.456 40.92H175.096V44.56ZM174.936 44.56V40.92H178.576L178.616 40.96V41C178.616 41.4267 178.562 41.8267 178.456 42.2C178.349 42.5467 178.189 42.88 177.976 43.2C177.762 43.4933 177.496 43.7467 177.176 43.96C176.882 44.1733 176.549 44.3333 176.176 44.44C175.829 44.5467 175.442 44.6 175.016 44.6H174.976L174.936 44.56ZM174.936 37.44L174.976 37.4H175.016C175.442 37.4 175.829 37.4533 176.176 37.56C176.549 37.6667 176.882 37.8267 177.176 38.04C177.496 38.2533 177.762 38.52 177.976 38.84C178.189 39.1333 178.349 39.4667 178.456 39.84C178.562 40.1867 178.616 40.5733 178.616 41V41.04L178.576 41.08H174.936V37.44ZM175.096 37.44V41.08H171.456L171.416 41.04V41C171.416 40.5733 171.469 40.1867 171.576 39.84C171.682 39.4667 171.842 39.1333 172.056 38.84C172.269 38.52 172.522 38.2533 172.816 38.04C173.136 37.8267 173.469 37.6667 173.816 37.56C174.189 37.4533 174.589 37.4 175.016 37.4H175.056L175.096 37.44ZM179.096 56.56L179.056 56.6H179.016C178.589 56.6 178.189 56.5467 177.816 56.44C177.469 56.3333 177.136 56.1733 176.816 55.96C176.522 55.7467 176.269 55.48 176.056 55.16C175.842 54.8667 175.682 54.5467 175.576 54.2C175.469 53.8267 175.416 53.4267 175.416 53V52.96L175.456 52.92H179.096V56.56ZM178.936 56.56V52.92H182.576L182.616 52.96V53C182.616 53.4267 182.562 53.8267 182.456 54.2C182.349 54.5467 182.189 54.8667 181.976 55.16C181.762 55.48 181.496 55.7467 181.176 55.96C180.882 56.1733 180.549 56.3333 180.176 56.44C179.829 56.5467 179.442 56.6 179.016 56.6H178.976L178.936 56.56ZM178.936 49.44L178.976 49.4H179.016C179.442 49.4 179.829 49.4533 180.176 49.56C180.549 49.6667 180.882 49.8267 181.176 50.04C181.496 50.2533 181.762 50.52 181.976 50.84C182.189 51.1333 182.349 51.4667 182.456 51.84C182.562 52.1867 182.616 52.5733 182.616 53V53.04L182.576 53.08H178.936V49.44ZM179.096 49.44V53.08H175.456L175.416 53.04V53C175.416 52.5733 175.469 52.1867 175.576 51.84C175.682 51.4667 175.842 51.1333 176.056 50.84C176.269 50.52 176.522 50.2533 176.816 50.04C177.136 49.8267 177.469 49.6667 177.816 49.56C178.189 49.4533 178.589 49.4 179.016 49.4H179.056L179.096 49.44ZM179.096 52.56L179.056 52.6H179.016C178.589 52.6 178.189 52.5467 177.816 52.44C177.469 52.3333 177.136 52.1733 176.816 51.96C176.522 51.7467 176.269 51.4933 176.056 51.2C175.842 50.88 175.682 50.5467 175.576 50.2C175.469 49.8267 175.416 49.4267 175.416 49V48.96L175.456 48.92H179.096V52.56ZM178.936 52.56V48.92H182.576L182.616 48.96V49C182.616 49.4267 182.562 49.8267 182.456 50.2C182.349 50.5467 182.189 50.88 181.976 51.2C181.762 51.4933 181.496 51.7467 181.176 51.96C180.882 52.1733 180.549 52.3333 180.176 52.44C179.829 52.5467 179.442 52.6 179.016 52.6H178.976L178.936 52.56ZM178.936 45.44L178.976 45.4H179.016C179.442 45.4 179.829 45.4533 180.176 45.56C180.549 45.6667 180.882 45.8267 181.176 46.04C181.496 46.2533 181.762 46.52 181.976 46.84C182.189 47.1333 182.349 47.4667 182.456 47.84C182.562 48.1867 182.616 48.5733 182.616 49V49.04L182.576 49.08H178.936V45.44ZM179.096 45.44V49.08H175.456L175.416 49.04V49C175.416 48.5733 175.469 48.1867 175.576 47.84C175.682 47.4667 175.842 47.1333 176.056 46.84C176.269 46.52 176.522 46.2533 176.816 46.04C177.136 45.8267 177.469 45.6667 177.816 45.56C178.189 45.4533 178.589 45.4 179.016 45.4H179.056L179.096 45.44ZM179.096 48.56L179.056 48.6H179.016C178.589 48.6 178.189 48.5467 177.816 48.44C177.469 48.3333 177.136 48.1733 176.816 47.96C176.522 47.7467 176.269 47.4933 176.056 47.2C175.842 46.88 175.682 46.5467 175.576 46.2C175.469 45.8267 175.416 45.4267 175.416 45V44.96L175.456 44.92H179.096V48.56ZM178.936 48.56V44.92H182.576L182.616 44.96V45C182.616 45.4267 182.562 45.8267 182.456 46.2C182.349 46.5467 182.189 46.88 181.976 47.2C181.762 47.4933 181.496 47.7467 181.176 47.96C180.882 48.1733 180.549 48.3333 180.176 48.44C179.829 48.5467 179.442 48.6 179.016 48.6H178.976L178.936 48.56ZM178.936 41.44L178.976 41.4H179.016C179.442 41.4 179.829 41.4533 180.176 41.56C180.549 41.6667 180.882 41.8267 181.176 42.04C181.496 42.2533 181.762 42.52 181.976 42.84C182.189 43.1333 182.349 43.4667 182.456 43.84C182.562 44.1867 182.616 44.5733 182.616 45V45.04L182.576 45.08H178.936V41.44ZM179.096 41.44V45.08H175.456L175.416 45.04V45C175.416 44.5733 175.469 44.1867 175.576 43.84C175.682 43.4667 175.842 43.1333 176.056 42.84C176.269 42.52 176.522 42.2533 176.816 42.04C177.136 41.8267 177.469 41.6667 177.816 41.56C178.189 41.4533 178.589 41.4 179.016 41.4H179.056L179.096 41.44ZM179.096 44.56L179.056 44.6H179.016C178.589 44.6 178.189 44.5467 177.816 44.44C177.469 44.3333 177.136 44.1733 176.816 43.96C176.522 43.7467 176.269 43.4933 176.056 43.2C175.842 42.88 175.682 42.5467 175.576 42.2C175.469 41.8267 175.416 41.4267 175.416 41V40.96L175.456 40.92H179.096V44.56ZM178.936 44.56V40.92H182.576L182.616 40.96V41C182.616 41.4267 182.562 41.8267 182.456 42.2C182.349 42.5467 182.189 42.88 181.976 43.2C181.762 43.4933 181.496 43.7467 181.176 43.96C180.882 44.1733 180.549 44.3333 180.176 44.44C179.829 44.5467 179.442 44.6 179.016 44.6H178.976L178.936 44.56ZM178.936 37.44L178.976 37.4H179.016C179.442 37.4 179.829 37.4533 180.176 37.56C180.549 37.6667 180.882 37.8267 181.176 38.04C181.496 38.2533 181.762 38.52 181.976 38.84C182.189 39.1333 182.349 39.4667 182.456 39.84C182.562 40.1867 182.616 40.5733 182.616 41V41.04L182.576 41.08H178.936V37.44ZM179.096 37.44V41.08H175.456L175.416 41.04V41C175.416 40.5733 175.469 40.1867 175.576 39.84C175.682 39.4667 175.842 39.1333 176.056 38.84C176.269 38.52 176.522 38.2533 176.816 38.04C177.136 37.8267 177.469 37.6667 177.816 37.56C178.189 37.4533 178.589 37.4 179.016 37.4H179.056L179.096 37.44ZM179.096 36.56L179.056 36.6H179.016C178.589 36.6 178.189 36.5467 177.816 36.44C177.469 36.3333 177.136 36.1733 176.816 35.96C176.522 35.7467 176.269 35.4933 176.056 35.2C175.842 34.88 175.682 34.5467 175.576 34.2C175.469 33.8267 175.416 33.4267 175.416 33V32.96L175.456 32.92H179.096V36.56ZM178.936 36.56V32.92H182.576L182.616 32.96V33C182.616 33.4267 182.562 33.8267 182.456 34.2C182.349 34.5467 182.189 34.88 181.976 35.2C181.762 35.4933 181.496 35.7467 181.176 35.96C180.882 36.1733 180.549 36.3333 180.176 36.44C179.829 36.5467 179.442 36.6 179.016 36.6H178.976L178.936 36.56ZM178.936 29.44L178.976 29.4H179.016C179.442 29.4 179.829 29.4533 180.176 29.56C180.549 29.6667 180.882 29.8267 181.176 30.04C181.496 30.2533 181.762 30.52 181.976 30.84C182.189 31.1333 182.349 31.4667 182.456 31.84C182.562 32.1867 182.616 32.5733 182.616 33V33.04L182.576 33.08H178.936V29.44ZM179.096 29.44V33.08H175.456L175.416 33.04V33C175.416 32.5733 175.469 32.1867 175.576 31.84C175.682 31.4667 175.842 31.1333 176.056 30.84C176.269 30.52 176.522 30.2533 176.816 30.04C177.136 29.8267 177.469 29.6667 177.816 29.56C178.189 29.4533 178.589 29.4 179.016 29.4H179.056L179.096 29.44ZM183.096 56.56L183.056 56.6H183.016C182.589 56.6 182.189 56.5467 181.816 56.44C181.469 56.3333 181.136 56.1733 180.816 55.96C180.522 55.7467 180.269 55.48 180.056 55.16C179.842 54.8667 179.682 54.5467 179.576 54.2C179.469 53.8267 179.416 53.4267 179.416 53V52.96L179.456 52.92H183.096V56.56ZM182.936 56.56V52.92H186.576L186.616 52.96V53C186.616 53.4267 186.562 53.8267 186.456 54.2C186.349 54.5467 186.189 54.8667 185.976 55.16C185.762 55.48 185.496 55.7467 185.176 55.96C184.882 56.1733 184.549 56.3333 184.176 56.44C183.829 56.5467 183.442 56.6 183.016 56.6H182.976L182.936 56.56ZM182.936 49.44L182.976 49.4H183.016C183.442 49.4 183.829 49.4533 184.176 49.56C184.549 49.6667 184.882 49.8267 185.176 50.04C185.496 50.2533 185.762 50.52 185.976 50.84C186.189 51.1333 186.349 51.4667 186.456 51.84C186.562 52.1867 186.616 52.5733 186.616 53V53.04L186.576 53.08H182.936V49.44ZM183.096 49.44V53.08H179.456L179.416 53.04V53C179.416 52.5733 179.469 52.1867 179.576 51.84C179.682 51.4667 179.842 51.1333 180.056 50.84C180.269 50.52 180.522 50.2533 180.816 50.04C181.136 49.8267 181.469 49.6667 181.816 49.56C182.189 49.4533 182.589 49.4 183.016 49.4H183.056L183.096 49.44ZM187.096 56.56L187.056 56.6H187.016C186.589 56.6 186.189 56.5467 185.816 56.44C185.469 56.3333 185.136 56.1733 184.816 55.96C184.522 55.7467 184.269 55.48 184.056 55.16C183.842 54.8667 183.682 54.5467 183.576 54.2C183.469 53.8267 183.416 53.4267 183.416 53V52.96L183.456 52.92H187.096V56.56ZM186.936 56.56V52.92H190.576L190.616 52.96V53C190.616 53.4267 190.562 53.8267 190.456 54.2C190.349 54.5467 190.189 54.8667 189.976 55.16C189.762 55.48 189.496 55.7467 189.176 55.96C188.882 56.1733 188.549 56.3333 188.176 56.44C187.829 56.5467 187.442 56.6 187.016 56.6H186.976L186.936 56.56ZM186.936 49.44L186.976 49.4H187.016C187.442 49.4 187.829 49.4533 188.176 49.56C188.549 49.6667 188.882 49.8267 189.176 50.04C189.496 50.2533 189.762 50.52 189.976 50.84C190.189 51.1333 190.349 51.4667 190.456 51.84C190.562 52.1867 190.616 52.5733 190.616 53V53.04L190.576 53.08H186.936V49.44ZM187.096 49.44V53.08H183.456L183.416 53.04V53C183.416 52.5733 183.469 52.1867 183.576 51.84C183.682 51.4667 183.842 51.1333 184.056 50.84C184.269 50.52 184.522 50.2533 184.816 50.04C185.136 49.8267 185.469 49.6667 185.816 49.56C186.189 49.4533 186.589 49.4 187.016 49.4H187.056L187.096 49.44ZM197.08 56.56L197.04 56.6H197C196.573 56.6 196.173 56.5467 195.8 56.44C195.453 56.3333 195.133 56.1733 194.84 55.96C194.52 55.7467 194.253 55.48 194.04 55.16C193.827 54.8667 193.667 54.5467 193.56 54.2C193.453 53.8267 193.4 53.4267 193.4 53V52.96L193.44 52.92H197.08V56.56ZM196.92 56.56V52.92H200.56L200.6 52.96V53C200.6 53.4267 200.547 53.8267 200.44 54.2C200.333 54.5467 200.173 54.8667 199.96 55.16C199.747 55.48 199.48 55.7467 199.16 55.96C198.867 56.1733 198.533 56.3333 198.16 56.44C197.813 56.5467 197.427 56.6 197 56.6H196.96L196.92 56.56ZM196.92 49.44L196.96 49.4H197C197.427 49.4 197.813 49.4533 198.16 49.56C198.533 49.6667 198.867 49.8267 199.16 50.04C199.48 50.2533 199.747 50.52 199.96 50.84C200.173 51.1333 200.333 51.4667 200.44 51.84C200.547 52.1867 200.6 52.5733 200.6 53V53.04L200.56 53.08H196.92V49.44ZM197.08 49.44V53.08H193.44L193.4 53.04V53C193.4 52.5733 193.453 52.1867 193.56 51.84C193.667 51.4667 193.827 51.1333 194.04 50.84C194.253 50.52 194.52 50.2533 194.84 50.04C195.133 49.8267 195.453 49.6667 195.8 49.56C196.173 49.4533 196.573 49.4 197 49.4H197.04L197.08 49.44ZM197.08 36.56L197.04 36.6H197C196.573 36.6 196.173 36.5467 195.8 36.44C195.453 36.3333 195.133 36.1733 194.84 35.96C194.52 35.7467 194.253 35.4933 194.04 35.2C193.827 34.88 193.667 34.5467 193.56 34.2C193.453 33.8267 193.4 33.4267 193.4 33V32.96L193.44 32.92H197.08V36.56ZM196.92 36.56V32.92H200.56L200.6 32.96V33C200.6 33.4267 200.547 33.8267 200.44 34.2C200.333 34.5467 200.173 34.88 199.96 35.2C199.747 35.4933 199.48 35.7467 199.16 35.96C198.867 36.1733 198.533 36.3333 198.16 36.44C197.813 36.5467 197.427 36.6 197 36.6H196.96L196.92 36.56ZM196.92 29.44L196.96 29.4H197C197.427 29.4 197.813 29.4533 198.16 29.56C198.533 29.6667 198.867 29.8267 199.16 30.04C199.48 30.2533 199.747 30.52 199.96 30.84C200.173 31.1333 200.333 31.4667 200.44 31.84C200.547 32.1867 200.6 32.5733 200.6 33V33.04L200.56 33.08H196.92V29.44ZM197.08 29.44V33.08H193.44L193.4 33.04V33C193.4 32.5733 193.453 32.1867 193.56 31.84C193.667 31.4667 193.827 31.1333 194.04 30.84C194.253 30.52 194.52 30.2533 194.84 30.04C195.133 29.8267 195.453 29.6667 195.8 29.56C196.173 29.4533 196.573 29.4 197 29.4H197.04L197.08 29.44ZM201.08 56.56L201.04 56.6H201C200.573 56.6 200.173 56.5467 199.8 56.44C199.453 56.3333 199.12 56.1733 198.8 55.96C198.507 55.7467 198.253 55.48 198.04 55.16C197.827 54.8667 197.667 54.5467 197.56 54.2C197.453 53.8267 197.4 53.4267 197.4 53V52.96L197.44 52.92H201.08V56.56ZM200.92 56.56V52.92H204.56L204.6 52.96V53C204.6 53.4267 204.547 53.8267 204.44 54.2C204.333 54.5467 204.173 54.8667 203.96 55.16C203.747 55.48 203.48 55.7467 203.16 55.96C202.867 56.1733 202.533 56.3333 202.16 56.44C201.813 56.5467 201.427 56.6 201 56.6H200.96L200.92 56.56ZM200.92 49.44L200.96 49.4H201C201.427 49.4 201.813 49.4533 202.16 49.56C202.533 49.6667 202.867 49.8267 203.16 50.04C203.48 50.2533 203.747 50.52 203.96 50.84C204.173 51.1333 204.333 51.4667 204.44 51.84C204.547 52.1867 204.6 52.5733 204.6 53V53.04L204.56 53.08H200.92V49.44ZM201.08 49.44V53.08H197.44L197.4 53.04V53C197.4 52.5733 197.453 52.1867 197.56 51.84C197.667 51.4667 197.827 51.1333 198.04 50.84C198.253 50.52 198.507 50.2533 198.8 50.04C199.12 49.8267 199.453 49.6667 199.8 49.56C200.173 49.4533 200.573 49.4 201 49.4H201.04L201.08 49.44ZM201.08 36.56L201.04 36.6H201C200.573 36.6 200.173 36.5467 199.8 36.44C199.453 36.3333 199.12 36.1733 198.8 35.96C198.507 35.7467 198.253 35.4933 198.04 35.2C197.827 34.88 197.667 34.5467 197.56 34.2C197.453 33.8267 197.4 33.4267 197.4 33V32.96L197.44 32.92H201.08V36.56ZM200.92 36.56V32.92H204.56L204.6 32.96V33C204.6 33.4267 204.547 33.8267 204.44 34.2C204.333 34.5467 204.173 34.88 203.96 35.2C203.747 35.4933 203.48 35.7467 203.16 35.96C202.867 36.1733 202.533 36.3333 202.16 36.44C201.813 36.5467 201.427 36.6 201 36.6H200.96L200.92 36.56ZM200.92 29.44L200.96 29.4H201C201.427 29.4 201.813 29.4533 202.16 29.56C202.533 29.6667 202.867 29.8267 203.16 30.04C203.48 30.2533 203.747 30.52 203.96 30.84C204.173 31.1333 204.333 31.4667 204.44 31.84C204.547 32.1867 204.6 32.5733 204.6 33V33.04L204.56 33.08H200.92V29.44ZM201.08 29.44V33.08H197.44L197.4 33.04V33C197.4 32.5733 197.453 32.1867 197.56 31.84C197.667 31.4667 197.827 31.1333 198.04 30.84C198.253 30.52 198.507 30.2533 198.8 30.04C199.12 29.8267 199.453 29.6667 199.8 29.56C200.173 29.4533 200.573 29.4 201 29.4H201.04L201.08 29.44ZM205.08 56.56L205.04 56.6H205C204.573 56.6 204.173 56.5467 203.8 56.44C203.453 56.3333 203.12 56.1733 202.8 55.96C202.507 55.7467 202.253 55.48 202.04 55.16C201.827 54.8667 201.667 54.5467 201.56 54.2C201.453 53.8267 201.4 53.4267 201.4 53V52.96L201.44 52.92H205.08V56.56ZM204.92 56.56V52.92H208.56L208.6 52.96V53C208.6 53.4267 208.547 53.8267 208.44 54.2C208.333 54.5467 208.173 54.8667 207.96 55.16C207.747 55.48 207.48 55.7467 207.16 55.96C206.867 56.1733 206.533 56.3333 206.16 56.44C205.813 56.5467 205.427 56.6 205 56.6H204.96L204.92 56.56ZM204.92 49.44L204.96 49.4H205C205.427 49.4 205.813 49.4533 206.16 49.56C206.533 49.6667 206.867 49.8267 207.16 50.04C207.48 50.2533 207.747 50.52 207.96 50.84C208.173 51.1333 208.333 51.4667 208.44 51.84C208.547 52.1867 208.6 52.5733 208.6 53V53.04L208.56 53.08H204.92V49.44ZM205.08 49.44V53.08H201.44L201.4 53.04V53C201.4 52.5733 201.453 52.1867 201.56 51.84C201.667 51.4667 201.827 51.1333 202.04 50.84C202.253 50.52 202.507 50.2533 202.8 50.04C203.12 49.8267 203.453 49.6667 203.8 49.56C204.173 49.4533 204.573 49.4 205 49.4H205.04L205.08 49.44ZM205.08 52.56L205.04 52.6H205C204.573 52.6 204.173 52.5467 203.8 52.44C203.453 52.3333 203.12 52.1733 202.8 51.96C202.507 51.7467 202.253 51.4933 202.04 51.2C201.827 50.88 201.667 50.5467 201.56 50.2C201.453 49.8267 201.4 49.4267 201.4 49V48.96L201.44 48.92H205.08V52.56ZM204.92 52.56V48.92H208.56L208.6 48.96V49C208.6 49.4267 208.547 49.8267 208.44 50.2C208.333 50.5467 208.173 50.88 207.96 51.2C207.747 51.4933 207.48 51.7467 207.16 51.96C206.867 52.1733 206.533 52.3333 206.16 52.44C205.813 52.5467 205.427 52.6 205 52.6H204.96L204.92 52.56ZM204.92 45.44L204.96 45.4H205C205.427 45.4 205.813 45.4533 206.16 45.56C206.533 45.6667 206.867 45.8267 207.16 46.04C207.48 46.2533 207.747 46.52 207.96 46.84C208.173 47.1333 208.333 47.4667 208.44 47.84C208.547 48.1867 208.6 48.5733 208.6 49V49.04L208.56 49.08H204.92V45.44ZM205.08 45.44V49.08H201.44L201.4 49.04V49C201.4 48.5733 201.453 48.1867 201.56 47.84C201.667 47.4667 201.827 47.1333 202.04 46.84C202.253 46.52 202.507 46.2533 202.8 46.04C203.12 45.8267 203.453 45.6667 203.8 45.56C204.173 45.4533 204.573 45.4 205 45.4H205.04L205.08 45.44ZM205.08 48.56L205.04 48.6H205C204.573 48.6 204.173 48.5467 203.8 48.44C203.453 48.3333 203.12 48.1733 202.8 47.96C202.507 47.7467 202.253 47.4933 202.04 47.2C201.827 46.88 201.667 46.5467 201.56 46.2C201.453 45.8267 201.4 45.4267 201.4 45V44.96L201.44 44.92H205.08V48.56ZM204.92 48.56V44.92H208.56L208.6 44.96V45C208.6 45.4267 208.547 45.8267 208.44 46.2C208.333 46.5467 208.173 46.88 207.96 47.2C207.747 47.4933 207.48 47.7467 207.16 47.96C206.867 48.1733 206.533 48.3333 206.16 48.44C205.813 48.5467 205.427 48.6 205 48.6H204.96L204.92 48.56ZM204.92 41.44L204.96 41.4H205C205.427 41.4 205.813 41.4533 206.16 41.56C206.533 41.6667 206.867 41.8267 207.16 42.04C207.48 42.2533 207.747 42.52 207.96 42.84C208.173 43.1333 208.333 43.4667 208.44 43.84C208.547 44.1867 208.6 44.5733 208.6 45V45.04L208.56 45.08H204.92V41.44ZM205.08 41.44V45.08H201.44L201.4 45.04V45C201.4 44.5733 201.453 44.1867 201.56 43.84C201.667 43.4667 201.827 43.1333 202.04 42.84C202.253 42.52 202.507 42.2533 202.8 42.04C203.12 41.8267 203.453 41.6667 203.8 41.56C204.173 41.4533 204.573 41.4 205 41.4H205.04L205.08 41.44ZM205.08 44.56L205.04 44.6H205C204.573 44.6 204.173 44.5467 203.8 44.44C203.453 44.3333 203.12 44.1733 202.8 43.96C202.507 43.7467 202.253 43.4933 202.04 43.2C201.827 42.88 201.667 42.5467 201.56 42.2C201.453 41.8267 201.4 41.4267 201.4 41V40.96L201.44 40.92H205.08V44.56ZM204.92 44.56V40.92H208.56L208.6 40.96V41C208.6 41.4267 208.547 41.8267 208.44 42.2C208.333 42.5467 208.173 42.88 207.96 43.2C207.747 43.4933 207.48 43.7467 207.16 43.96C206.867 44.1733 206.533 44.3333 206.16 44.44C205.813 44.5467 205.427 44.6 205 44.6H204.96L204.92 44.56ZM204.92 37.44L204.96 37.4H205C205.427 37.4 205.813 37.4533 206.16 37.56C206.533 37.6667 206.867 37.8267 207.16 38.04C207.48 38.2533 207.747 38.52 207.96 38.84C208.173 39.1333 208.333 39.4667 208.44 39.84C208.547 40.1867 208.6 40.5733 208.6 41V41.04L208.56 41.08H204.92V37.44ZM205.08 37.44V41.08H201.44L201.4 41.04V41C201.4 40.5733 201.453 40.1867 201.56 39.84C201.667 39.4667 201.827 39.1333 202.04 38.84C202.253 38.52 202.507 38.2533 202.8 38.04C203.12 37.8267 203.453 37.6667 203.8 37.56C204.173 37.4533 204.573 37.4 205 37.4H205.04L205.08 37.44ZM205.08 40.56L205.04 40.6H205C204.573 40.6 204.173 40.5467 203.8 40.44C203.453 40.3333 203.12 40.1733 202.8 39.96C202.507 39.7467 202.253 39.4933 202.04 39.2C201.827 38.88 201.667 38.5467 201.56 38.2C201.453 37.8267 201.4 37.4267 201.4 37V36.96L201.44 36.92H205.08V40.56ZM204.92 40.56V36.92H208.56L208.6 36.96V37C208.6 37.4267 208.547 37.8267 208.44 38.2C208.333 38.5467 208.173 38.88 207.96 39.2C207.747 39.4933 207.48 39.7467 207.16 39.96C206.867 40.1733 206.533 40.3333 206.16 40.44C205.813 40.5467 205.427 40.6 205 40.6H204.96L204.92 40.56ZM204.92 33.44L204.96 33.4H205C205.427 33.4 205.813 33.4533 206.16 33.56C206.533 33.6667 206.867 33.8267 207.16 34.04C207.48 34.2533 207.747 34.52 207.96 34.84C208.173 35.1333 208.333 35.4667 208.44 35.84C208.547 36.1867 208.6 36.5733 208.6 37V37.04L208.56 37.08H204.92V33.44ZM205.08 33.44V37.08H201.44L201.4 37.04V37C201.4 36.5733 201.453 36.1867 201.56 35.84C201.667 35.4667 201.827 35.1333 202.04 34.84C202.253 34.52 202.507 34.2533 202.8 34.04C203.12 33.8267 203.453 33.6667 203.8 33.56C204.173 33.4533 204.573 33.4 205 33.4H205.04L205.08 33.44ZM205.08 36.56L205.04 36.6H205C204.573 36.6 204.173 36.5467 203.8 36.44C203.453 36.3333 203.12 36.1733 202.8 35.96C202.507 35.7467 202.253 35.4933 202.04 35.2C201.827 34.88 201.667 34.5467 201.56 34.2C201.453 33.8267 201.4 33.4267 201.4 33V32.96L201.44 32.92H205.08V36.56ZM204.92 36.56V32.92H208.56L208.6 32.96V33C208.6 33.4267 208.547 33.8267 208.44 34.2C208.333 34.5467 208.173 34.88 207.96 35.2C207.747 35.4933 207.48 35.7467 207.16 35.96C206.867 36.1733 206.533 36.3333 206.16 36.44C205.813 36.5467 205.427 36.6 205 36.6H204.96L204.92 36.56ZM204.92 29.44L204.96 29.4H205C205.427 29.4 205.813 29.4533 206.16 29.56C206.533 29.6667 206.867 29.8267 207.16 30.04C207.48 30.2533 207.747 30.52 207.96 30.84C208.173 31.1333 208.333 31.4667 208.44 31.84C208.547 32.1867 208.6 32.5733 208.6 33V33.04L208.56 33.08H204.92V29.44ZM205.08 29.44V33.08H201.44L201.4 33.04V33C201.4 32.5733 201.453 32.1867 201.56 31.84C201.667 31.4667 201.827 31.1333 202.04 30.84C202.253 30.52 202.507 30.2533 202.8 30.04C203.12 29.8267 203.453 29.6667 203.8 29.56C204.173 29.4533 204.573 29.4 205 29.4H205.04L205.08 29.44ZM209.08 56.56L209.04 56.6H209C208.573 56.6 208.173 56.5467 207.8 56.44C207.453 56.3333 207.12 56.1733 206.8 55.96C206.507 55.7467 206.253 55.48 206.04 55.16C205.827 54.8667 205.667 54.5467 205.56 54.2C205.453 53.8267 205.4 53.4267 205.4 53V52.96L205.44 52.92H209.08V56.56ZM208.92 56.56V52.92H212.56L212.6 52.96V53C212.6 53.4267 212.547 53.8267 212.44 54.2C212.333 54.5467 212.173 54.8667 211.96 55.16C211.747 55.48 211.48 55.7467 211.16 55.96C210.867 56.1733 210.533 56.3333 210.16 56.44C209.813 56.5467 209.427 56.6 209 56.6H208.96L208.92 56.56ZM208.92 49.44L208.96 49.4H209C209.427 49.4 209.813 49.4533 210.16 49.56C210.533 49.6667 210.867 49.8267 211.16 50.04C211.48 50.2533 211.747 50.52 211.96 50.84C212.173 51.1333 212.333 51.4667 212.44 51.84C212.547 52.1867 212.6 52.5733 212.6 53V53.04L212.56 53.08H208.92V49.44ZM209.08 49.44V53.08H205.44L205.4 53.04V53C205.4 52.5733 205.453 52.1867 205.56 51.84C205.667 51.4667 205.827 51.1333 206.04 50.84C206.253 50.52 206.507 50.2533 206.8 50.04C207.12 49.8267 207.453 49.6667 207.8 49.56C208.173 49.4533 208.573 49.4 209 49.4H209.04L209.08 49.44ZM213.08 56.56L213.04 56.6H213C212.573 56.6 212.173 56.5467 211.8 56.44C211.453 56.3333 211.12 56.1733 210.8 55.96C210.507 55.7467 210.253 55.48 210.04 55.16C209.827 54.8667 209.667 54.5467 209.56 54.2C209.453 53.8267 209.4 53.4267 209.4 53V52.96L209.44 52.92H213.08V56.56ZM212.92 56.56V52.92H216.56L216.6 52.96V53C216.6 53.4267 216.547 53.8267 216.44 54.2C216.333 54.5467 216.173 54.8667 215.96 55.16C215.747 55.48 215.48 55.7467 215.16 55.96C214.867 56.1733 214.533 56.3333 214.16 56.44C213.813 56.5467 213.427 56.6 213 56.6H212.96L212.92 56.56ZM212.92 49.44L212.96 49.4H213C213.427 49.4 213.813 49.4533 214.16 49.56C214.533 49.6667 214.867 49.8267 215.16 50.04C215.48 50.2533 215.747 50.52 215.96 50.84C216.173 51.1333 216.333 51.4667 216.44 51.84C216.547 52.1867 216.6 52.5733 216.6 53V53.04L216.56 53.08H212.92V49.44ZM213.08 49.44V53.08H209.44L209.4 53.04V53C209.4 52.5733 209.453 52.1867 209.56 51.84C209.667 51.4667 209.827 51.1333 210.04 50.84C210.253 50.52 210.507 50.2533 210.8 50.04C211.12 49.8267 211.453 49.6667 211.8 49.56C212.173 49.4533 212.573 49.4 213 49.4H213.04L213.08 49.44ZM223.064 56.56L223.024 56.6H222.984C222.558 56.6 222.158 56.5467 221.784 56.44C221.438 56.3333 221.118 56.1733 220.824 55.96C220.504 55.7467 220.238 55.48 220.024 55.16C219.811 54.8667 219.651 54.5467 219.544 54.2C219.438 53.8267 219.384 53.4267 219.384 53V52.96L219.424 52.92H223.064V56.56ZM222.904 56.56V52.92H226.544L226.584 52.96V53C226.584 53.4267 226.531 53.8267 226.424 54.2C226.318 54.5467 226.158 54.8667 225.944 55.16C225.731 55.48 225.464 55.7467 225.144 55.96C224.851 56.1733 224.518 56.3333 224.144 56.44C223.798 56.5467 223.411 56.6 222.984 56.6H222.944L222.904 56.56ZM222.904 49.44L222.944 49.4H222.984C223.411 49.4 223.798 49.4533 224.144 49.56C224.518 49.6667 224.851 49.8267 225.144 50.04C225.464 50.2533 225.731 50.52 225.944 50.84C226.158 51.1333 226.318 51.4667 226.424 51.84C226.531 52.1867 226.584 52.5733 226.584 53V53.04L226.544 53.08H222.904V49.44ZM223.064 49.44V53.08H219.424L219.384 53.04V53C219.384 52.5733 219.438 52.1867 219.544 51.84C219.651 51.4667 219.811 51.1333 220.024 50.84C220.238 50.52 220.504 50.2533 220.824 50.04C221.118 49.8267 221.438 49.6667 221.784 49.56C222.158 49.4533 222.558 49.4 222.984 49.4H223.024L223.064 49.44ZM223.064 36.56L223.024 36.6H222.984C222.558 36.6 222.158 36.5467 221.784 36.44C221.438 36.3333 221.118 36.1733 220.824 35.96C220.504 35.7467 220.238 35.4933 220.024 35.2C219.811 34.88 219.651 34.5467 219.544 34.2C219.438 33.8267 219.384 33.4267 219.384 33V32.96L219.424 32.92H223.064V36.56ZM222.904 36.56V32.92H226.544L226.584 32.96V33C226.584 33.4267 226.531 33.8267 226.424 34.2C226.318 34.5467 226.158 34.88 225.944 35.2C225.731 35.4933 225.464 35.7467 225.144 35.96C224.851 36.1733 224.518 36.3333 224.144 36.44C223.798 36.5467 223.411 36.6 222.984 36.6H222.944L222.904 36.56ZM222.904 29.44L222.944 29.4H222.984C223.411 29.4 223.798 29.4533 224.144 29.56C224.518 29.6667 224.851 29.8267 225.144 30.04C225.464 30.2533 225.731 30.52 225.944 30.84C226.158 31.1333 226.318 31.4667 226.424 31.84C226.531 32.1867 226.584 32.5733 226.584 33V33.04L226.544 33.08H222.904V29.44ZM223.064 29.44V33.08H219.424L219.384 33.04V33C219.384 32.5733 219.438 32.1867 219.544 31.84C219.651 31.4667 219.811 31.1333 220.024 30.84C220.238 30.52 220.504 30.2533 220.824 30.04C221.118 29.8267 221.438 29.6667 221.784 29.56C222.158 29.4533 222.558 29.4 222.984 29.4H223.024L223.064 29.44ZM227.064 56.56L227.024 56.6H226.984C226.558 56.6 226.158 56.5467 225.784 56.44C225.438 56.3333 225.104 56.1733 224.784 55.96C224.491 55.7467 224.238 55.48 224.024 55.16C223.811 54.8667 223.651 54.5467 223.544 54.2C223.438 53.8267 223.384 53.4267 223.384 53V52.96L223.424 52.92H227.064V56.56ZM226.904 56.56V52.92H230.544L230.584 52.96V53C230.584 53.4267 230.531 53.8267 230.424 54.2C230.318 54.5467 230.158 54.8667 229.944 55.16C229.731 55.48 229.464 55.7467 229.144 55.96C228.851 56.1733 228.518 56.3333 228.144 56.44C227.798 56.5467 227.411 56.6 226.984 56.6H226.944L226.904 56.56ZM226.904 49.44L226.944 49.4H226.984C227.411 49.4 227.798 49.4533 228.144 49.56C228.518 49.6667 228.851 49.8267 229.144 50.04C229.464 50.2533 229.731 50.52 229.944 50.84C230.158 51.1333 230.318 51.4667 230.424 51.84C230.531 52.1867 230.584 52.5733 230.584 53V53.04L230.544 53.08H226.904V49.44ZM227.064 49.44V53.08H223.424L223.384 53.04V53C223.384 52.5733 223.438 52.1867 223.544 51.84C223.651 51.4667 223.811 51.1333 224.024 50.84C224.238 50.52 224.491 50.2533 224.784 50.04C225.104 49.8267 225.438 49.6667 225.784 49.56C226.158 49.4533 226.558 49.4 226.984 49.4H227.024L227.064 49.44ZM227.064 36.56L227.024 36.6H226.984C226.558 36.6 226.158 36.5467 225.784 36.44C225.438 36.3333 225.104 36.1733 224.784 35.96C224.491 35.7467 224.238 35.4933 224.024 35.2C223.811 34.88 223.651 34.5467 223.544 34.2C223.438 33.8267 223.384 33.4267 223.384 33V32.96L223.424 32.92H227.064V36.56ZM226.904 36.56V32.92H230.544L230.584 32.96V33C230.584 33.4267 230.531 33.8267 230.424 34.2C230.318 34.5467 230.158 34.88 229.944 35.2C229.731 35.4933 229.464 35.7467 229.144 35.96C228.851 36.1733 228.518 36.3333 228.144 36.44C227.798 36.5467 227.411 36.6 226.984 36.6H226.944L226.904 36.56ZM226.904 29.44L226.944 29.4H226.984C227.411 29.4 227.798 29.4533 228.144 29.56C228.518 29.6667 228.851 29.8267 229.144 30.04C229.464 30.2533 229.731 30.52 229.944 30.84C230.158 31.1333 230.318 31.4667 230.424 31.84C230.531 32.1867 230.584 32.5733 230.584 33V33.04L230.544 33.08H226.904V29.44ZM227.064 29.44V33.08H223.424L223.384 33.04V33C223.384 32.5733 223.438 32.1867 223.544 31.84C223.651 31.4667 223.811 31.1333 224.024 30.84C224.238 30.52 224.491 30.2533 224.784 30.04C225.104 29.8267 225.438 29.6667 225.784 29.56C226.158 29.4533 226.558 29.4 226.984 29.4H227.024L227.064 29.44ZM231.064 56.56L231.024 56.6H230.984C230.558 56.6 230.158 56.5467 229.784 56.44C229.438 56.3333 229.104 56.1733 228.784 55.96C228.491 55.7467 228.238 55.48 228.024 55.16C227.811 54.8667 227.651 54.5467 227.544 54.2C227.438 53.8267 227.384 53.4267 227.384 53V52.96L227.424 52.92H231.064V56.56ZM230.904 56.56V52.92H234.544L234.584 52.96V53C234.584 53.4267 234.531 53.8267 234.424 54.2C234.318 54.5467 234.158 54.8667 233.944 55.16C233.731 55.48 233.464 55.7467 233.144 55.96C232.851 56.1733 232.518 56.3333 232.144 56.44C231.798 56.5467 231.411 56.6 230.984 56.6H230.944L230.904 56.56ZM230.904 49.44L230.944 49.4H230.984C231.411 49.4 231.798 49.4533 232.144 49.56C232.518 49.6667 232.851 49.8267 233.144 50.04C233.464 50.2533 233.731 50.52 233.944 50.84C234.158 51.1333 234.318 51.4667 234.424 51.84C234.531 52.1867 234.584 52.5733 234.584 53V53.04L234.544 53.08H230.904V49.44ZM231.064 49.44V53.08H227.424L227.384 53.04V53C227.384 52.5733 227.438 52.1867 227.544 51.84C227.651 51.4667 227.811 51.1333 228.024 50.84C228.238 50.52 228.491 50.2533 228.784 50.04C229.104 49.8267 229.438 49.6667 229.784 49.56C230.158 49.4533 230.558 49.4 230.984 49.4H231.024L231.064 49.44ZM231.064 52.56L231.024 52.6H230.984C230.558 52.6 230.158 52.5467 229.784 52.44C229.438 52.3333 229.104 52.1733 228.784 51.96C228.491 51.7467 228.238 51.4933 228.024 51.2C227.811 50.88 227.651 50.5467 227.544 50.2C227.438 49.8267 227.384 49.4267 227.384 49V48.96L227.424 48.92H231.064V52.56ZM230.904 52.56V48.92H234.544L234.584 48.96V49C234.584 49.4267 234.531 49.8267 234.424 50.2C234.318 50.5467 234.158 50.88 233.944 51.2C233.731 51.4933 233.464 51.7467 233.144 51.96C232.851 52.1733 232.518 52.3333 232.144 52.44C231.798 52.5467 231.411 52.6 230.984 52.6H230.944L230.904 52.56ZM230.904 45.44L230.944 45.4H230.984C231.411 45.4 231.798 45.4533 232.144 45.56C232.518 45.6667 232.851 45.8267 233.144 46.04C233.464 46.2533 233.731 46.52 233.944 46.84C234.158 47.1333 234.318 47.4667 234.424 47.84C234.531 48.1867 234.584 48.5733 234.584 49V49.04L234.544 49.08H230.904V45.44ZM231.064 45.44V49.08H227.424L227.384 49.04V49C227.384 48.5733 227.438 48.1867 227.544 47.84C227.651 47.4667 227.811 47.1333 228.024 46.84C228.238 46.52 228.491 46.2533 228.784 46.04C229.104 45.8267 229.438 45.6667 229.784 45.56C230.158 45.4533 230.558 45.4 230.984 45.4H231.024L231.064 45.44ZM231.064 48.56L231.024 48.6H230.984C230.558 48.6 230.158 48.5467 229.784 48.44C229.438 48.3333 229.104 48.1733 228.784 47.96C228.491 47.7467 228.238 47.4933 228.024 47.2C227.811 46.88 227.651 46.5467 227.544 46.2C227.438 45.8267 227.384 45.4267 227.384 45V44.96L227.424 44.92H231.064V48.56ZM230.904 48.56V44.92H234.544L234.584 44.96V45C234.584 45.4267 234.531 45.8267 234.424 46.2C234.318 46.5467 234.158 46.88 233.944 47.2C233.731 47.4933 233.464 47.7467 233.144 47.96C232.851 48.1733 232.518 48.3333 232.144 48.44C231.798 48.5467 231.411 48.6 230.984 48.6H230.944L230.904 48.56ZM230.904 41.44L230.944 41.4H230.984C231.411 41.4 231.798 41.4533 232.144 41.56C232.518 41.6667 232.851 41.8267 233.144 42.04C233.464 42.2533 233.731 42.52 233.944 42.84C234.158 43.1333 234.318 43.4667 234.424 43.84C234.531 44.1867 234.584 44.5733 234.584 45V45.04L234.544 45.08H230.904V41.44ZM231.064 41.44V45.08H227.424L227.384 45.04V45C227.384 44.5733 227.438 44.1867 227.544 43.84C227.651 43.4667 227.811 43.1333 228.024 42.84C228.238 42.52 228.491 42.2533 228.784 42.04C229.104 41.8267 229.438 41.6667 229.784 41.56C230.158 41.4533 230.558 41.4 230.984 41.4H231.024L231.064 41.44ZM231.064 44.56L231.024 44.6H230.984C230.558 44.6 230.158 44.5467 229.784 44.44C229.438 44.3333 229.104 44.1733 228.784 43.96C228.491 43.7467 228.238 43.4933 228.024 43.2C227.811 42.88 227.651 42.5467 227.544 42.2C227.438 41.8267 227.384 41.4267 227.384 41V40.96L227.424 40.92H231.064V44.56ZM230.904 44.56V40.92H234.544L234.584 40.96V41C234.584 41.4267 234.531 41.8267 234.424 42.2C234.318 42.5467 234.158 42.88 233.944 43.2C233.731 43.4933 233.464 43.7467 233.144 43.96C232.851 44.1733 232.518 44.3333 232.144 44.44C231.798 44.5467 231.411 44.6 230.984 44.6H230.944L230.904 44.56ZM230.904 37.44L230.944 37.4H230.984C231.411 37.4 231.798 37.4533 232.144 37.56C232.518 37.6667 232.851 37.8267 233.144 38.04C233.464 38.2533 233.731 38.52 233.944 38.84C234.158 39.1333 234.318 39.4667 234.424 39.84C234.531 40.1867 234.584 40.5733 234.584 41V41.04L234.544 41.08H230.904V37.44ZM231.064 37.44V41.08H227.424L227.384 41.04V41C227.384 40.5733 227.438 40.1867 227.544 39.84C227.651 39.4667 227.811 39.1333 228.024 38.84C228.238 38.52 228.491 38.2533 228.784 38.04C229.104 37.8267 229.438 37.6667 229.784 37.56C230.158 37.4533 230.558 37.4 230.984 37.4H231.024L231.064 37.44ZM231.064 40.56L231.024 40.6H230.984C230.558 40.6 230.158 40.5467 229.784 40.44C229.438 40.3333 229.104 40.1733 228.784 39.96C228.491 39.7467 228.238 39.4933 228.024 39.2C227.811 38.88 227.651 38.5467 227.544 38.2C227.438 37.8267 227.384 37.4267 227.384 37V36.96L227.424 36.92H231.064V40.56ZM230.904 40.56V36.92H234.544L234.584 36.96V37C234.584 37.4267 234.531 37.8267 234.424 38.2C234.318 38.5467 234.158 38.88 233.944 39.2C233.731 39.4933 233.464 39.7467 233.144 39.96C232.851 40.1733 232.518 40.3333 232.144 40.44C231.798 40.5467 231.411 40.6 230.984 40.6H230.944L230.904 40.56ZM230.904 33.44L230.944 33.4H230.984C231.411 33.4 231.798 33.4533 232.144 33.56C232.518 33.6667 232.851 33.8267 233.144 34.04C233.464 34.2533 233.731 34.52 233.944 34.84C234.158 35.1333 234.318 35.4667 234.424 35.84C234.531 36.1867 234.584 36.5733 234.584 37V37.04L234.544 37.08H230.904V33.44ZM231.064 33.44V37.08H227.424L227.384 37.04V37C227.384 36.5733 227.438 36.1867 227.544 35.84C227.651 35.4667 227.811 35.1333 228.024 34.84C228.238 34.52 228.491 34.2533 228.784 34.04C229.104 33.8267 229.438 33.6667 229.784 33.56C230.158 33.4533 230.558 33.4 230.984 33.4H231.024L231.064 33.44ZM231.064 36.56L231.024 36.6H230.984C230.558 36.6 230.158 36.5467 229.784 36.44C229.438 36.3333 229.104 36.1733 228.784 35.96C228.491 35.7467 228.238 35.4933 228.024 35.2C227.811 34.88 227.651 34.5467 227.544 34.2C227.438 33.8267 227.384 33.4267 227.384 33V32.96L227.424 32.92H231.064V36.56ZM230.904 36.56V32.92H234.544L234.584 32.96V33C234.584 33.4267 234.531 33.8267 234.424 34.2C234.318 34.5467 234.158 34.88 233.944 35.2C233.731 35.4933 233.464 35.7467 233.144 35.96C232.851 36.1733 232.518 36.3333 232.144 36.44C231.798 36.5467 231.411 36.6 230.984 36.6H230.944L230.904 36.56ZM230.904 29.44L230.944 29.4H230.984C231.411 29.4 231.798 29.4533 232.144 29.56C232.518 29.6667 232.851 29.8267 233.144 30.04C233.464 30.2533 233.731 30.52 233.944 30.84C234.158 31.1333 234.318 31.4667 234.424 31.84C234.531 32.1867 234.584 32.5733 234.584 33V33.04L234.544 33.08H230.904V29.44ZM231.064 29.44V33.08H227.424L227.384 33.04V33C227.384 32.5733 227.438 32.1867 227.544 31.84C227.651 31.4667 227.811 31.1333 228.024 30.84C228.238 30.52 228.491 30.2533 228.784 30.04C229.104 29.8267 229.438 29.6667 229.784 29.56C230.158 29.4533 230.558 29.4 230.984 29.4H231.024L231.064 29.44ZM235.064 56.56L235.024 56.6H234.984C234.558 56.6 234.158 56.5467 233.784 56.44C233.438 56.3333 233.104 56.1733 232.784 55.96C232.491 55.7467 232.238 55.48 232.024 55.16C231.811 54.8667 231.651 54.5467 231.544 54.2C231.438 53.8267 231.384 53.4267 231.384 53V52.96L231.424 52.92H235.064V56.56ZM234.904 56.56V52.92H238.544L238.584 52.96V53C238.584 53.4267 238.531 53.8267 238.424 54.2C238.318 54.5467 238.158 54.8667 237.944 55.16C237.731 55.48 237.464 55.7467 237.144 55.96C236.851 56.1733 236.518 56.3333 236.144 56.44C235.798 56.5467 235.411 56.6 234.984 56.6H234.944L234.904 56.56ZM234.904 49.44L234.944 49.4H234.984C235.411 49.4 235.798 49.4533 236.144 49.56C236.518 49.6667 236.851 49.8267 237.144 50.04C237.464 50.2533 237.731 50.52 237.944 50.84C238.158 51.1333 238.318 51.4667 238.424 51.84C238.531 52.1867 238.584 52.5733 238.584 53V53.04L238.544 53.08H234.904V49.44ZM235.064 49.44V53.08H231.424L231.384 53.04V53C231.384 52.5733 231.438 52.1867 231.544 51.84C231.651 51.4667 231.811 51.1333 232.024 50.84C232.238 50.52 232.491 50.2533 232.784 50.04C233.104 49.8267 233.438 49.6667 233.784 49.56C234.158 49.4533 234.558 49.4 234.984 49.4H235.024L235.064 49.44ZM239.064 56.56L239.024 56.6H238.984C238.558 56.6 238.158 56.5467 237.784 56.44C237.438 56.3333 237.104 56.1733 236.784 55.96C236.491 55.7467 236.238 55.48 236.024 55.16C235.811 54.8667 235.651 54.5467 235.544 54.2C235.438 53.8267 235.384 53.4267 235.384 53V52.96L235.424 52.92H239.064V56.56ZM238.904 56.56V52.92H242.544L242.584 52.96V53C242.584 53.4267 242.531 53.8267 242.424 54.2C242.318 54.5467 242.158 54.8667 241.944 55.16C241.731 55.48 241.464 55.7467 241.144 55.96C240.851 56.1733 240.518 56.3333 240.144 56.44C239.798 56.5467 239.411 56.6 238.984 56.6H238.944L238.904 56.56ZM238.904 49.44L238.944 49.4H238.984C239.411 49.4 239.798 49.4533 240.144 49.56C240.518 49.6667 240.851 49.8267 241.144 50.04C241.464 50.2533 241.731 50.52 241.944 50.84C242.158 51.1333 242.318 51.4667 242.424 51.84C242.531 52.1867 242.584 52.5733 242.584 53V53.04L242.544 53.08H238.904V49.44ZM239.064 49.44V53.08H235.424L235.384 53.04V53C235.384 52.5733 235.438 52.1867 235.544 51.84C235.651 51.4667 235.811 51.1333 236.024 50.84C236.238 50.52 236.491 50.2533 236.784 50.04C237.104 49.8267 237.438 49.6667 237.784 49.56C238.158 49.4533 238.558 49.4 238.984 49.4H239.024L239.064 49.44ZM249.049 56.56L249.009 56.6H248.969C248.542 56.6 248.142 56.5467 247.769 56.44C247.422 56.3333 247.102 56.1733 246.809 55.96C246.489 55.7467 246.222 55.48 246.009 55.16C245.795 54.8667 245.635 54.5467 245.529 54.2C245.422 53.8267 245.369 53.4267 245.369 53V52.96L245.409 52.92H249.049V56.56ZM248.889 56.56V52.92H252.529L252.569 52.96V53C252.569 53.4267 252.515 53.8267 252.409 54.2C252.302 54.5467 252.142 54.8667 251.929 55.16C251.715 55.48 251.449 55.7467 251.129 55.96C250.835 56.1733 250.502 56.3333 250.129 56.44C249.782 56.5467 249.395 56.6 248.969 56.6H248.929L248.889 56.56ZM248.889 49.44L248.929 49.4H248.969C249.395 49.4 249.782 49.4533 250.129 49.56C250.502 49.6667 250.835 49.8267 251.129 50.04C251.449 50.2533 251.715 50.52 251.929 50.84C252.142 51.1333 252.302 51.4667 252.409 51.84C252.515 52.1867 252.569 52.5733 252.569 53V53.04L252.529 53.08H248.889V49.44ZM249.049 49.44V53.08H245.409L245.369 53.04V53C245.369 52.5733 245.422 52.1867 245.529 51.84C245.635 51.4667 245.795 51.1333 246.009 50.84C246.222 50.52 246.489 50.2533 246.809 50.04C247.102 49.8267 247.422 49.6667 247.769 49.56C248.142 49.4533 248.542 49.4 248.969 49.4H249.009L249.049 49.44ZM249.049 44.56L249.009 44.6H248.969C248.542 44.6 248.142 44.5467 247.769 44.44C247.422 44.3333 247.102 44.1733 246.809 43.96C246.489 43.7467 246.222 43.4933 246.009 43.2C245.795 42.88 245.635 42.5467 245.529 42.2C245.422 41.8267 245.369 41.4267 245.369 41V40.96L245.409 40.92H249.049V44.56ZM248.889 44.56V40.92H252.529L252.569 40.96V41C252.569 41.4267 252.515 41.8267 252.409 42.2C252.302 42.5467 252.142 42.88 251.929 43.2C251.715 43.4933 251.449 43.7467 251.129 43.96C250.835 44.1733 250.502 44.3333 250.129 44.44C249.782 44.5467 249.395 44.6 248.969 44.6H248.929L248.889 44.56ZM248.889 37.44L248.929 37.4H248.969C249.395 37.4 249.782 37.4533 250.129 37.56C250.502 37.6667 250.835 37.8267 251.129 38.04C251.449 38.2533 251.715 38.52 251.929 38.84C252.142 39.1333 252.302 39.4667 252.409 39.84C252.515 40.1867 252.569 40.5733 252.569 41V41.04L252.529 41.08H248.889V37.44ZM249.049 37.44V41.08H245.409L245.369 41.04V41C245.369 40.5733 245.422 40.1867 245.529 39.84C245.635 39.4667 245.795 39.1333 246.009 38.84C246.222 38.52 246.489 38.2533 246.809 38.04C247.102 37.8267 247.422 37.6667 247.769 37.56C248.142 37.4533 248.542 37.4 248.969 37.4H249.009L249.049 37.44ZM253.049 56.56L253.009 56.6H252.969C252.542 56.6 252.142 56.5467 251.769 56.44C251.422 56.3333 251.089 56.1733 250.769 55.96C250.475 55.7467 250.222 55.48 250.009 55.16C249.795 54.8667 249.635 54.5467 249.529 54.2C249.422 53.8267 249.369 53.4267 249.369 53V52.96L249.409 52.92H253.049V56.56ZM252.889 56.56V52.92H256.529L256.569 52.96V53C256.569 53.4267 256.515 53.8267 256.409 54.2C256.302 54.5467 256.142 54.8667 255.929 55.16C255.715 55.48 255.449 55.7467 255.129 55.96C254.835 56.1733 254.502 56.3333 254.129 56.44C253.782 56.5467 253.395 56.6 252.969 56.6H252.929L252.889 56.56ZM252.889 49.44L252.929 49.4H252.969C253.395 49.4 253.782 49.4533 254.129 49.56C254.502 49.6667 254.835 49.8267 255.129 50.04C255.449 50.2533 255.715 50.52 255.929 50.84C256.142 51.1333 256.302 51.4667 256.409 51.84C256.515 52.1867 256.569 52.5733 256.569 53V53.04L256.529 53.08H252.889V49.44ZM253.049 49.44V53.08H249.409L249.369 53.04V53C249.369 52.5733 249.422 52.1867 249.529 51.84C249.635 51.4667 249.795 51.1333 250.009 50.84C250.222 50.52 250.475 50.2533 250.769 50.04C251.089 49.8267 251.422 49.6667 251.769 49.56C252.142 49.4533 252.542 49.4 252.969 49.4H253.009L253.049 49.44ZM253.049 48.56L253.009 48.6H252.969C252.542 48.6 252.142 48.5467 251.769 48.44C251.422 48.3333 251.089 48.1733 250.769 47.96C250.475 47.7467 250.222 47.4933 250.009 47.2C249.795 46.88 249.635 46.5467 249.529 46.2C249.422 45.8267 249.369 45.4267 249.369 45V44.96L249.409 44.92H253.049V48.56ZM252.889 48.56V44.92H256.529L256.569 44.96V45C256.569 45.4267 256.515 45.8267 256.409 46.2C256.302 46.5467 256.142 46.88 255.929 47.2C255.715 47.4933 255.449 47.7467 255.129 47.96C254.835 48.1733 254.502 48.3333 254.129 48.44C253.782 48.5467 253.395 48.6 252.969 48.6H252.929L252.889 48.56ZM252.889 41.44L252.929 41.4H252.969C253.395 41.4 253.782 41.4533 254.129 41.56C254.502 41.6667 254.835 41.8267 255.129 42.04C255.449 42.2533 255.715 42.52 255.929 42.84C256.142 43.1333 256.302 43.4667 256.409 43.84C256.515 44.1867 256.569 44.5733 256.569 45V45.04L256.529 45.08H252.889V41.44ZM253.049 41.44V45.08H249.409L249.369 45.04V45C249.369 44.5733 249.422 44.1867 249.529 43.84C249.635 43.4667 249.795 43.1333 250.009 42.84C250.222 42.52 250.475 42.2533 250.769 42.04C251.089 41.8267 251.422 41.6667 251.769 41.56C252.142 41.4533 252.542 41.4 252.969 41.4H253.009L253.049 41.44ZM253.049 40.56L253.009 40.6H252.969C252.542 40.6 252.142 40.5467 251.769 40.44C251.422 40.3333 251.089 40.1733 250.769 39.96C250.475 39.7467 250.222 39.4933 250.009 39.2C249.795 38.88 249.635 38.5467 249.529 38.2C249.422 37.8267 249.369 37.4267 249.369 37V36.96L249.409 36.92H253.049V40.56ZM252.889 40.56V36.92H256.529L256.569 36.96V37C256.569 37.4267 256.515 37.8267 256.409 38.2C256.302 38.5467 256.142 38.88 255.929 39.2C255.715 39.4933 255.449 39.7467 255.129 39.96C254.835 40.1733 254.502 40.3333 254.129 40.44C253.782 40.5467 253.395 40.6 252.969 40.6H252.929L252.889 40.56ZM252.889 33.44L252.929 33.4H252.969C253.395 33.4 253.782 33.4533 254.129 33.56C254.502 33.6667 254.835 33.8267 255.129 34.04C255.449 34.2533 255.715 34.52 255.929 34.84C256.142 35.1333 256.302 35.4667 256.409 35.84C256.515 36.1867 256.569 36.5733 256.569 37V37.04L256.529 37.08H252.889V33.44ZM253.049 33.44V37.08H249.409L249.369 37.04V37C249.369 36.5733 249.422 36.1867 249.529 35.84C249.635 35.4667 249.795 35.1333 250.009 34.84C250.222 34.52 250.475 34.2533 250.769 34.04C251.089 33.8267 251.422 33.6667 251.769 33.56C252.142 33.4533 252.542 33.4 252.969 33.4H253.009L253.049 33.44ZM257.049 56.56L257.009 56.6H256.969C256.542 56.6 256.142 56.5467 255.769 56.44C255.422 56.3333 255.089 56.1733 254.769 55.96C254.475 55.7467 254.222 55.48 254.009 55.16C253.795 54.8667 253.635 54.5467 253.529 54.2C253.422 53.8267 253.369 53.4267 253.369 53V52.96L253.409 52.92H257.049V56.56ZM256.889 56.56V52.92H260.529L260.569 52.96V53C260.569 53.4267 260.515 53.8267 260.409 54.2C260.302 54.5467 260.142 54.8667 259.929 55.16C259.715 55.48 259.449 55.7467 259.129 55.96C258.835 56.1733 258.502 56.3333 258.129 56.44C257.782 56.5467 257.395 56.6 256.969 56.6H256.929L256.889 56.56ZM256.889 49.44L256.929 49.4H256.969C257.395 49.4 257.782 49.4533 258.129 49.56C258.502 49.6667 258.835 49.8267 259.129 50.04C259.449 50.2533 259.715 50.52 259.929 50.84C260.142 51.1333 260.302 51.4667 260.409 51.84C260.515 52.1867 260.569 52.5733 260.569 53V53.04L260.529 53.08H256.889V49.44ZM257.049 49.44V53.08H253.409L253.369 53.04V53C253.369 52.5733 253.422 52.1867 253.529 51.84C253.635 51.4667 253.795 51.1333 254.009 50.84C254.222 50.52 254.475 50.2533 254.769 50.04C255.089 49.8267 255.422 49.6667 255.769 49.56C256.142 49.4533 256.542 49.4 256.969 49.4H257.009L257.049 49.44ZM257.049 48.56L257.009 48.6H256.969C256.542 48.6 256.142 48.5467 255.769 48.44C255.422 48.3333 255.089 48.1733 254.769 47.96C254.475 47.7467 254.222 47.4933 254.009 47.2C253.795 46.88 253.635 46.5467 253.529 46.2C253.422 45.8267 253.369 45.4267 253.369 45V44.96L253.409 44.92H257.049V48.56ZM256.889 48.56V44.92H260.529L260.569 44.96V45C260.569 45.4267 260.515 45.8267 260.409 46.2C260.302 46.5467 260.142 46.88 259.929 47.2C259.715 47.4933 259.449 47.7467 259.129 47.96C258.835 48.1733 258.502 48.3333 258.129 48.44C257.782 48.5467 257.395 48.6 256.969 48.6H256.929L256.889 48.56ZM256.889 41.44L256.929 41.4H256.969C257.395 41.4 257.782 41.4533 258.129 41.56C258.502 41.6667 258.835 41.8267 259.129 42.04C259.449 42.2533 259.715 42.52 259.929 42.84C260.142 43.1333 260.302 43.4667 260.409 43.84C260.515 44.1867 260.569 44.5733 260.569 45V45.04L260.529 45.08H256.889V41.44ZM257.049 41.44V45.08H253.409L253.369 45.04V45C253.369 44.5733 253.422 44.1867 253.529 43.84C253.635 43.4667 253.795 43.1333 254.009 42.84C254.222 42.52 254.475 42.2533 254.769 42.04C255.089 41.8267 255.422 41.6667 255.769 41.56C256.142 41.4533 256.542 41.4 256.969 41.4H257.009L257.049 41.44ZM257.049 40.56L257.009 40.6H256.969C256.542 40.6 256.142 40.5467 255.769 40.44C255.422 40.3333 255.089 40.1733 254.769 39.96C254.475 39.7467 254.222 39.4933 254.009 39.2C253.795 38.88 253.635 38.5467 253.529 38.2C253.422 37.8267 253.369 37.4267 253.369 37V36.96L253.409 36.92H257.049V40.56ZM256.889 40.56V36.92H260.529L260.569 36.96V37C260.569 37.4267 260.515 37.8267 260.409 38.2C260.302 38.5467 260.142 38.88 259.929 39.2C259.715 39.4933 259.449 39.7467 259.129 39.96C258.835 40.1733 258.502 40.3333 258.129 40.44C257.782 40.5467 257.395 40.6 256.969 40.6H256.929L256.889 40.56ZM256.889 33.44L256.929 33.4H256.969C257.395 33.4 257.782 33.4533 258.129 33.56C258.502 33.6667 258.835 33.8267 259.129 34.04C259.449 34.2533 259.715 34.52 259.929 34.84C260.142 35.1333 260.302 35.4667 260.409 35.84C260.515 36.1867 260.569 36.5733 260.569 37V37.04L260.529 37.08H256.889V33.44ZM257.049 33.44V37.08H253.409L253.369 37.04V37C253.369 36.5733 253.422 36.1867 253.529 35.84C253.635 35.4667 253.795 35.1333 254.009 34.84C254.222 34.52 254.475 34.2533 254.769 34.04C255.089 33.8267 255.422 33.6667 255.769 33.56C256.142 33.4533 256.542 33.4 256.969 33.4H257.009L257.049 33.44ZM261.049 56.56L261.009 56.6H260.969C260.542 56.6 260.142 56.5467 259.769 56.44C259.422 56.3333 259.089 56.1733 258.769 55.96C258.475 55.7467 258.222 55.48 258.009 55.16C257.795 54.8667 257.635 54.5467 257.529 54.2C257.422 53.8267 257.369 53.4267 257.369 53V52.96L257.409 52.92H261.049V56.56ZM260.889 56.56V52.92H264.529L264.569 52.96V53C264.569 53.4267 264.515 53.8267 264.409 54.2C264.302 54.5467 264.142 54.8667 263.929 55.16C263.715 55.48 263.449 55.7467 263.129 55.96C262.835 56.1733 262.502 56.3333 262.129 56.44C261.782 56.5467 261.395 56.6 260.969 56.6H260.929L260.889 56.56ZM260.889 49.44L260.929 49.4H260.969C261.395 49.4 261.782 49.4533 262.129 49.56C262.502 49.6667 262.835 49.8267 263.129 50.04C263.449 50.2533 263.715 50.52 263.929 50.84C264.142 51.1333 264.302 51.4667 264.409 51.84C264.515 52.1867 264.569 52.5733 264.569 53V53.04L264.529 53.08H260.889V49.44ZM261.049 49.44V53.08H257.409L257.369 53.04V53C257.369 52.5733 257.422 52.1867 257.529 51.84C257.635 51.4667 257.795 51.1333 258.009 50.84C258.222 50.52 258.475 50.2533 258.769 50.04C259.089 49.8267 259.422 49.6667 259.769 49.56C260.142 49.4533 260.542 49.4 260.969 49.4H261.009L261.049 49.44ZM261.049 48.56L261.009 48.6H260.969C260.542 48.6 260.142 48.5467 259.769 48.44C259.422 48.3333 259.089 48.1733 258.769 47.96C258.475 47.7467 258.222 47.4933 258.009 47.2C257.795 46.88 257.635 46.5467 257.529 46.2C257.422 45.8267 257.369 45.4267 257.369 45V44.96L257.409 44.92H261.049V48.56ZM260.889 48.56V44.92H264.529L264.569 44.96V45C264.569 45.4267 264.515 45.8267 264.409 46.2C264.302 46.5467 264.142 46.88 263.929 47.2C263.715 47.4933 263.449 47.7467 263.129 47.96C262.835 48.1733 262.502 48.3333 262.129 48.44C261.782 48.5467 261.395 48.6 260.969 48.6H260.929L260.889 48.56ZM260.889 41.44L260.929 41.4H260.969C261.395 41.4 261.782 41.4533 262.129 41.56C262.502 41.6667 262.835 41.8267 263.129 42.04C263.449 42.2533 263.715 42.52 263.929 42.84C264.142 43.1333 264.302 43.4667 264.409 43.84C264.515 44.1867 264.569 44.5733 264.569 45V45.04L264.529 45.08H260.889V41.44ZM261.049 41.44V45.08H257.409L257.369 45.04V45C257.369 44.5733 257.422 44.1867 257.529 43.84C257.635 43.4667 257.795 43.1333 258.009 42.84C258.222 42.52 258.475 42.2533 258.769 42.04C259.089 41.8267 259.422 41.6667 259.769 41.56C260.142 41.4533 260.542 41.4 260.969 41.4H261.009L261.049 41.44ZM261.049 40.56L261.009 40.6H260.969C260.542 40.6 260.142 40.5467 259.769 40.44C259.422 40.3333 259.089 40.1733 258.769 39.96C258.475 39.7467 258.222 39.4933 258.009 39.2C257.795 38.88 257.635 38.5467 257.529 38.2C257.422 37.8267 257.369 37.4267 257.369 37V36.96L257.409 36.92H261.049V40.56ZM260.889 40.56V36.92H264.529L264.569 36.96V37C264.569 37.4267 264.515 37.8267 264.409 38.2C264.302 38.5467 264.142 38.88 263.929 39.2C263.715 39.4933 263.449 39.7467 263.129 39.96C262.835 40.1733 262.502 40.3333 262.129 40.44C261.782 40.5467 261.395 40.6 260.969 40.6H260.929L260.889 40.56ZM260.889 33.44L260.929 33.4H260.969C261.395 33.4 261.782 33.4533 262.129 33.56C262.502 33.6667 262.835 33.8267 263.129 34.04C263.449 34.2533 263.715 34.52 263.929 34.84C264.142 35.1333 264.302 35.4667 264.409 35.84C264.515 36.1867 264.569 36.5733 264.569 37V37.04L264.529 37.08H260.889V33.44ZM261.049 33.44V37.08H257.409L257.369 37.04V37C257.369 36.5733 257.422 36.1867 257.529 35.84C257.635 35.4667 257.795 35.1333 258.009 34.84C258.222 34.52 258.475 34.2533 258.769 34.04C259.089 33.8267 259.422 33.6667 259.769 33.56C260.142 33.4533 260.542 33.4 260.969 33.4H261.009L261.049 33.44ZM265.049 52.56L265.009 52.6H264.969C264.542 52.6 264.142 52.5467 263.769 52.44C263.422 52.3333 263.089 52.1733 262.769 51.96C262.475 51.7467 262.222 51.4933 262.009 51.2C261.795 50.88 261.635 50.5467 261.529 50.2C261.422 49.8267 261.369 49.4267 261.369 49V48.96L261.409 48.92H265.049V52.56ZM264.889 52.56V48.92H268.529L268.569 48.96V49C268.569 49.4267 268.515 49.8267 268.409 50.2C268.302 50.5467 268.142 50.88 267.929 51.2C267.715 51.4933 267.449 51.7467 267.129 51.96C266.835 52.1733 266.502 52.3333 266.129 52.44C265.782 52.5467 265.395 52.6 264.969 52.6H264.929L264.889 52.56ZM264.889 45.44L264.929 45.4H264.969C265.395 45.4 265.782 45.4533 266.129 45.56C266.502 45.6667 266.835 45.8267 267.129 46.04C267.449 46.2533 267.715 46.52 267.929 46.84C268.142 47.1333 268.302 47.4667 268.409 47.84C268.515 48.1867 268.569 48.5733 268.569 49V49.04L268.529 49.08H264.889V45.44ZM265.049 45.44V49.08H261.409L261.369 49.04V49C261.369 48.5733 261.422 48.1867 261.529 47.84C261.635 47.4667 261.795 47.1333 262.009 46.84C262.222 46.52 262.475 46.2533 262.769 46.04C263.089 45.8267 263.422 45.6667 263.769 45.56C264.142 45.4533 264.542 45.4 264.969 45.4H265.009L265.049 45.44ZM265.049 40.56L265.009 40.6H264.969C264.542 40.6 264.142 40.5467 263.769 40.44C263.422 40.3333 263.089 40.1733 262.769 39.96C262.475 39.7467 262.222 39.4933 262.009 39.2C261.795 38.88 261.635 38.5467 261.529 38.2C261.422 37.8267 261.369 37.4267 261.369 37V36.96L261.409 36.92H265.049V40.56ZM264.889 40.56V36.92H268.529L268.569 36.96V37C268.569 37.4267 268.515 37.8267 268.409 38.2C268.302 38.5467 268.142 38.88 267.929 39.2C267.715 39.4933 267.449 39.7467 267.129 39.96C266.835 40.1733 266.502 40.3333 266.129 40.44C265.782 40.5467 265.395 40.6 264.969 40.6H264.929L264.889 40.56ZM264.889 33.44L264.929 33.4H264.969C265.395 33.4 265.782 33.4533 266.129 33.56C266.502 33.6667 266.835 33.8267 267.129 34.04C267.449 34.2533 267.715 34.52 267.929 34.84C268.142 35.1333 268.302 35.4667 268.409 35.84C268.515 36.1867 268.569 36.5733 268.569 37V37.04L268.529 37.08H264.889V33.44ZM265.049 33.44V37.08H261.409L261.369 37.04V37C261.369 36.5733 261.422 36.1867 261.529 35.84C261.635 35.4667 261.795 35.1333 262.009 34.84C262.222 34.52 262.475 34.2533 262.769 34.04C263.089 33.8267 263.422 33.6667 263.769 33.56C264.142 33.4533 264.542 33.4 264.969 33.4H265.009L265.049 33.44Z" fill="#656565"/>
</svg>
