<svg width="388" height="89" viewBox="0 0 388 89" fill="none" xmlns="http://www.w3.org/2000/svg">
<rect x="2" y="2" width="384" height="85" rx="6" fill="#CCE0FB" stroke="#9D9D9D" stroke-width="4"/>
<path d="M106.135 52.56L106.095 52.6H106.055C105.628 52.6 105.228 52.5467 104.855 52.44C104.508 52.3333 104.188 52.1733 103.895 51.96C103.575 51.7467 103.308 51.4933 103.095 51.2C102.881 50.88 102.721 50.5467 102.615 50.2C102.508 49.8267 102.455 49.4267 102.455 49V48.96L102.495 48.92H106.135V52.56ZM105.975 52.56V48.92H109.615L109.655 48.96V49C109.655 49.4267 109.601 49.8267 109.495 50.2C109.388 50.5467 109.228 50.88 109.015 51.2C108.801 51.4933 108.535 51.7467 108.215 51.96C107.921 52.1733 107.588 52.3333 107.215 52.44C106.868 52.5467 106.481 52.6 106.055 52.6H106.015L105.975 52.56ZM105.975 45.44L106.015 45.4H106.055C106.481 45.4 106.868 45.4533 107.215 45.56C107.588 45.6667 107.921 45.8267 108.215 46.04C108.535 46.2533 108.801 46.52 109.015 46.84C109.228 47.1333 109.388 47.4667 109.495 47.84C109.601 48.1867 109.655 48.5733 109.655 49V49.04L109.615 49.08H105.975V45.44ZM106.135 45.44V49.08H102.495L102.455 49.04V49C102.455 48.5733 102.508 48.1867 102.615 47.84C102.721 47.4667 102.881 47.1333 103.095 46.84C103.308 46.52 103.575 46.2533 103.895 46.04C104.188 45.8267 104.508 45.6667 104.855 45.56C105.228 45.4533 105.628 45.4 106.055 45.4H106.095L106.135 45.44ZM106.135 48.56L106.095 48.6H106.055C105.628 48.6 105.228 48.5467 104.855 48.44C104.508 48.3333 104.188 48.1733 103.895 47.96C103.575 47.7467 103.308 47.4933 103.095 47.2C102.881 46.88 102.721 46.5467 102.615 46.2C102.508 45.8267 102.455 45.4267 102.455 45V44.96L102.495 44.92H106.135V48.56ZM105.975 48.56V44.92H109.615L109.655 44.96V45C109.655 45.4267 109.601 45.8267 109.495 46.2C109.388 46.5467 109.228 46.88 109.015 47.2C108.801 47.4933 108.535 47.7467 108.215 47.96C107.921 48.1733 107.588 48.3333 107.215 48.44C106.868 48.5467 106.481 48.6 106.055 48.6H106.015L105.975 48.56ZM105.975 41.44L106.015 41.4H106.055C106.481 41.4 106.868 41.4533 107.215 41.56C107.588 41.6667 107.921 41.8267 108.215 42.04C108.535 42.2533 108.801 42.52 109.015 42.84C109.228 43.1333 109.388 43.4667 109.495 43.84C109.601 44.1867 109.655 44.5733 109.655 45V45.04L109.615 45.08H105.975V41.44ZM106.135 41.44V45.08H102.495L102.455 45.04V45C102.455 44.5733 102.508 44.1867 102.615 43.84C102.721 43.4667 102.881 43.1333 103.095 42.84C103.308 42.52 103.575 42.2533 103.895 42.04C104.188 41.8267 104.508 41.6667 104.855 41.56C105.228 41.4533 105.628 41.4 106.055 41.4H106.095L106.135 41.44ZM106.135 44.56L106.095 44.6H106.055C105.628 44.6 105.228 44.5467 104.855 44.44C104.508 44.3333 104.188 44.1733 103.895 43.96C103.575 43.7467 103.308 43.4933 103.095 43.2C102.881 42.88 102.721 42.5467 102.615 42.2C102.508 41.8267 102.455 41.4267 102.455 41V40.96L102.495 40.92H106.135V44.56ZM105.975 44.56V40.92H109.615L109.655 40.96V41C109.655 41.4267 109.601 41.8267 109.495 42.2C109.388 42.5467 109.228 42.88 109.015 43.2C108.801 43.4933 108.535 43.7467 108.215 43.96C107.921 44.1733 107.588 44.3333 107.215 44.44C106.868 44.5467 106.481 44.6 106.055 44.6H106.015L105.975 44.56ZM105.975 37.44L106.015 37.4H106.055C106.481 37.4 106.868 37.4533 107.215 37.56C107.588 37.6667 107.921 37.8267 108.215 38.04C108.535 38.2533 108.801 38.52 109.015 38.84C109.228 39.1333 109.388 39.4667 109.495 39.84C109.601 40.1867 109.655 40.5733 109.655 41V41.04L109.615 41.08H105.975V37.44ZM106.135 37.44V41.08H102.495L102.455 41.04V41C102.455 40.5733 102.508 40.1867 102.615 39.84C102.721 39.4667 102.881 39.1333 103.095 38.84C103.308 38.52 103.575 38.2533 103.895 38.04C104.188 37.8267 104.508 37.6667 104.855 37.56C105.228 37.4533 105.628 37.4 106.055 37.4H106.095L106.135 37.44ZM110.135 56.56L110.095 56.6H110.055C109.628 56.6 109.228 56.5467 108.855 56.44C108.508 56.3333 108.175 56.1733 107.855 55.96C107.561 55.7467 107.308 55.48 107.095 55.16C106.881 54.8667 106.721 54.5467 106.615 54.2C106.508 53.8267 106.455 53.4267 106.455 53V52.96L106.495 52.92H110.135V56.56ZM109.975 56.56V52.92H113.615L113.655 52.96V53C113.655 53.4267 113.601 53.8267 113.495 54.2C113.388 54.5467 113.228 54.8667 113.015 55.16C112.801 55.48 112.535 55.7467 112.215 55.96C111.921 56.1733 111.588 56.3333 111.215 56.44C110.868 56.5467 110.481 56.6 110.055 56.6H110.015L109.975 56.56ZM109.975 49.44L110.015 49.4H110.055C110.481 49.4 110.868 49.4533 111.215 49.56C111.588 49.6667 111.921 49.8267 112.215 50.04C112.535 50.2533 112.801 50.52 113.015 50.84C113.228 51.1333 113.388 51.4667 113.495 51.84C113.601 52.1867 113.655 52.5733 113.655 53V53.04L113.615 53.08H109.975V49.44ZM110.135 49.44V53.08H106.495L106.455 53.04V53C106.455 52.5733 106.508 52.1867 106.615 51.84C106.721 51.4667 106.881 51.1333 107.095 50.84C107.308 50.52 107.561 50.2533 107.855 50.04C108.175 49.8267 108.508 49.6667 108.855 49.56C109.228 49.4533 109.628 49.4 110.055 49.4H110.095L110.135 49.44ZM110.135 40.56L110.095 40.6H110.055C109.628 40.6 109.228 40.5467 108.855 40.44C108.508 40.3333 108.175 40.1733 107.855 39.96C107.561 39.7467 107.308 39.4933 107.095 39.2C106.881 38.88 106.721 38.5467 106.615 38.2C106.508 37.8267 106.455 37.4267 106.455 37V36.96L106.495 36.92H110.135V40.56ZM109.975 40.56V36.92H113.615L113.655 36.96V37C113.655 37.4267 113.601 37.8267 113.495 38.2C113.388 38.5467 113.228 38.88 113.015 39.2C112.801 39.4933 112.535 39.7467 112.215 39.96C111.921 40.1733 111.588 40.3333 111.215 40.44C110.868 40.5467 110.481 40.6 110.055 40.6H110.015L109.975 40.56ZM109.975 33.44L110.015 33.4H110.055C110.481 33.4 110.868 33.4533 111.215 33.56C111.588 33.6667 111.921 33.8267 112.215 34.04C112.535 34.2533 112.801 34.52 113.015 34.84C113.228 35.1333 113.388 35.4667 113.495 35.84C113.601 36.1867 113.655 36.5733 113.655 37V37.04L113.615 37.08H109.975V33.44ZM110.135 33.44V37.08H106.495L106.455 37.04V37C106.455 36.5733 106.508 36.1867 106.615 35.84C106.721 35.4667 106.881 35.1333 107.095 34.84C107.308 34.52 107.561 34.2533 107.855 34.04C108.175 33.8267 108.508 33.6667 108.855 33.56C109.228 33.4533 109.628 33.4 110.055 33.4H110.095L110.135 33.44ZM114.135 56.56L114.095 56.6H114.055C113.628 56.6 113.228 56.5467 112.855 56.44C112.508 56.3333 112.175 56.1733 111.855 55.96C111.561 55.7467 111.308 55.48 111.095 55.16C110.881 54.8667 110.721 54.5467 110.615 54.2C110.508 53.8267 110.455 53.4267 110.455 53V52.96L110.495 52.92H114.135V56.56ZM113.975 56.56V52.92H117.615L117.655 52.96V53C117.655 53.4267 117.601 53.8267 117.495 54.2C117.388 54.5467 117.228 54.8667 117.015 55.16C116.801 55.48 116.535 55.7467 116.215 55.96C115.921 56.1733 115.588 56.3333 115.215 56.44C114.868 56.5467 114.481 56.6 114.055 56.6H114.015L113.975 56.56ZM113.975 49.44L114.015 49.4H114.055C114.481 49.4 114.868 49.4533 115.215 49.56C115.588 49.6667 115.921 49.8267 116.215 50.04C116.535 50.2533 116.801 50.52 117.015 50.84C117.228 51.1333 117.388 51.4667 117.495 51.84C117.601 52.1867 117.655 52.5733 117.655 53V53.04L117.615 53.08H113.975V49.44ZM114.135 49.44V53.08H110.495L110.455 53.04V53C110.455 52.5733 110.508 52.1867 110.615 51.84C110.721 51.4667 110.881 51.1333 111.095 50.84C111.308 50.52 111.561 50.2533 111.855 50.04C112.175 49.8267 112.508 49.6667 112.855 49.56C113.228 49.4533 113.628 49.4 114.055 49.4H114.095L114.135 49.44ZM114.135 40.56L114.095 40.6H114.055C113.628 40.6 113.228 40.5467 112.855 40.44C112.508 40.3333 112.175 40.1733 111.855 39.96C111.561 39.7467 111.308 39.4933 111.095 39.2C110.881 38.88 110.721 38.5467 110.615 38.2C110.508 37.8267 110.455 37.4267 110.455 37V36.96L110.495 36.92H114.135V40.56ZM113.975 40.56V36.92H117.615L117.655 36.96V37C117.655 37.4267 117.601 37.8267 117.495 38.2C117.388 38.5467 117.228 38.88 117.015 39.2C116.801 39.4933 116.535 39.7467 116.215 39.96C115.921 40.1733 115.588 40.3333 115.215 40.44C114.868 40.5467 114.481 40.6 114.055 40.6H114.015L113.975 40.56ZM113.975 33.44L114.015 33.4H114.055C114.481 33.4 114.868 33.4533 115.215 33.56C115.588 33.6667 115.921 33.8267 116.215 34.04C116.535 34.2533 116.801 34.52 117.015 34.84C117.228 35.1333 117.388 35.4667 117.495 35.84C117.601 36.1867 117.655 36.5733 117.655 37V37.04L117.615 37.08H113.975V33.44ZM114.135 33.44V37.08H110.495L110.455 37.04V37C110.455 36.5733 110.508 36.1867 110.615 35.84C110.721 35.4667 110.881 35.1333 111.095 34.84C111.308 34.52 111.561 34.2533 111.855 34.04C112.175 33.8267 112.508 33.6667 112.855 33.56C113.228 33.4533 113.628 33.4 114.055 33.4H114.095L114.135 33.44ZM118.135 56.56L118.095 56.6H118.055C117.628 56.6 117.228 56.5467 116.855 56.44C116.508 56.3333 116.175 56.1733 115.855 55.96C115.561 55.7467 115.308 55.48 115.095 55.16C114.881 54.8667 114.721 54.5467 114.615 54.2C114.508 53.8267 114.455 53.4267 114.455 53V52.96L114.495 52.92H118.135V56.56ZM117.975 56.56V52.92H121.615L121.655 52.96V53C121.655 53.4267 121.601 53.8267 121.495 54.2C121.388 54.5467 121.228 54.8667 121.015 55.16C120.801 55.48 120.535 55.7467 120.215 55.96C119.921 56.1733 119.588 56.3333 119.215 56.44C118.868 56.5467 118.481 56.6 118.055 56.6H118.015L117.975 56.56ZM117.975 49.44L118.015 49.4H118.055C118.481 49.4 118.868 49.4533 119.215 49.56C119.588 49.6667 119.921 49.8267 120.215 50.04C120.535 50.2533 120.801 50.52 121.015 50.84C121.228 51.1333 121.388 51.4667 121.495 51.84C121.601 52.1867 121.655 52.5733 121.655 53V53.04L121.615 53.08H117.975V49.44ZM118.135 49.44V53.08H114.495L114.455 53.04V53C114.455 52.5733 114.508 52.1867 114.615 51.84C114.721 51.4667 114.881 51.1333 115.095 50.84C115.308 50.52 115.561 50.2533 115.855 50.04C116.175 49.8267 116.508 49.6667 116.855 49.56C117.228 49.4533 117.628 49.4 118.055 49.4H118.095L118.135 49.44ZM118.135 40.56L118.095 40.6H118.055C117.628 40.6 117.228 40.5467 116.855 40.44C116.508 40.3333 116.175 40.1733 115.855 39.96C115.561 39.7467 115.308 39.4933 115.095 39.2C114.881 38.88 114.721 38.5467 114.615 38.2C114.508 37.8267 114.455 37.4267 114.455 37V36.96L114.495 36.92H118.135V40.56ZM117.975 40.56V36.92H121.615L121.655 36.96V37C121.655 37.4267 121.601 37.8267 121.495 38.2C121.388 38.5467 121.228 38.88 121.015 39.2C120.801 39.4933 120.535 39.7467 120.215 39.96C119.921 40.1733 119.588 40.3333 119.215 40.44C118.868 40.5467 118.481 40.6 118.055 40.6H118.015L117.975 40.56ZM117.975 33.44L118.015 33.4H118.055C118.481 33.4 118.868 33.4533 119.215 33.56C119.588 33.6667 119.921 33.8267 120.215 34.04C120.535 34.2533 120.801 34.52 121.015 34.84C121.228 35.1333 121.388 35.4667 121.495 35.84C121.601 36.1867 121.655 36.5733 121.655 37V37.04L121.615 37.08H117.975V33.44ZM118.135 33.44V37.08H114.495L114.455 37.04V37C114.455 36.5733 114.508 36.1867 114.615 35.84C114.721 35.4667 114.881 35.1333 115.095 34.84C115.308 34.52 115.561 34.2533 115.855 34.04C116.175 33.8267 116.508 33.6667 116.855 33.56C117.228 33.4533 117.628 33.4 118.055 33.4H118.095L118.135 33.44ZM122.135 52.56L122.095 52.6H122.055C121.628 52.6 121.228 52.5467 120.855 52.44C120.508 52.3333 120.175 52.1733 119.855 51.96C119.561 51.7467 119.308 51.4933 119.095 51.2C118.881 50.88 118.721 50.5467 118.615 50.2C118.508 49.8267 118.455 49.4267 118.455 49V48.96L118.495 48.92H122.135V52.56ZM121.975 52.56V48.92H125.615L125.655 48.96V49C125.655 49.4267 125.601 49.8267 125.495 50.2C125.388 50.5467 125.228 50.88 125.015 51.2C124.801 51.4933 124.535 51.7467 124.215 51.96C123.921 52.1733 123.588 52.3333 123.215 52.44C122.868 52.5467 122.481 52.6 122.055 52.6H122.015L121.975 52.56ZM121.975 45.44L122.015 45.4H122.055C122.481 45.4 122.868 45.4533 123.215 45.56C123.588 45.6667 123.921 45.8267 124.215 46.04C124.535 46.2533 124.801 46.52 125.015 46.84C125.228 47.1333 125.388 47.4667 125.495 47.84C125.601 48.1867 125.655 48.5733 125.655 49V49.04L125.615 49.08H121.975V45.44ZM122.135 45.44V49.08H118.495L118.455 49.04V49C118.455 48.5733 118.508 48.1867 118.615 47.84C118.721 47.4667 118.881 47.1333 119.095 46.84C119.308 46.52 119.561 46.2533 119.855 46.04C120.175 45.8267 120.508 45.6667 120.855 45.56C121.228 45.4533 121.628 45.4 122.055 45.4H122.095L122.135 45.44ZM122.135 40.56L122.095 40.6H122.055C121.628 40.6 121.228 40.5467 120.855 40.44C120.508 40.3333 120.175 40.1733 119.855 39.96C119.561 39.7467 119.308 39.4933 119.095 39.2C118.881 38.88 118.721 38.5467 118.615 38.2C118.508 37.8267 118.455 37.4267 118.455 37V36.96L118.495 36.92H122.135V40.56ZM121.975 40.56V36.92H125.615L125.655 36.96V37C125.655 37.4267 125.601 37.8267 125.495 38.2C125.388 38.5467 125.228 38.88 125.015 39.2C124.801 39.4933 124.535 39.7467 124.215 39.96C123.921 40.1733 123.588 40.3333 123.215 40.44C122.868 40.5467 122.481 40.6 122.055 40.6H122.015L121.975 40.56ZM121.975 33.44L122.015 33.4H122.055C122.481 33.4 122.868 33.4533 123.215 33.56C123.588 33.6667 123.921 33.8267 124.215 34.04C124.535 34.2533 124.801 34.52 125.015 34.84C125.228 35.1333 125.388 35.4667 125.495 35.84C125.601 36.1867 125.655 36.5733 125.655 37V37.04L125.615 37.08H121.975V33.44ZM122.135 33.44V37.08H118.495L118.455 37.04V37C118.455 36.5733 118.508 36.1867 118.615 35.84C118.721 35.4667 118.881 35.1333 119.095 34.84C119.308 34.52 119.561 34.2533 119.855 34.04C120.175 33.8267 120.508 33.6667 120.855 33.56C121.228 33.4533 121.628 33.4 122.055 33.4H122.095L122.135 33.44ZM132.119 52.56L132.079 52.6H132.039C131.612 52.6 131.212 52.5467 130.839 52.44C130.492 52.3333 130.172 52.1733 129.879 51.96C129.559 51.7467 129.292 51.4933 129.079 51.2C128.866 50.88 128.706 50.5467 128.599 50.2C128.492 49.8267 128.439 49.4267 128.439 49V48.96L128.479 48.92H132.119V52.56ZM131.959 52.56V48.92H135.599L135.639 48.96V49C135.639 49.4267 135.586 49.8267 135.479 50.2C135.372 50.5467 135.212 50.88 134.999 51.2C134.786 51.4933 134.519 51.7467 134.199 51.96C133.906 52.1733 133.572 52.3333 133.199 52.44C132.852 52.5467 132.466 52.6 132.039 52.6H131.999L131.959 52.56ZM131.959 45.44L131.999 45.4H132.039C132.466 45.4 132.852 45.4533 133.199 45.56C133.572 45.6667 133.906 45.8267 134.199 46.04C134.519 46.2533 134.786 46.52 134.999 46.84C135.212 47.1333 135.372 47.4667 135.479 47.84C135.586 48.1867 135.639 48.5733 135.639 49V49.04L135.599 49.08H131.959V45.44ZM132.119 45.44V49.08H128.479L128.439 49.04V49C128.439 48.5733 128.492 48.1867 128.599 47.84C128.706 47.4667 128.866 47.1333 129.079 46.84C129.292 46.52 129.559 46.2533 129.879 46.04C130.172 45.8267 130.492 45.6667 130.839 45.56C131.212 45.4533 131.612 45.4 132.039 45.4H132.079L132.119 45.44ZM132.119 48.56L132.079 48.6H132.039C131.612 48.6 131.212 48.5467 130.839 48.44C130.492 48.3333 130.172 48.1733 129.879 47.96C129.559 47.7467 129.292 47.4933 129.079 47.2C128.866 46.88 128.706 46.5467 128.599 46.2C128.492 45.8267 128.439 45.4267 128.439 45V44.96L128.479 44.92H132.119V48.56ZM131.959 48.56V44.92H135.599L135.639 44.96V45C135.639 45.4267 135.586 45.8267 135.479 46.2C135.372 46.5467 135.212 46.88 134.999 47.2C134.786 47.4933 134.519 47.7467 134.199 47.96C133.906 48.1733 133.572 48.3333 133.199 48.44C132.852 48.5467 132.466 48.6 132.039 48.6H131.999L131.959 48.56ZM131.959 41.44L131.999 41.4H132.039C132.466 41.4 132.852 41.4533 133.199 41.56C133.572 41.6667 133.906 41.8267 134.199 42.04C134.519 42.2533 134.786 42.52 134.999 42.84C135.212 43.1333 135.372 43.4667 135.479 43.84C135.586 44.1867 135.639 44.5733 135.639 45V45.04L135.599 45.08H131.959V41.44ZM132.119 41.44V45.08H128.479L128.439 45.04V45C128.439 44.5733 128.492 44.1867 128.599 43.84C128.706 43.4667 128.866 43.1333 129.079 42.84C129.292 42.52 129.559 42.2533 129.879 42.04C130.172 41.8267 130.492 41.6667 130.839 41.56C131.212 41.4533 131.612 41.4 132.039 41.4H132.079L132.119 41.44ZM132.119 44.56L132.079 44.6H132.039C131.612 44.6 131.212 44.5467 130.839 44.44C130.492 44.3333 130.172 44.1733 129.879 43.96C129.559 43.7467 129.292 43.4933 129.079 43.2C128.866 42.88 128.706 42.5467 128.599 42.2C128.492 41.8267 128.439 41.4267 128.439 41V40.96L128.479 40.92H132.119V44.56ZM131.959 44.56V40.92H135.599L135.639 40.96V41C135.639 41.4267 135.586 41.8267 135.479 42.2C135.372 42.5467 135.212 42.88 134.999 43.2C134.786 43.4933 134.519 43.7467 134.199 43.96C133.906 44.1733 133.572 44.3333 133.199 44.44C132.852 44.5467 132.466 44.6 132.039 44.6H131.999L131.959 44.56ZM131.959 37.44L131.999 37.4H132.039C132.466 37.4 132.852 37.4533 133.199 37.56C133.572 37.6667 133.906 37.8267 134.199 38.04C134.519 38.2533 134.786 38.52 134.999 38.84C135.212 39.1333 135.372 39.4667 135.479 39.84C135.586 40.1867 135.639 40.5733 135.639 41V41.04L135.599 41.08H131.959V37.44ZM132.119 37.44V41.08H128.479L128.439 41.04V41C128.439 40.5733 128.492 40.1867 128.599 39.84C128.706 39.4667 128.866 39.1333 129.079 38.84C129.292 38.52 129.559 38.2533 129.879 38.04C130.172 37.8267 130.492 37.6667 130.839 37.56C131.212 37.4533 131.612 37.4 132.039 37.4H132.079L132.119 37.44ZM136.119 56.56L136.079 56.6H136.039C135.612 56.6 135.212 56.5467 134.839 56.44C134.492 56.3333 134.159 56.1733 133.839 55.96C133.546 55.7467 133.292 55.48 133.079 55.16C132.866 54.8667 132.706 54.5467 132.599 54.2C132.492 53.8267 132.439 53.4267 132.439 53V52.96L132.479 52.92H136.119V56.56ZM135.959 56.56V52.92H139.599L139.639 52.96V53C139.639 53.4267 139.586 53.8267 139.479 54.2C139.372 54.5467 139.212 54.8667 138.999 55.16C138.786 55.48 138.519 55.7467 138.199 55.96C137.906 56.1733 137.572 56.3333 137.199 56.44C136.852 56.5467 136.466 56.6 136.039 56.6H135.999L135.959 56.56ZM135.959 49.44L135.999 49.4H136.039C136.466 49.4 136.852 49.4533 137.199 49.56C137.572 49.6667 137.906 49.8267 138.199 50.04C138.519 50.2533 138.786 50.52 138.999 50.84C139.212 51.1333 139.372 51.4667 139.479 51.84C139.586 52.1867 139.639 52.5733 139.639 53V53.04L139.599 53.08H135.959V49.44ZM136.119 49.44V53.08H132.479L132.439 53.04V53C132.439 52.5733 132.492 52.1867 132.599 51.84C132.706 51.4667 132.866 51.1333 133.079 50.84C133.292 50.52 133.546 50.2533 133.839 50.04C134.159 49.8267 134.492 49.6667 134.839 49.56C135.212 49.4533 135.612 49.4 136.039 49.4H136.079L136.119 49.44ZM136.119 40.56L136.079 40.6H136.039C135.612 40.6 135.212 40.5467 134.839 40.44C134.492 40.3333 134.159 40.1733 133.839 39.96C133.546 39.7467 133.292 39.4933 133.079 39.2C132.866 38.88 132.706 38.5467 132.599 38.2C132.492 37.8267 132.439 37.4267 132.439 37V36.96L132.479 36.92H136.119V40.56ZM135.959 40.56V36.92H139.599L139.639 36.96V37C139.639 37.4267 139.586 37.8267 139.479 38.2C139.372 38.5467 139.212 38.88 138.999 39.2C138.786 39.4933 138.519 39.7467 138.199 39.96C137.906 40.1733 137.572 40.3333 137.199 40.44C136.852 40.5467 136.466 40.6 136.039 40.6H135.999L135.959 40.56ZM135.959 33.44L135.999 33.4H136.039C136.466 33.4 136.852 33.4533 137.199 33.56C137.572 33.6667 137.906 33.8267 138.199 34.04C138.519 34.2533 138.786 34.52 138.999 34.84C139.212 35.1333 139.372 35.4667 139.479 35.84C139.586 36.1867 139.639 36.5733 139.639 37V37.04L139.599 37.08H135.959V33.44ZM136.119 33.44V37.08H132.479L132.439 37.04V37C132.439 36.5733 132.492 36.1867 132.599 35.84C132.706 35.4667 132.866 35.1333 133.079 34.84C133.292 34.52 133.546 34.2533 133.839 34.04C134.159 33.8267 134.492 33.6667 134.839 33.56C135.212 33.4533 135.612 33.4 136.039 33.4H136.079L136.119 33.44ZM140.119 56.56L140.079 56.6H140.039C139.612 56.6 139.212 56.5467 138.839 56.44C138.492 56.3333 138.159 56.1733 137.839 55.96C137.546 55.7467 137.292 55.48 137.079 55.16C136.866 54.8667 136.706 54.5467 136.599 54.2C136.492 53.8267 136.439 53.4267 136.439 53V52.96L136.479 52.92H140.119V56.56ZM139.959 56.56V52.92H143.599L143.639 52.96V53C143.639 53.4267 143.586 53.8267 143.479 54.2C143.372 54.5467 143.212 54.8667 142.999 55.16C142.786 55.48 142.519 55.7467 142.199 55.96C141.906 56.1733 141.572 56.3333 141.199 56.44C140.852 56.5467 140.466 56.6 140.039 56.6H139.999L139.959 56.56ZM139.959 49.44L139.999 49.4H140.039C140.466 49.4 140.852 49.4533 141.199 49.56C141.572 49.6667 141.906 49.8267 142.199 50.04C142.519 50.2533 142.786 50.52 142.999 50.84C143.212 51.1333 143.372 51.4667 143.479 51.84C143.586 52.1867 143.639 52.5733 143.639 53V53.04L143.599 53.08H139.959V49.44ZM140.119 49.44V53.08H136.479L136.439 53.04V53C136.439 52.5733 136.492 52.1867 136.599 51.84C136.706 51.4667 136.866 51.1333 137.079 50.84C137.292 50.52 137.546 50.2533 137.839 50.04C138.159 49.8267 138.492 49.6667 138.839 49.56C139.212 49.4533 139.612 49.4 140.039 49.4H140.079L140.119 49.44ZM140.119 40.56L140.079 40.6H140.039C139.612 40.6 139.212 40.5467 138.839 40.44C138.492 40.3333 138.159 40.1733 137.839 39.96C137.546 39.7467 137.292 39.4933 137.079 39.2C136.866 38.88 136.706 38.5467 136.599 38.2C136.492 37.8267 136.439 37.4267 136.439 37V36.96L136.479 36.92H140.119V40.56ZM139.959 40.56V36.92H143.599L143.639 36.96V37C143.639 37.4267 143.586 37.8267 143.479 38.2C143.372 38.5467 143.212 38.88 142.999 39.2C142.786 39.4933 142.519 39.7467 142.199 39.96C141.906 40.1733 141.572 40.3333 141.199 40.44C140.852 40.5467 140.466 40.6 140.039 40.6H139.999L139.959 40.56ZM139.959 33.44L139.999 33.4H140.039C140.466 33.4 140.852 33.4533 141.199 33.56C141.572 33.6667 141.906 33.8267 142.199 34.04C142.519 34.2533 142.786 34.52 142.999 34.84C143.212 35.1333 143.372 35.4667 143.479 35.84C143.586 36.1867 143.639 36.5733 143.639 37V37.04L143.599 37.08H139.959V33.44ZM140.119 33.44V37.08H136.479L136.439 37.04V37C136.439 36.5733 136.492 36.1867 136.599 35.84C136.706 35.4667 136.866 35.1333 137.079 34.84C137.292 34.52 137.546 34.2533 137.839 34.04C138.159 33.8267 138.492 33.6667 138.839 33.56C139.212 33.4533 139.612 33.4 140.039 33.4H140.079L140.119 33.44ZM144.119 56.56L144.079 56.6H144.039C143.612 56.6 143.212 56.5467 142.839 56.44C142.492 56.3333 142.159 56.1733 141.839 55.96C141.546 55.7467 141.292 55.48 141.079 55.16C140.866 54.8667 140.706 54.5467 140.599 54.2C140.492 53.8267 140.439 53.4267 140.439 53V52.96L140.479 52.92H144.119V56.56ZM143.959 56.56V52.92H147.599L147.639 52.96V53C147.639 53.4267 147.586 53.8267 147.479 54.2C147.372 54.5467 147.212 54.8667 146.999 55.16C146.786 55.48 146.519 55.7467 146.199 55.96C145.906 56.1733 145.572 56.3333 145.199 56.44C144.852 56.5467 144.466 56.6 144.039 56.6H143.999L143.959 56.56ZM143.959 49.44L143.999 49.4H144.039C144.466 49.4 144.852 49.4533 145.199 49.56C145.572 49.6667 145.906 49.8267 146.199 50.04C146.519 50.2533 146.786 50.52 146.999 50.84C147.212 51.1333 147.372 51.4667 147.479 51.84C147.586 52.1867 147.639 52.5733 147.639 53V53.04L147.599 53.08H143.959V49.44ZM144.119 49.44V53.08H140.479L140.439 53.04V53C140.439 52.5733 140.492 52.1867 140.599 51.84C140.706 51.4667 140.866 51.1333 141.079 50.84C141.292 50.52 141.546 50.2533 141.839 50.04C142.159 49.8267 142.492 49.6667 142.839 49.56C143.212 49.4533 143.612 49.4 144.039 49.4H144.079L144.119 49.44ZM144.119 40.56L144.079 40.6H144.039C143.612 40.6 143.212 40.5467 142.839 40.44C142.492 40.3333 142.159 40.1733 141.839 39.96C141.546 39.7467 141.292 39.4933 141.079 39.2C140.866 38.88 140.706 38.5467 140.599 38.2C140.492 37.8267 140.439 37.4267 140.439 37V36.96L140.479 36.92H144.119V40.56ZM143.959 40.56V36.92H147.599L147.639 36.96V37C147.639 37.4267 147.586 37.8267 147.479 38.2C147.372 38.5467 147.212 38.88 146.999 39.2C146.786 39.4933 146.519 39.7467 146.199 39.96C145.906 40.1733 145.572 40.3333 145.199 40.44C144.852 40.5467 144.466 40.6 144.039 40.6H143.999L143.959 40.56ZM143.959 33.44L143.999 33.4H144.039C144.466 33.4 144.852 33.4533 145.199 33.56C145.572 33.6667 145.906 33.8267 146.199 34.04C146.519 34.2533 146.786 34.52 146.999 34.84C147.212 35.1333 147.372 35.4667 147.479 35.84C147.586 36.1867 147.639 36.5733 147.639 37V37.04L147.599 37.08H143.959V33.44ZM144.119 33.44V37.08H140.479L140.439 37.04V37C140.439 36.5733 140.492 36.1867 140.599 35.84C140.706 35.4667 140.866 35.1333 141.079 34.84C141.292 34.52 141.546 34.2533 141.839 34.04C142.159 33.8267 142.492 33.6667 142.839 33.56C143.212 33.4533 143.612 33.4 144.039 33.4H144.079L144.119 33.44ZM148.119 52.56L148.079 52.6H148.039C147.612 52.6 147.212 52.5467 146.839 52.44C146.492 52.3333 146.159 52.1733 145.839 51.96C145.546 51.7467 145.292 51.4933 145.079 51.2C144.866 50.88 144.706 50.5467 144.599 50.2C144.492 49.8267 144.439 49.4267 144.439 49V48.96L144.479 48.92H148.119V52.56ZM147.959 52.56V48.92H151.599L151.639 48.96V49C151.639 49.4267 151.586 49.8267 151.479 50.2C151.372 50.5467 151.212 50.88 150.999 51.2C150.786 51.4933 150.519 51.7467 150.199 51.96C149.906 52.1733 149.572 52.3333 149.199 52.44C148.852 52.5467 148.466 52.6 148.039 52.6H147.999L147.959 52.56ZM147.959 45.44L147.999 45.4H148.039C148.466 45.4 148.852 45.4533 149.199 45.56C149.572 45.6667 149.906 45.8267 150.199 46.04C150.519 46.2533 150.786 46.52 150.999 46.84C151.212 47.1333 151.372 47.4667 151.479 47.84C151.586 48.1867 151.639 48.5733 151.639 49V49.04L151.599 49.08H147.959V45.44ZM148.119 45.44V49.08H144.479L144.439 49.04V49C144.439 48.5733 144.492 48.1867 144.599 47.84C144.706 47.4667 144.866 47.1333 145.079 46.84C145.292 46.52 145.546 46.2533 145.839 46.04C146.159 45.8267 146.492 45.6667 146.839 45.56C147.212 45.4533 147.612 45.4 148.039 45.4H148.079L148.119 45.44ZM148.119 48.56L148.079 48.6H148.039C147.612 48.6 147.212 48.5467 146.839 48.44C146.492 48.3333 146.159 48.1733 145.839 47.96C145.546 47.7467 145.292 47.4933 145.079 47.2C144.866 46.88 144.706 46.5467 144.599 46.2C144.492 45.8267 144.439 45.4267 144.439 45V44.96L144.479 44.92H148.119V48.56ZM147.959 48.56V44.92H151.599L151.639 44.96V45C151.639 45.4267 151.586 45.8267 151.479 46.2C151.372 46.5467 151.212 46.88 150.999 47.2C150.786 47.4933 150.519 47.7467 150.199 47.96C149.906 48.1733 149.572 48.3333 149.199 48.44C148.852 48.5467 148.466 48.6 148.039 48.6H147.999L147.959 48.56ZM147.959 41.44L147.999 41.4H148.039C148.466 41.4 148.852 41.4533 149.199 41.56C149.572 41.6667 149.906 41.8267 150.199 42.04C150.519 42.2533 150.786 42.52 150.999 42.84C151.212 43.1333 151.372 43.4667 151.479 43.84C151.586 44.1867 151.639 44.5733 151.639 45V45.04L151.599 45.08H147.959V41.44ZM148.119 41.44V45.08H144.479L144.439 45.04V45C144.439 44.5733 144.492 44.1867 144.599 43.84C144.706 43.4667 144.866 43.1333 145.079 42.84C145.292 42.52 145.546 42.2533 145.839 42.04C146.159 41.8267 146.492 41.6667 146.839 41.56C147.212 41.4533 147.612 41.4 148.039 41.4H148.079L148.119 41.44ZM148.119 44.56L148.079 44.6H148.039C147.612 44.6 147.212 44.5467 146.839 44.44C146.492 44.3333 146.159 44.1733 145.839 43.96C145.546 43.7467 145.292 43.4933 145.079 43.2C144.866 42.88 144.706 42.5467 144.599 42.2C144.492 41.8267 144.439 41.4267 144.439 41V40.96L144.479 40.92H148.119V44.56ZM147.959 44.56V40.92H151.599L151.639 40.96V41C151.639 41.4267 151.586 41.8267 151.479 42.2C151.372 42.5467 151.212 42.88 150.999 43.2C150.786 43.4933 150.519 43.7467 150.199 43.96C149.906 44.1733 149.572 44.3333 149.199 44.44C148.852 44.5467 148.466 44.6 148.039 44.6H147.999L147.959 44.56ZM147.959 37.44L147.999 37.4H148.039C148.466 37.4 148.852 37.4533 149.199 37.56C149.572 37.6667 149.906 37.8267 150.199 38.04C150.519 38.2533 150.786 38.52 150.999 38.84C151.212 39.1333 151.372 39.4667 151.479 39.84C151.586 40.1867 151.639 40.5733 151.639 41V41.04L151.599 41.08H147.959V37.44ZM148.119 37.44V41.08H144.479L144.439 41.04V41C144.439 40.5733 144.492 40.1867 144.599 39.84C144.706 39.4667 144.866 39.1333 145.079 38.84C145.292 38.52 145.546 38.2533 145.839 38.04C146.159 37.8267 146.492 37.6667 146.839 37.56C147.212 37.4533 147.612 37.4 148.039 37.4H148.079L148.119 37.44ZM158.103 56.56L158.063 56.6H158.023C157.597 56.6 157.197 56.5467 156.823 56.44C156.477 56.3333 156.157 56.1733 155.863 55.96C155.543 55.7467 155.277 55.48 155.063 55.16C154.85 54.8667 154.69 54.5467 154.583 54.2C154.477 53.8267 154.423 53.4267 154.423 53V52.96L154.463 52.92H158.103V56.56ZM157.943 56.56V52.92H161.583L161.623 52.96V53C161.623 53.4267 161.57 53.8267 161.463 54.2C161.357 54.5467 161.197 54.8667 160.983 55.16C160.77 55.48 160.503 55.7467 160.183 55.96C159.89 56.1733 159.557 56.3333 159.183 56.44C158.837 56.5467 158.45 56.6 158.023 56.6H157.983L157.943 56.56ZM157.943 49.44L157.983 49.4H158.023C158.45 49.4 158.837 49.4533 159.183 49.56C159.557 49.6667 159.89 49.8267 160.183 50.04C160.503 50.2533 160.77 50.52 160.983 50.84C161.197 51.1333 161.357 51.4667 161.463 51.84C161.57 52.1867 161.623 52.5733 161.623 53V53.04L161.583 53.08H157.943V49.44ZM158.103 49.44V53.08H154.463L154.423 53.04V53C154.423 52.5733 154.477 52.1867 154.583 51.84C154.69 51.4667 154.85 51.1333 155.063 50.84C155.277 50.52 155.543 50.2533 155.863 50.04C156.157 49.8267 156.477 49.6667 156.823 49.56C157.197 49.4533 157.597 49.4 158.023 49.4H158.063L158.103 49.44ZM158.103 52.56L158.063 52.6H158.023C157.597 52.6 157.197 52.5467 156.823 52.44C156.477 52.3333 156.157 52.1733 155.863 51.96C155.543 51.7467 155.277 51.4933 155.063 51.2C154.85 50.88 154.69 50.5467 154.583 50.2C154.477 49.8267 154.423 49.4267 154.423 49V48.96L154.463 48.92H158.103V52.56ZM157.943 52.56V48.92H161.583L161.623 48.96V49C161.623 49.4267 161.57 49.8267 161.463 50.2C161.357 50.5467 161.197 50.88 160.983 51.2C160.77 51.4933 160.503 51.7467 160.183 51.96C159.89 52.1733 159.557 52.3333 159.183 52.44C158.837 52.5467 158.45 52.6 158.023 52.6H157.983L157.943 52.56ZM157.943 45.44L157.983 45.4H158.023C158.45 45.4 158.837 45.4533 159.183 45.56C159.557 45.6667 159.89 45.8267 160.183 46.04C160.503 46.2533 160.77 46.52 160.983 46.84C161.197 47.1333 161.357 47.4667 161.463 47.84C161.57 48.1867 161.623 48.5733 161.623 49V49.04L161.583 49.08H157.943V45.44ZM158.103 45.44V49.08H154.463L154.423 49.04V49C154.423 48.5733 154.477 48.1867 154.583 47.84C154.69 47.4667 154.85 47.1333 155.063 46.84C155.277 46.52 155.543 46.2533 155.863 46.04C156.157 45.8267 156.477 45.6667 156.823 45.56C157.197 45.4533 157.597 45.4 158.023 45.4H158.063L158.103 45.44ZM158.103 48.56L158.063 48.6H158.023C157.597 48.6 157.197 48.5467 156.823 48.44C156.477 48.3333 156.157 48.1733 155.863 47.96C155.543 47.7467 155.277 47.4933 155.063 47.2C154.85 46.88 154.69 46.5467 154.583 46.2C154.477 45.8267 154.423 45.4267 154.423 45V44.96L154.463 44.92H158.103V48.56ZM157.943 48.56V44.92H161.583L161.623 44.96V45C161.623 45.4267 161.57 45.8267 161.463 46.2C161.357 46.5467 161.197 46.88 160.983 47.2C160.77 47.4933 160.503 47.7467 160.183 47.96C159.89 48.1733 159.557 48.3333 159.183 48.44C158.837 48.5467 158.45 48.6 158.023 48.6H157.983L157.943 48.56ZM157.943 41.44L157.983 41.4H158.023C158.45 41.4 158.837 41.4533 159.183 41.56C159.557 41.6667 159.89 41.8267 160.183 42.04C160.503 42.2533 160.77 42.52 160.983 42.84C161.197 43.1333 161.357 43.4667 161.463 43.84C161.57 44.1867 161.623 44.5733 161.623 45V45.04L161.583 45.08H157.943V41.44ZM158.103 41.44V45.08H154.463L154.423 45.04V45C154.423 44.5733 154.477 44.1867 154.583 43.84C154.69 43.4667 154.85 43.1333 155.063 42.84C155.277 42.52 155.543 42.2533 155.863 42.04C156.157 41.8267 156.477 41.6667 156.823 41.56C157.197 41.4533 157.597 41.4 158.023 41.4H158.063L158.103 41.44ZM158.103 44.56L158.063 44.6H158.023C157.597 44.6 157.197 44.5467 156.823 44.44C156.477 44.3333 156.157 44.1733 155.863 43.96C155.543 43.7467 155.277 43.4933 155.063 43.2C154.85 42.88 154.69 42.5467 154.583 42.2C154.477 41.8267 154.423 41.4267 154.423 41V40.96L154.463 40.92H158.103V44.56ZM157.943 44.56V40.92H161.583L161.623 40.96V41C161.623 41.4267 161.57 41.8267 161.463 42.2C161.357 42.5467 161.197 42.88 160.983 43.2C160.77 43.4933 160.503 43.7467 160.183 43.96C159.89 44.1733 159.557 44.3333 159.183 44.44C158.837 44.5467 158.45 44.6 158.023 44.6H157.983L157.943 44.56ZM157.943 37.44L157.983 37.4H158.023C158.45 37.4 158.837 37.4533 159.183 37.56C159.557 37.6667 159.89 37.8267 160.183 38.04C160.503 38.2533 160.77 38.52 160.983 38.84C161.197 39.1333 161.357 39.4667 161.463 39.84C161.57 40.1867 161.623 40.5733 161.623 41V41.04L161.583 41.08H157.943V37.44ZM158.103 37.44V41.08H154.463L154.423 41.04V41C154.423 40.5733 154.477 40.1867 154.583 39.84C154.69 39.4667 154.85 39.1333 155.063 38.84C155.277 38.52 155.543 38.2533 155.863 38.04C156.157 37.8267 156.477 37.6667 156.823 37.56C157.197 37.4533 157.597 37.4 158.023 37.4H158.063L158.103 37.44ZM158.103 40.56L158.063 40.6H158.023C157.597 40.6 157.197 40.5467 156.823 40.44C156.477 40.3333 156.157 40.1733 155.863 39.96C155.543 39.7467 155.277 39.4933 155.063 39.2C154.85 38.88 154.69 38.5467 154.583 38.2C154.477 37.8267 154.423 37.4267 154.423 37V36.96L154.463 36.92H158.103V40.56ZM157.943 40.56V36.92H161.583L161.623 36.96V37C161.623 37.4267 161.57 37.8267 161.463 38.2C161.357 38.5467 161.197 38.88 160.983 39.2C160.77 39.4933 160.503 39.7467 160.183 39.96C159.89 40.1733 159.557 40.3333 159.183 40.44C158.837 40.5467 158.45 40.6 158.023 40.6H157.983L157.943 40.56ZM157.943 33.44L157.983 33.4H158.023C158.45 33.4 158.837 33.4533 159.183 33.56C159.557 33.6667 159.89 33.8267 160.183 34.04C160.503 34.2533 160.77 34.52 160.983 34.84C161.197 35.1333 161.357 35.4667 161.463 35.84C161.57 36.1867 161.623 36.5733 161.623 37V37.04L161.583 37.08H157.943V33.44ZM158.103 33.44V37.08H154.463L154.423 37.04V37C154.423 36.5733 154.477 36.1867 154.583 35.84C154.69 35.4667 154.85 35.1333 155.063 34.84C155.277 34.52 155.543 34.2533 155.863 34.04C156.157 33.8267 156.477 33.6667 156.823 33.56C157.197 33.4533 157.597 33.4 158.023 33.4H158.063L158.103 33.44ZM162.103 44.56L162.063 44.6H162.023C161.597 44.6 161.197 44.5467 160.823 44.44C160.477 44.3333 160.143 44.1733 159.823 43.96C159.53 43.7467 159.277 43.4933 159.063 43.2C158.85 42.88 158.69 42.5467 158.583 42.2C158.477 41.8267 158.423 41.4267 158.423 41V40.96L158.463 40.92H162.103V44.56ZM161.943 44.56V40.92H165.583L165.623 40.96V41C165.623 41.4267 165.57 41.8267 165.463 42.2C165.357 42.5467 165.197 42.88 164.983 43.2C164.77 43.4933 164.503 43.7467 164.183 43.96C163.89 44.1733 163.557 44.3333 163.183 44.44C162.837 44.5467 162.45 44.6 162.023 44.6H161.983L161.943 44.56ZM161.943 37.44L161.983 37.4H162.023C162.45 37.4 162.837 37.4533 163.183 37.56C163.557 37.6667 163.89 37.8267 164.183 38.04C164.503 38.2533 164.77 38.52 164.983 38.84C165.197 39.1333 165.357 39.4667 165.463 39.84C165.57 40.1867 165.623 40.5733 165.623 41V41.04L165.583 41.08H161.943V37.44ZM162.103 37.44V41.08H158.463L158.423 41.04V41C158.423 40.5733 158.477 40.1867 158.583 39.84C158.69 39.4667 158.85 39.1333 159.063 38.84C159.277 38.52 159.53 38.2533 159.823 38.04C160.143 37.8267 160.477 37.6667 160.823 37.56C161.197 37.4533 161.597 37.4 162.023 37.4H162.063L162.103 37.44ZM166.103 40.56L166.063 40.6H166.023C165.597 40.6 165.197 40.5467 164.823 40.44C164.477 40.3333 164.143 40.1733 163.823 39.96C163.53 39.7467 163.277 39.4933 163.063 39.2C162.85 38.88 162.69 38.5467 162.583 38.2C162.477 37.8267 162.423 37.4267 162.423 37V36.96L162.463 36.92H166.103V40.56ZM165.943 40.56V36.92H169.583L169.623 36.96V37C169.623 37.4267 169.57 37.8267 169.463 38.2C169.357 38.5467 169.197 38.88 168.983 39.2C168.77 39.4933 168.503 39.7467 168.183 39.96C167.89 40.1733 167.557 40.3333 167.183 40.44C166.837 40.5467 166.45 40.6 166.023 40.6H165.983L165.943 40.56ZM165.943 33.44L165.983 33.4H166.023C166.45 33.4 166.837 33.4533 167.183 33.56C167.557 33.6667 167.89 33.8267 168.183 34.04C168.503 34.2533 168.77 34.52 168.983 34.84C169.197 35.1333 169.357 35.4667 169.463 35.84C169.57 36.1867 169.623 36.5733 169.623 37V37.04L169.583 37.08H165.943V33.44ZM166.103 33.44V37.08H162.463L162.423 37.04V37C162.423 36.5733 162.477 36.1867 162.583 35.84C162.69 35.4667 162.85 35.1333 163.063 34.84C163.277 34.52 163.53 34.2533 163.823 34.04C164.143 33.8267 164.477 33.6667 164.823 33.56C165.197 33.4533 165.597 33.4 166.023 33.4H166.063L166.103 33.44ZM170.103 40.56L170.063 40.6H170.023C169.597 40.6 169.197 40.5467 168.823 40.44C168.477 40.3333 168.143 40.1733 167.823 39.96C167.53 39.7467 167.277 39.4933 167.063 39.2C166.85 38.88 166.69 38.5467 166.583 38.2C166.477 37.8267 166.423 37.4267 166.423 37V36.96L166.463 36.92H170.103V40.56ZM169.943 40.56V36.92H173.583L173.623 36.96V37C173.623 37.4267 173.57 37.8267 173.463 38.2C173.357 38.5467 173.197 38.88 172.983 39.2C172.77 39.4933 172.503 39.7467 172.183 39.96C171.89 40.1733 171.557 40.3333 171.183 40.44C170.837 40.5467 170.45 40.6 170.023 40.6H169.983L169.943 40.56ZM169.943 33.44L169.983 33.4H170.023C170.45 33.4 170.837 33.4533 171.183 33.56C171.557 33.6667 171.89 33.8267 172.183 34.04C172.503 34.2533 172.77 34.52 172.983 34.84C173.197 35.1333 173.357 35.4667 173.463 35.84C173.57 36.1867 173.623 36.5733 173.623 37V37.04L173.583 37.08H169.943V33.44ZM170.103 33.44V37.08H166.463L166.423 37.04V37C166.423 36.5733 166.477 36.1867 166.583 35.84C166.69 35.4667 166.85 35.1333 167.063 34.84C167.277 34.52 167.53 34.2533 167.823 34.04C168.143 33.8267 168.477 33.6667 168.823 33.56C169.197 33.4533 169.597 33.4 170.023 33.4H170.063L170.103 33.44ZM174.103 56.56L174.063 56.6H174.023C173.597 56.6 173.197 56.5467 172.823 56.44C172.477 56.3333 172.143 56.1733 171.823 55.96C171.53 55.7467 171.277 55.48 171.063 55.16C170.85 54.8667 170.69 54.5467 170.583 54.2C170.477 53.8267 170.423 53.4267 170.423 53V52.96L170.463 52.92H174.103V56.56ZM173.943 56.56V52.92H177.583L177.623 52.96V53C177.623 53.4267 177.57 53.8267 177.463 54.2C177.357 54.5467 177.197 54.8667 176.983 55.16C176.77 55.48 176.503 55.7467 176.183 55.96C175.89 56.1733 175.557 56.3333 175.183 56.44C174.837 56.5467 174.45 56.6 174.023 56.6H173.983L173.943 56.56ZM173.943 49.44L173.983 49.4H174.023C174.45 49.4 174.837 49.4533 175.183 49.56C175.557 49.6667 175.89 49.8267 176.183 50.04C176.503 50.2533 176.77 50.52 176.983 50.84C177.197 51.1333 177.357 51.4667 177.463 51.84C177.57 52.1867 177.623 52.5733 177.623 53V53.04L177.583 53.08H173.943V49.44ZM174.103 49.44V53.08H170.463L170.423 53.04V53C170.423 52.5733 170.477 52.1867 170.583 51.84C170.69 51.4667 170.85 51.1333 171.063 50.84C171.277 50.52 171.53 50.2533 171.823 50.04C172.143 49.8267 172.477 49.6667 172.823 49.56C173.197 49.4533 173.597 49.4 174.023 49.4H174.063L174.103 49.44ZM174.103 52.56L174.063 52.6H174.023C173.597 52.6 173.197 52.5467 172.823 52.44C172.477 52.3333 172.143 52.1733 171.823 51.96C171.53 51.7467 171.277 51.4933 171.063 51.2C170.85 50.88 170.69 50.5467 170.583 50.2C170.477 49.8267 170.423 49.4267 170.423 49V48.96L170.463 48.92H174.103V52.56ZM173.943 52.56V48.92H177.583L177.623 48.96V49C177.623 49.4267 177.57 49.8267 177.463 50.2C177.357 50.5467 177.197 50.88 176.983 51.2C176.77 51.4933 176.503 51.7467 176.183 51.96C175.89 52.1733 175.557 52.3333 175.183 52.44C174.837 52.5467 174.45 52.6 174.023 52.6H173.983L173.943 52.56ZM173.943 45.44L173.983 45.4H174.023C174.45 45.4 174.837 45.4533 175.183 45.56C175.557 45.6667 175.89 45.8267 176.183 46.04C176.503 46.2533 176.77 46.52 176.983 46.84C177.197 47.1333 177.357 47.4667 177.463 47.84C177.57 48.1867 177.623 48.5733 177.623 49V49.04L177.583 49.08H173.943V45.44ZM174.103 45.44V49.08H170.463L170.423 49.04V49C170.423 48.5733 170.477 48.1867 170.583 47.84C170.69 47.4667 170.85 47.1333 171.063 46.84C171.277 46.52 171.53 46.2533 171.823 46.04C172.143 45.8267 172.477 45.6667 172.823 45.56C173.197 45.4533 173.597 45.4 174.023 45.4H174.063L174.103 45.44ZM174.103 48.56L174.063 48.6H174.023C173.597 48.6 173.197 48.5467 172.823 48.44C172.477 48.3333 172.143 48.1733 171.823 47.96C171.53 47.7467 171.277 47.4933 171.063 47.2C170.85 46.88 170.69 46.5467 170.583 46.2C170.477 45.8267 170.423 45.4267 170.423 45V44.96L170.463 44.92H174.103V48.56ZM173.943 48.56V44.92H177.583L177.623 44.96V45C177.623 45.4267 177.57 45.8267 177.463 46.2C177.357 46.5467 177.197 46.88 176.983 47.2C176.77 47.4933 176.503 47.7467 176.183 47.96C175.89 48.1733 175.557 48.3333 175.183 48.44C174.837 48.5467 174.45 48.6 174.023 48.6H173.983L173.943 48.56ZM173.943 41.44L173.983 41.4H174.023C174.45 41.4 174.837 41.4533 175.183 41.56C175.557 41.6667 175.89 41.8267 176.183 42.04C176.503 42.2533 176.77 42.52 176.983 42.84C177.197 43.1333 177.357 43.4667 177.463 43.84C177.57 44.1867 177.623 44.5733 177.623 45V45.04L177.583 45.08H173.943V41.44ZM174.103 41.44V45.08H170.463L170.423 45.04V45C170.423 44.5733 170.477 44.1867 170.583 43.84C170.69 43.4667 170.85 43.1333 171.063 42.84C171.277 42.52 171.53 42.2533 171.823 42.04C172.143 41.8267 172.477 41.6667 172.823 41.56C173.197 41.4533 173.597 41.4 174.023 41.4H174.063L174.103 41.44ZM174.103 44.56L174.063 44.6H174.023C173.597 44.6 173.197 44.5467 172.823 44.44C172.477 44.3333 172.143 44.1733 171.823 43.96C171.53 43.7467 171.277 43.4933 171.063 43.2C170.85 42.88 170.69 42.5467 170.583 42.2C170.477 41.8267 170.423 41.4267 170.423 41V40.96L170.463 40.92H174.103V44.56ZM173.943 44.56V40.92H177.583L177.623 40.96V41C177.623 41.4267 177.57 41.8267 177.463 42.2C177.357 42.5467 177.197 42.88 176.983 43.2C176.77 43.4933 176.503 43.7467 176.183 43.96C175.89 44.1733 175.557 44.3333 175.183 44.44C174.837 44.5467 174.45 44.6 174.023 44.6H173.983L173.943 44.56ZM173.943 37.44L173.983 37.4H174.023C174.45 37.4 174.837 37.4533 175.183 37.56C175.557 37.6667 175.89 37.8267 176.183 38.04C176.503 38.2533 176.77 38.52 176.983 38.84C177.197 39.1333 177.357 39.4667 177.463 39.84C177.57 40.1867 177.623 40.5733 177.623 41V41.04L177.583 41.08H173.943V37.44ZM174.103 37.44V41.08H170.463L170.423 41.04V41C170.423 40.5733 170.477 40.1867 170.583 39.84C170.69 39.4667 170.85 39.1333 171.063 38.84C171.277 38.52 171.53 38.2533 171.823 38.04C172.143 37.8267 172.477 37.6667 172.823 37.56C173.197 37.4533 173.597 37.4 174.023 37.4H174.063L174.103 37.44ZM184.088 40.56L184.048 40.6H184.008C183.581 40.6 183.181 40.5467 182.808 40.44C182.461 40.3333 182.141 40.1733 181.848 39.96C181.528 39.7467 181.261 39.4933 181.048 39.2C180.834 38.88 180.674 38.5467 180.568 38.2C180.461 37.8267 180.408 37.4267 180.408 37V36.96L180.448 36.92H184.088V40.56ZM183.928 40.56V36.92H187.568L187.608 36.96V37C187.608 37.4267 187.554 37.8267 187.448 38.2C187.341 38.5467 187.181 38.88 186.968 39.2C186.754 39.4933 186.488 39.7467 186.168 39.96C185.874 40.1733 185.541 40.3333 185.168 40.44C184.821 40.5467 184.434 40.6 184.008 40.6H183.968L183.928 40.56ZM183.928 33.44L183.968 33.4H184.008C184.434 33.4 184.821 33.4533 185.168 33.56C185.541 33.6667 185.874 33.8267 186.168 34.04C186.488 34.2533 186.754 34.52 186.968 34.84C187.181 35.1333 187.341 35.4667 187.448 35.84C187.554 36.1867 187.608 36.5733 187.608 37V37.04L187.568 37.08H183.928V33.44ZM184.088 33.44V37.08H180.448L180.408 37.04V37C180.408 36.5733 180.461 36.1867 180.568 35.84C180.674 35.4667 180.834 35.1333 181.048 34.84C181.261 34.52 181.528 34.2533 181.848 34.04C182.141 33.8267 182.461 33.6667 182.808 33.56C183.181 33.4533 183.581 33.4 184.008 33.4H184.048L184.088 33.44ZM188.088 52.56L188.048 52.6H188.008C187.581 52.6 187.181 52.5467 186.808 52.44C186.461 52.3333 186.128 52.1733 185.808 51.96C185.514 51.7467 185.261 51.4933 185.048 51.2C184.834 50.88 184.674 50.5467 184.568 50.2C184.461 49.8267 184.408 49.4267 184.408 49V48.96L184.448 48.92H188.088V52.56ZM187.928 52.56V48.92H191.568L191.608 48.96V49C191.608 49.4267 191.554 49.8267 191.448 50.2C191.341 50.5467 191.181 50.88 190.968 51.2C190.754 51.4933 190.488 51.7467 190.168 51.96C189.874 52.1733 189.541 52.3333 189.168 52.44C188.821 52.5467 188.434 52.6 188.008 52.6H187.968L187.928 52.56ZM187.928 45.44L187.968 45.4H188.008C188.434 45.4 188.821 45.4533 189.168 45.56C189.541 45.6667 189.874 45.8267 190.168 46.04C190.488 46.2533 190.754 46.52 190.968 46.84C191.181 47.1333 191.341 47.4667 191.448 47.84C191.554 48.1867 191.608 48.5733 191.608 49V49.04L191.568 49.08H187.928V45.44ZM188.088 45.44V49.08H184.448L184.408 49.04V49C184.408 48.5733 184.461 48.1867 184.568 47.84C184.674 47.4667 184.834 47.1333 185.048 46.84C185.261 46.52 185.514 46.2533 185.808 46.04C186.128 45.8267 186.461 45.6667 186.808 45.56C187.181 45.4533 187.581 45.4 188.008 45.4H188.048L188.088 45.44ZM188.088 48.56L188.048 48.6H188.008C187.581 48.6 187.181 48.5467 186.808 48.44C186.461 48.3333 186.128 48.1733 185.808 47.96C185.514 47.7467 185.261 47.4933 185.048 47.2C184.834 46.88 184.674 46.5467 184.568 46.2C184.461 45.8267 184.408 45.4267 184.408 45V44.96L184.448 44.92H188.088V48.56ZM187.928 48.56V44.92H191.568L191.608 44.96V45C191.608 45.4267 191.554 45.8267 191.448 46.2C191.341 46.5467 191.181 46.88 190.968 47.2C190.754 47.4933 190.488 47.7467 190.168 47.96C189.874 48.1733 189.541 48.3333 189.168 48.44C188.821 48.5467 188.434 48.6 188.008 48.6H187.968L187.928 48.56ZM187.928 41.44L187.968 41.4H188.008C188.434 41.4 188.821 41.4533 189.168 41.56C189.541 41.6667 189.874 41.8267 190.168 42.04C190.488 42.2533 190.754 42.52 190.968 42.84C191.181 43.1333 191.341 43.4667 191.448 43.84C191.554 44.1867 191.608 44.5733 191.608 45V45.04L191.568 45.08H187.928V41.44ZM188.088 41.44V45.08H184.448L184.408 45.04V45C184.408 44.5733 184.461 44.1867 184.568 43.84C184.674 43.4667 184.834 43.1333 185.048 42.84C185.261 42.52 185.514 42.2533 185.808 42.04C186.128 41.8267 186.461 41.6667 186.808 41.56C187.181 41.4533 187.581 41.4 188.008 41.4H188.048L188.088 41.44ZM188.088 44.56L188.048 44.6H188.008C187.581 44.6 187.181 44.5467 186.808 44.44C186.461 44.3333 186.128 44.1733 185.808 43.96C185.514 43.7467 185.261 43.4933 185.048 43.2C184.834 42.88 184.674 42.5467 184.568 42.2C184.461 41.8267 184.408 41.4267 184.408 41V40.96L184.448 40.92H188.088V44.56ZM187.928 44.56V40.92H191.568L191.608 40.96V41C191.608 41.4267 191.554 41.8267 191.448 42.2C191.341 42.5467 191.181 42.88 190.968 43.2C190.754 43.4933 190.488 43.7467 190.168 43.96C189.874 44.1733 189.541 44.3333 189.168 44.44C188.821 44.5467 188.434 44.6 188.008 44.6H187.968L187.928 44.56ZM187.928 37.44L187.968 37.4H188.008C188.434 37.4 188.821 37.4533 189.168 37.56C189.541 37.6667 189.874 37.8267 190.168 38.04C190.488 38.2533 190.754 38.52 190.968 38.84C191.181 39.1333 191.341 39.4667 191.448 39.84C191.554 40.1867 191.608 40.5733 191.608 41V41.04L191.568 41.08H187.928V37.44ZM188.088 37.44V41.08H184.448L184.408 41.04V41C184.408 40.5733 184.461 40.1867 184.568 39.84C184.674 39.4667 184.834 39.1333 185.048 38.84C185.261 38.52 185.514 38.2533 185.808 38.04C186.128 37.8267 186.461 37.6667 186.808 37.56C187.181 37.4533 187.581 37.4 188.008 37.4H188.048L188.088 37.44ZM188.088 40.56L188.048 40.6H188.008C187.581 40.6 187.181 40.5467 186.808 40.44C186.461 40.3333 186.128 40.1733 185.808 39.96C185.514 39.7467 185.261 39.4933 185.048 39.2C184.834 38.88 184.674 38.5467 184.568 38.2C184.461 37.8267 184.408 37.4267 184.408 37V36.96L184.448 36.92H188.088V40.56ZM187.928 40.56V36.92H191.568L191.608 36.96V37C191.608 37.4267 191.554 37.8267 191.448 38.2C191.341 38.5467 191.181 38.88 190.968 39.2C190.754 39.4933 190.488 39.7467 190.168 39.96C189.874 40.1733 189.541 40.3333 189.168 40.44C188.821 40.5467 188.434 40.6 188.008 40.6H187.968L187.928 40.56ZM187.928 33.44L187.968 33.4H188.008C188.434 33.4 188.821 33.4533 189.168 33.56C189.541 33.6667 189.874 33.8267 190.168 34.04C190.488 34.2533 190.754 34.52 190.968 34.84C191.181 35.1333 191.341 35.4667 191.448 35.84C191.554 36.1867 191.608 36.5733 191.608 37V37.04L191.568 37.08H187.928V33.44ZM188.088 33.44V37.08H184.448L184.408 37.04V37C184.408 36.5733 184.461 36.1867 184.568 35.84C184.674 35.4667 184.834 35.1333 185.048 34.84C185.261 34.52 185.514 34.2533 185.808 34.04C186.128 33.8267 186.461 33.6667 186.808 33.56C187.181 33.4533 187.581 33.4 188.008 33.4H188.048L188.088 33.44ZM188.088 36.56L188.048 36.6H188.008C187.581 36.6 187.181 36.5467 186.808 36.44C186.461 36.3333 186.128 36.1733 185.808 35.96C185.514 35.7467 185.261 35.4933 185.048 35.2C184.834 34.88 184.674 34.5467 184.568 34.2C184.461 33.8267 184.408 33.4267 184.408 33V32.96L184.448 32.92H188.088V36.56ZM187.928 36.56V32.92H191.568L191.608 32.96V33C191.608 33.4267 191.554 33.8267 191.448 34.2C191.341 34.5467 191.181 34.88 190.968 35.2C190.754 35.4933 190.488 35.7467 190.168 35.96C189.874 36.1733 189.541 36.3333 189.168 36.44C188.821 36.5467 188.434 36.6 188.008 36.6H187.968L187.928 36.56ZM187.928 29.44L187.968 29.4H188.008C188.434 29.4 188.821 29.4533 189.168 29.56C189.541 29.6667 189.874 29.8267 190.168 30.04C190.488 30.2533 190.754 30.52 190.968 30.84C191.181 31.1333 191.341 31.4667 191.448 31.84C191.554 32.1867 191.608 32.5733 191.608 33V33.04L191.568 33.08H187.928V29.44ZM188.088 29.44V33.08H184.448L184.408 33.04V33C184.408 32.5733 184.461 32.1867 184.568 31.84C184.674 31.4667 184.834 31.1333 185.048 30.84C185.261 30.52 185.514 30.2533 185.808 30.04C186.128 29.8267 186.461 29.6667 186.808 29.56C187.181 29.4533 187.581 29.4 188.008 29.4H188.048L188.088 29.44ZM192.088 56.56L192.048 56.6H192.008C191.581 56.6 191.181 56.5467 190.808 56.44C190.461 56.3333 190.128 56.1733 189.808 55.96C189.514 55.7467 189.261 55.48 189.048 55.16C188.834 54.8667 188.674 54.5467 188.568 54.2C188.461 53.8267 188.408 53.4267 188.408 53V52.96L188.448 52.92H192.088V56.56ZM191.928 56.56V52.92H195.568L195.608 52.96V53C195.608 53.4267 195.554 53.8267 195.448 54.2C195.341 54.5467 195.181 54.8667 194.968 55.16C194.754 55.48 194.488 55.7467 194.168 55.96C193.874 56.1733 193.541 56.3333 193.168 56.44C192.821 56.5467 192.434 56.6 192.008 56.6H191.968L191.928 56.56ZM191.928 49.44L191.968 49.4H192.008C192.434 49.4 192.821 49.4533 193.168 49.56C193.541 49.6667 193.874 49.8267 194.168 50.04C194.488 50.2533 194.754 50.52 194.968 50.84C195.181 51.1333 195.341 51.4667 195.448 51.84C195.554 52.1867 195.608 52.5733 195.608 53V53.04L195.568 53.08H191.928V49.44ZM192.088 49.44V53.08H188.448L188.408 53.04V53C188.408 52.5733 188.461 52.1867 188.568 51.84C188.674 51.4667 188.834 51.1333 189.048 50.84C189.261 50.52 189.514 50.2533 189.808 50.04C190.128 49.8267 190.461 49.6667 190.808 49.56C191.181 49.4533 191.581 49.4 192.008 49.4H192.048L192.088 49.44ZM192.088 40.56L192.048 40.6H192.008C191.581 40.6 191.181 40.5467 190.808 40.44C190.461 40.3333 190.128 40.1733 189.808 39.96C189.514 39.7467 189.261 39.4933 189.048 39.2C188.834 38.88 188.674 38.5467 188.568 38.2C188.461 37.8267 188.408 37.4267 188.408 37V36.96L188.448 36.92H192.088V40.56ZM191.928 40.56V36.92H195.568L195.608 36.96V37C195.608 37.4267 195.554 37.8267 195.448 38.2C195.341 38.5467 195.181 38.88 194.968 39.2C194.754 39.4933 194.488 39.7467 194.168 39.96C193.874 40.1733 193.541 40.3333 193.168 40.44C192.821 40.5467 192.434 40.6 192.008 40.6H191.968L191.928 40.56ZM191.928 33.44L191.968 33.4H192.008C192.434 33.4 192.821 33.4533 193.168 33.56C193.541 33.6667 193.874 33.8267 194.168 34.04C194.488 34.2533 194.754 34.52 194.968 34.84C195.181 35.1333 195.341 35.4667 195.448 35.84C195.554 36.1867 195.608 36.5733 195.608 37V37.04L195.568 37.08H191.928V33.44ZM192.088 33.44V37.08H188.448L188.408 37.04V37C188.408 36.5733 188.461 36.1867 188.568 35.84C188.674 35.4667 188.834 35.1333 189.048 34.84C189.261 34.52 189.514 34.2533 189.808 34.04C190.128 33.8267 190.461 33.6667 190.808 33.56C191.181 33.4533 191.581 33.4 192.008 33.4H192.048L192.088 33.44ZM196.088 56.56L196.048 56.6H196.008C195.581 56.6 195.181 56.5467 194.808 56.44C194.461 56.3333 194.128 56.1733 193.808 55.96C193.514 55.7467 193.261 55.48 193.048 55.16C192.834 54.8667 192.674 54.5467 192.568 54.2C192.461 53.8267 192.408 53.4267 192.408 53V52.96L192.448 52.92H196.088V56.56ZM195.928 56.56V52.92H199.568L199.608 52.96V53C199.608 53.4267 199.554 53.8267 199.448 54.2C199.341 54.5467 199.181 54.8667 198.968 55.16C198.754 55.48 198.488 55.7467 198.168 55.96C197.874 56.1733 197.541 56.3333 197.168 56.44C196.821 56.5467 196.434 56.6 196.008 56.6H195.968L195.928 56.56ZM195.928 49.44L195.968 49.4H196.008C196.434 49.4 196.821 49.4533 197.168 49.56C197.541 49.6667 197.874 49.8267 198.168 50.04C198.488 50.2533 198.754 50.52 198.968 50.84C199.181 51.1333 199.341 51.4667 199.448 51.84C199.554 52.1867 199.608 52.5733 199.608 53V53.04L199.568 53.08H195.928V49.44ZM196.088 49.44V53.08H192.448L192.408 53.04V53C192.408 52.5733 192.461 52.1867 192.568 51.84C192.674 51.4667 192.834 51.1333 193.048 50.84C193.261 50.52 193.514 50.2533 193.808 50.04C194.128 49.8267 194.461 49.6667 194.808 49.56C195.181 49.4533 195.581 49.4 196.008 49.4H196.048L196.088 49.44ZM196.088 40.56L196.048 40.6H196.008C195.581 40.6 195.181 40.5467 194.808 40.44C194.461 40.3333 194.128 40.1733 193.808 39.96C193.514 39.7467 193.261 39.4933 193.048 39.2C192.834 38.88 192.674 38.5467 192.568 38.2C192.461 37.8267 192.408 37.4267 192.408 37V36.96L192.448 36.92H196.088V40.56ZM195.928 40.56V36.92H199.568L199.608 36.96V37C199.608 37.4267 199.554 37.8267 199.448 38.2C199.341 38.5467 199.181 38.88 198.968 39.2C198.754 39.4933 198.488 39.7467 198.168 39.96C197.874 40.1733 197.541 40.3333 197.168 40.44C196.821 40.5467 196.434 40.6 196.008 40.6H195.968L195.928 40.56ZM195.928 33.44L195.968 33.4H196.008C196.434 33.4 196.821 33.4533 197.168 33.56C197.541 33.6667 197.874 33.8267 198.168 34.04C198.488 34.2533 198.754 34.52 198.968 34.84C199.181 35.1333 199.341 35.4667 199.448 35.84C199.554 36.1867 199.608 36.5733 199.608 37V37.04L199.568 37.08H195.928V33.44ZM196.088 33.44V37.08H192.448L192.408 37.04V37C192.408 36.5733 192.461 36.1867 192.568 35.84C192.674 35.4667 192.834 35.1333 193.048 34.84C193.261 34.52 193.514 34.2533 193.808 34.04C194.128 33.8267 194.461 33.6667 194.808 33.56C195.181 33.4533 195.581 33.4 196.008 33.4H196.048L196.088 33.44ZM200.088 56.56L200.048 56.6H200.008C199.581 56.6 199.181 56.5467 198.808 56.44C198.461 56.3333 198.128 56.1733 197.808 55.96C197.514 55.7467 197.261 55.48 197.048 55.16C196.834 54.8667 196.674 54.5467 196.568 54.2C196.461 53.8267 196.408 53.4267 196.408 53V52.96L196.448 52.92H200.088V56.56ZM199.928 56.56V52.92H203.568L203.608 52.96V53C203.608 53.4267 203.554 53.8267 203.448 54.2C203.341 54.5467 203.181 54.8667 202.968 55.16C202.754 55.48 202.488 55.7467 202.168 55.96C201.874 56.1733 201.541 56.3333 201.168 56.44C200.821 56.5467 200.434 56.6 200.008 56.6H199.968L199.928 56.56ZM199.928 49.44L199.968 49.4H200.008C200.434 49.4 200.821 49.4533 201.168 49.56C201.541 49.6667 201.874 49.8267 202.168 50.04C202.488 50.2533 202.754 50.52 202.968 50.84C203.181 51.1333 203.341 51.4667 203.448 51.84C203.554 52.1867 203.608 52.5733 203.608 53V53.04L203.568 53.08H199.928V49.44ZM200.088 49.44V53.08H196.448L196.408 53.04V53C196.408 52.5733 196.461 52.1867 196.568 51.84C196.674 51.4667 196.834 51.1333 197.048 50.84C197.261 50.52 197.514 50.2533 197.808 50.04C198.128 49.8267 198.461 49.6667 198.808 49.56C199.181 49.4533 199.581 49.4 200.008 49.4H200.048L200.088 49.44ZM200.088 40.56L200.048 40.6H200.008C199.581 40.6 199.181 40.5467 198.808 40.44C198.461 40.3333 198.128 40.1733 197.808 39.96C197.514 39.7467 197.261 39.4933 197.048 39.2C196.834 38.88 196.674 38.5467 196.568 38.2C196.461 37.8267 196.408 37.4267 196.408 37V36.96L196.448 36.92H200.088V40.56ZM199.928 40.56V36.92H203.568L203.608 36.96V37C203.608 37.4267 203.554 37.8267 203.448 38.2C203.341 38.5467 203.181 38.88 202.968 39.2C202.754 39.4933 202.488 39.7467 202.168 39.96C201.874 40.1733 201.541 40.3333 201.168 40.44C200.821 40.5467 200.434 40.6 200.008 40.6H199.968L199.928 40.56ZM199.928 33.44L199.968 33.4H200.008C200.434 33.4 200.821 33.4533 201.168 33.56C201.541 33.6667 201.874 33.8267 202.168 34.04C202.488 34.2533 202.754 34.52 202.968 34.84C203.181 35.1333 203.341 35.4667 203.448 35.84C203.554 36.1867 203.608 36.5733 203.608 37V37.04L203.568 37.08H199.928V33.44ZM200.088 33.44V37.08H196.448L196.408 37.04V37C196.408 36.5733 196.461 36.1867 196.568 35.84C196.674 35.4667 196.834 35.1333 197.048 34.84C197.261 34.52 197.514 34.2533 197.808 34.04C198.128 33.8267 198.461 33.6667 198.808 33.56C199.181 33.4533 199.581 33.4 200.008 33.4H200.048L200.088 33.44ZM210.072 52.56L210.032 52.6H209.992C209.566 52.6 209.166 52.5467 208.792 52.44C208.446 52.3333 208.126 52.1733 207.832 51.96C207.512 51.7467 207.246 51.4933 207.032 51.2C206.819 50.88 206.659 50.5467 206.552 50.2C206.446 49.8267 206.392 49.4267 206.392 49V48.96L206.432 48.92H210.072V52.56ZM209.912 52.56V48.92H213.552L213.592 48.96V49C213.592 49.4267 213.539 49.8267 213.432 50.2C213.326 50.5467 213.166 50.88 212.952 51.2C212.739 51.4933 212.472 51.7467 212.152 51.96C211.859 52.1733 211.526 52.3333 211.152 52.44C210.806 52.5467 210.419 52.6 209.992 52.6H209.952L209.912 52.56ZM209.912 45.44L209.952 45.4H209.992C210.419 45.4 210.806 45.4533 211.152 45.56C211.526 45.6667 211.859 45.8267 212.152 46.04C212.472 46.2533 212.739 46.52 212.952 46.84C213.166 47.1333 213.326 47.4667 213.432 47.84C213.539 48.1867 213.592 48.5733 213.592 49V49.04L213.552 49.08H209.912V45.44ZM210.072 45.44V49.08H206.432L206.392 49.04V49C206.392 48.5733 206.446 48.1867 206.552 47.84C206.659 47.4667 206.819 47.1333 207.032 46.84C207.246 46.52 207.512 46.2533 207.832 46.04C208.126 45.8267 208.446 45.6667 208.792 45.56C209.166 45.4533 209.566 45.4 209.992 45.4H210.032L210.072 45.44ZM214.072 56.56L214.032 56.6H213.992C213.566 56.6 213.166 56.5467 212.792 56.44C212.446 56.3333 212.112 56.1733 211.792 55.96C211.499 55.7467 211.246 55.48 211.032 55.16C210.819 54.8667 210.659 54.5467 210.552 54.2C210.446 53.8267 210.392 53.4267 210.392 53V52.96L210.432 52.92H214.072V56.56ZM213.912 56.56V52.92H217.552L217.592 52.96V53C217.592 53.4267 217.539 53.8267 217.432 54.2C217.326 54.5467 217.166 54.8667 216.952 55.16C216.739 55.48 216.472 55.7467 216.152 55.96C215.859 56.1733 215.526 56.3333 215.152 56.44C214.806 56.5467 214.419 56.6 213.992 56.6H213.952L213.912 56.56ZM213.912 49.44L213.952 49.4H213.992C214.419 49.4 214.806 49.4533 215.152 49.56C215.526 49.6667 215.859 49.8267 216.152 50.04C216.472 50.2533 216.739 50.52 216.952 50.84C217.166 51.1333 217.326 51.4667 217.432 51.84C217.539 52.1867 217.592 52.5733 217.592 53V53.04L217.552 53.08H213.912V49.44ZM214.072 49.44V53.08H210.432L210.392 53.04V53C210.392 52.5733 210.446 52.1867 210.552 51.84C210.659 51.4667 210.819 51.1333 211.032 50.84C211.246 50.52 211.499 50.2533 211.792 50.04C212.112 49.8267 212.446 49.6667 212.792 49.56C213.166 49.4533 213.566 49.4 213.992 49.4H214.032L214.072 49.44ZM214.072 48.56L214.032 48.6H213.992C213.566 48.6 213.166 48.5467 212.792 48.44C212.446 48.3333 212.112 48.1733 211.792 47.96C211.499 47.7467 211.246 47.4933 211.032 47.2C210.819 46.88 210.659 46.5467 210.552 46.2C210.446 45.8267 210.392 45.4267 210.392 45V44.96L210.432 44.92H214.072V48.56ZM213.912 48.56V44.92H217.552L217.592 44.96V45C217.592 45.4267 217.539 45.8267 217.432 46.2C217.326 46.5467 217.166 46.88 216.952 47.2C216.739 47.4933 216.472 47.7467 216.152 47.96C215.859 48.1733 215.526 48.3333 215.152 48.44C214.806 48.5467 214.419 48.6 213.992 48.6H213.952L213.912 48.56ZM213.912 41.44L213.952 41.4H213.992C214.419 41.4 214.806 41.4533 215.152 41.56C215.526 41.6667 215.859 41.8267 216.152 42.04C216.472 42.2533 216.739 42.52 216.952 42.84C217.166 43.1333 217.326 43.4667 217.432 43.84C217.539 44.1867 217.592 44.5733 217.592 45V45.04L217.552 45.08H213.912V41.44ZM214.072 41.44V45.08H210.432L210.392 45.04V45C210.392 44.5733 210.446 44.1867 210.552 43.84C210.659 43.4667 210.819 43.1333 211.032 42.84C211.246 42.52 211.499 42.2533 211.792 42.04C212.112 41.8267 212.446 41.6667 212.792 41.56C213.166 41.4533 213.566 41.4 213.992 41.4H214.032L214.072 41.44ZM214.072 40.56L214.032 40.6H213.992C213.566 40.6 213.166 40.5467 212.792 40.44C212.446 40.3333 212.112 40.1733 211.792 39.96C211.499 39.7467 211.246 39.4933 211.032 39.2C210.819 38.88 210.659 38.5467 210.552 38.2C210.446 37.8267 210.392 37.4267 210.392 37V36.96L210.432 36.92H214.072V40.56ZM213.912 40.56V36.92H217.552L217.592 36.96V37C217.592 37.4267 217.539 37.8267 217.432 38.2C217.326 38.5467 217.166 38.88 216.952 39.2C216.739 39.4933 216.472 39.7467 216.152 39.96C215.859 40.1733 215.526 40.3333 215.152 40.44C214.806 40.5467 214.419 40.6 213.992 40.6H213.952L213.912 40.56ZM213.912 33.44L213.952 33.4H213.992C214.419 33.4 214.806 33.4533 215.152 33.56C215.526 33.6667 215.859 33.8267 216.152 34.04C216.472 34.2533 216.739 34.52 216.952 34.84C217.166 35.1333 217.326 35.4667 217.432 35.84C217.539 36.1867 217.592 36.5733 217.592 37V37.04L217.552 37.08H213.912V33.44ZM214.072 33.44V37.08H210.432L210.392 37.04V37C210.392 36.5733 210.446 36.1867 210.552 35.84C210.659 35.4667 210.819 35.1333 211.032 34.84C211.246 34.52 211.499 34.2533 211.792 34.04C212.112 33.8267 212.446 33.6667 212.792 33.56C213.166 33.4533 213.566 33.4 213.992 33.4H214.032L214.072 33.44ZM218.072 56.56L218.032 56.6H217.992C217.566 56.6 217.166 56.5467 216.792 56.44C216.446 56.3333 216.112 56.1733 215.792 55.96C215.499 55.7467 215.246 55.48 215.032 55.16C214.819 54.8667 214.659 54.5467 214.552 54.2C214.446 53.8267 214.392 53.4267 214.392 53V52.96L214.432 52.92H218.072V56.56ZM217.912 56.56V52.92H221.552L221.592 52.96V53C221.592 53.4267 221.539 53.8267 221.432 54.2C221.326 54.5467 221.166 54.8667 220.952 55.16C220.739 55.48 220.472 55.7467 220.152 55.96C219.859 56.1733 219.526 56.3333 219.152 56.44C218.806 56.5467 218.419 56.6 217.992 56.6H217.952L217.912 56.56ZM217.912 49.44L217.952 49.4H217.992C218.419 49.4 218.806 49.4533 219.152 49.56C219.526 49.6667 219.859 49.8267 220.152 50.04C220.472 50.2533 220.739 50.52 220.952 50.84C221.166 51.1333 221.326 51.4667 221.432 51.84C221.539 52.1867 221.592 52.5733 221.592 53V53.04L221.552 53.08H217.912V49.44ZM218.072 49.44V53.08H214.432L214.392 53.04V53C214.392 52.5733 214.446 52.1867 214.552 51.84C214.659 51.4667 214.819 51.1333 215.032 50.84C215.246 50.52 215.499 50.2533 215.792 50.04C216.112 49.8267 216.446 49.6667 216.792 49.56C217.166 49.4533 217.566 49.4 217.992 49.4H218.032L218.072 49.44ZM218.072 48.56L218.032 48.6H217.992C217.566 48.6 217.166 48.5467 216.792 48.44C216.446 48.3333 216.112 48.1733 215.792 47.96C215.499 47.7467 215.246 47.4933 215.032 47.2C214.819 46.88 214.659 46.5467 214.552 46.2C214.446 45.8267 214.392 45.4267 214.392 45V44.96L214.432 44.92H218.072V48.56ZM217.912 48.56V44.92H221.552L221.592 44.96V45C221.592 45.4267 221.539 45.8267 221.432 46.2C221.326 46.5467 221.166 46.88 220.952 47.2C220.739 47.4933 220.472 47.7467 220.152 47.96C219.859 48.1733 219.526 48.3333 219.152 48.44C218.806 48.5467 218.419 48.6 217.992 48.6H217.952L217.912 48.56ZM217.912 41.44L217.952 41.4H217.992C218.419 41.4 218.806 41.4533 219.152 41.56C219.526 41.6667 219.859 41.8267 220.152 42.04C220.472 42.2533 220.739 42.52 220.952 42.84C221.166 43.1333 221.326 43.4667 221.432 43.84C221.539 44.1867 221.592 44.5733 221.592 45V45.04L221.552 45.08H217.912V41.44ZM218.072 41.44V45.08H214.432L214.392 45.04V45C214.392 44.5733 214.446 44.1867 214.552 43.84C214.659 43.4667 214.819 43.1333 215.032 42.84C215.246 42.52 215.499 42.2533 215.792 42.04C216.112 41.8267 216.446 41.6667 216.792 41.56C217.166 41.4533 217.566 41.4 217.992 41.4H218.032L218.072 41.44ZM218.072 40.56L218.032 40.6H217.992C217.566 40.6 217.166 40.5467 216.792 40.44C216.446 40.3333 216.112 40.1733 215.792 39.96C215.499 39.7467 215.246 39.4933 215.032 39.2C214.819 38.88 214.659 38.5467 214.552 38.2C214.446 37.8267 214.392 37.4267 214.392 37V36.96L214.432 36.92H218.072V40.56ZM217.912 40.56V36.92H221.552L221.592 36.96V37C221.592 37.4267 221.539 37.8267 221.432 38.2C221.326 38.5467 221.166 38.88 220.952 39.2C220.739 39.4933 220.472 39.7467 220.152 39.96C219.859 40.1733 219.526 40.3333 219.152 40.44C218.806 40.5467 218.419 40.6 217.992 40.6H217.952L217.912 40.56ZM217.912 33.44L217.952 33.4H217.992C218.419 33.4 218.806 33.4533 219.152 33.56C219.526 33.6667 219.859 33.8267 220.152 34.04C220.472 34.2533 220.739 34.52 220.952 34.84C221.166 35.1333 221.326 35.4667 221.432 35.84C221.539 36.1867 221.592 36.5733 221.592 37V37.04L221.552 37.08H217.912V33.44ZM218.072 33.44V37.08H214.432L214.392 37.04V37C214.392 36.5733 214.446 36.1867 214.552 35.84C214.659 35.4667 214.819 35.1333 215.032 34.84C215.246 34.52 215.499 34.2533 215.792 34.04C216.112 33.8267 216.446 33.6667 216.792 33.56C217.166 33.4533 217.566 33.4 217.992 33.4H218.032L218.072 33.44ZM222.072 48.56L222.032 48.6H221.992C221.566 48.6 221.166 48.5467 220.792 48.44C220.446 48.3333 220.112 48.1733 219.792 47.96C219.499 47.7467 219.246 47.4933 219.032 47.2C218.819 46.88 218.659 46.5467 218.552 46.2C218.446 45.8267 218.392 45.4267 218.392 45V44.96L218.432 44.92H222.072V48.56ZM221.912 48.56V44.92H225.552L225.592 44.96V45C225.592 45.4267 225.539 45.8267 225.432 46.2C225.326 46.5467 225.166 46.88 224.952 47.2C224.739 47.4933 224.472 47.7467 224.152 47.96C223.859 48.1733 223.526 48.3333 223.152 48.44C222.806 48.5467 222.419 48.6 221.992 48.6H221.952L221.912 48.56ZM221.912 41.44L221.952 41.4H221.992C222.419 41.4 222.806 41.4533 223.152 41.56C223.526 41.6667 223.859 41.8267 224.152 42.04C224.472 42.2533 224.739 42.52 224.952 42.84C225.166 43.1333 225.326 43.4667 225.432 43.84C225.539 44.1867 225.592 44.5733 225.592 45V45.04L225.552 45.08H221.912V41.44ZM222.072 41.44V45.08H218.432L218.392 45.04V45C218.392 44.5733 218.446 44.1867 218.552 43.84C218.659 43.4667 218.819 43.1333 219.032 42.84C219.246 42.52 219.499 42.2533 219.792 42.04C220.112 41.8267 220.446 41.6667 220.792 41.56C221.166 41.4533 221.566 41.4 221.992 41.4H222.032L222.072 41.44ZM222.072 40.56L222.032 40.6H221.992C221.566 40.6 221.166 40.5467 220.792 40.44C220.446 40.3333 220.112 40.1733 219.792 39.96C219.499 39.7467 219.246 39.4933 219.032 39.2C218.819 38.88 218.659 38.5467 218.552 38.2C218.446 37.8267 218.392 37.4267 218.392 37V36.96L218.432 36.92H222.072V40.56ZM221.912 40.56V36.92H225.552L225.592 36.96V37C225.592 37.4267 225.539 37.8267 225.432 38.2C225.326 38.5467 225.166 38.88 224.952 39.2C224.739 39.4933 224.472 39.7467 224.152 39.96C223.859 40.1733 223.526 40.3333 223.152 40.44C222.806 40.5467 222.419 40.6 221.992 40.6H221.952L221.912 40.56ZM221.912 33.44L221.952 33.4H221.992C222.419 33.4 222.806 33.4533 223.152 33.56C223.526 33.6667 223.859 33.8267 224.152 34.04C224.472 34.2533 224.739 34.52 224.952 34.84C225.166 35.1333 225.326 35.4667 225.432 35.84C225.539 36.1867 225.592 36.5733 225.592 37V37.04L225.552 37.08H221.912V33.44ZM222.072 33.44V37.08H218.432L218.392 37.04V37C218.392 36.5733 218.446 36.1867 218.552 35.84C218.659 35.4667 218.819 35.1333 219.032 34.84C219.246 34.52 219.499 34.2533 219.792 34.04C220.112 33.8267 220.446 33.6667 220.792 33.56C221.166 33.4533 221.566 33.4 221.992 33.4H222.032L222.072 33.44ZM226.072 56.56L226.032 56.6H225.992C225.566 56.6 225.166 56.5467 224.792 56.44C224.446 56.3333 224.112 56.1733 223.792 55.96C223.499 55.7467 223.246 55.48 223.032 55.16C222.819 54.8667 222.659 54.5467 222.552 54.2C222.446 53.8267 222.392 53.4267 222.392 53V52.96L222.432 52.92H226.072V56.56ZM225.912 56.56V52.92H229.552L229.592 52.96V53C229.592 53.4267 229.539 53.8267 229.432 54.2C229.326 54.5467 229.166 54.8667 228.952 55.16C228.739 55.48 228.472 55.7467 228.152 55.96C227.859 56.1733 227.526 56.3333 227.152 56.44C226.806 56.5467 226.419 56.6 225.992 56.6H225.952L225.912 56.56ZM225.912 49.44L225.952 49.4H225.992C226.419 49.4 226.806 49.4533 227.152 49.56C227.526 49.6667 227.859 49.8267 228.152 50.04C228.472 50.2533 228.739 50.52 228.952 50.84C229.166 51.1333 229.326 51.4667 229.432 51.84C229.539 52.1867 229.592 52.5733 229.592 53V53.04L229.552 53.08H225.912V49.44ZM226.072 49.44V53.08H222.432L222.392 53.04V53C222.392 52.5733 222.446 52.1867 222.552 51.84C222.659 51.4667 222.819 51.1333 223.032 50.84C223.246 50.52 223.499 50.2533 223.792 50.04C224.112 49.8267 224.446 49.6667 224.792 49.56C225.166 49.4533 225.566 49.4 225.992 49.4H226.032L226.072 49.44ZM226.072 52.56L226.032 52.6H225.992C225.566 52.6 225.166 52.5467 224.792 52.44C224.446 52.3333 224.112 52.1733 223.792 51.96C223.499 51.7467 223.246 51.4933 223.032 51.2C222.819 50.88 222.659 50.5467 222.552 50.2C222.446 49.8267 222.392 49.4267 222.392 49V48.96L222.432 48.92H226.072V52.56ZM225.912 52.56V48.92H229.552L229.592 48.96V49C229.592 49.4267 229.539 49.8267 229.432 50.2C229.326 50.5467 229.166 50.88 228.952 51.2C228.739 51.4933 228.472 51.7467 228.152 51.96C227.859 52.1733 227.526 52.3333 227.152 52.44C226.806 52.5467 226.419 52.6 225.992 52.6H225.952L225.912 52.56ZM225.912 45.44L225.952 45.4H225.992C226.419 45.4 226.806 45.4533 227.152 45.56C227.526 45.6667 227.859 45.8267 228.152 46.04C228.472 46.2533 228.739 46.52 228.952 46.84C229.166 47.1333 229.326 47.4667 229.432 47.84C229.539 48.1867 229.592 48.5733 229.592 49V49.04L229.552 49.08H225.912V45.44ZM226.072 45.44V49.08H222.432L222.392 49.04V49C222.392 48.5733 222.446 48.1867 222.552 47.84C222.659 47.4667 222.819 47.1333 223.032 46.84C223.246 46.52 223.499 46.2533 223.792 46.04C224.112 45.8267 224.446 45.6667 224.792 45.56C225.166 45.4533 225.566 45.4 225.992 45.4H226.032L226.072 45.44ZM226.072 48.56L226.032 48.6H225.992C225.566 48.6 225.166 48.5467 224.792 48.44C224.446 48.3333 224.112 48.1733 223.792 47.96C223.499 47.7467 223.246 47.4933 223.032 47.2C222.819 46.88 222.659 46.5467 222.552 46.2C222.446 45.8267 222.392 45.4267 222.392 45V44.96L222.432 44.92H226.072V48.56ZM225.912 48.56V44.92H229.552L229.592 44.96V45C229.592 45.4267 229.539 45.8267 229.432 46.2C229.326 46.5467 229.166 46.88 228.952 47.2C228.739 47.4933 228.472 47.7467 228.152 47.96C227.859 48.1733 227.526 48.3333 227.152 48.44C226.806 48.5467 226.419 48.6 225.992 48.6H225.952L225.912 48.56ZM225.912 41.44L225.952 41.4H225.992C226.419 41.4 226.806 41.4533 227.152 41.56C227.526 41.6667 227.859 41.8267 228.152 42.04C228.472 42.2533 228.739 42.52 228.952 42.84C229.166 43.1333 229.326 43.4667 229.432 43.84C229.539 44.1867 229.592 44.5733 229.592 45V45.04L229.552 45.08H225.912V41.44ZM226.072 41.44V45.08H222.432L222.392 45.04V45C222.392 44.5733 222.446 44.1867 222.552 43.84C222.659 43.4667 222.819 43.1333 223.032 42.84C223.246 42.52 223.499 42.2533 223.792 42.04C224.112 41.8267 224.446 41.6667 224.792 41.56C225.166 41.4533 225.566 41.4 225.992 41.4H226.032L226.072 41.44ZM226.072 44.56L226.032 44.6H225.992C225.566 44.6 225.166 44.5467 224.792 44.44C224.446 44.3333 224.112 44.1733 223.792 43.96C223.499 43.7467 223.246 43.4933 223.032 43.2C222.819 42.88 222.659 42.5467 222.552 42.2C222.446 41.8267 222.392 41.4267 222.392 41V40.96L222.432 40.92H226.072V44.56ZM225.912 44.56V40.92H229.552L229.592 40.96V41C229.592 41.4267 229.539 41.8267 229.432 42.2C229.326 42.5467 229.166 42.88 228.952 43.2C228.739 43.4933 228.472 43.7467 228.152 43.96C227.859 44.1733 227.526 44.3333 227.152 44.44C226.806 44.5467 226.419 44.6 225.992 44.6H225.952L225.912 44.56ZM225.912 37.44L225.952 37.4H225.992C226.419 37.4 226.806 37.4533 227.152 37.56C227.526 37.6667 227.859 37.8267 228.152 38.04C228.472 38.2533 228.739 38.52 228.952 38.84C229.166 39.1333 229.326 39.4667 229.432 39.84C229.539 40.1867 229.592 40.5733 229.592 41V41.04L229.552 41.08H225.912V37.44ZM226.072 37.44V41.08H222.432L222.392 41.04V41C222.392 40.5733 222.446 40.1867 222.552 39.84C222.659 39.4667 222.819 39.1333 223.032 38.84C223.246 38.52 223.499 38.2533 223.792 38.04C224.112 37.8267 224.446 37.6667 224.792 37.56C225.166 37.4533 225.566 37.4 225.992 37.4H226.032L226.072 37.44ZM236.057 52.56L236.017 52.6H235.977C235.55 52.6 235.15 52.5467 234.777 52.44C234.43 52.3333 234.11 52.1733 233.817 51.96C233.497 51.7467 233.23 51.4933 233.017 51.2C232.803 50.88 232.643 50.5467 232.537 50.2C232.43 49.8267 232.377 49.4267 232.377 49V48.96L232.417 48.92H236.057V52.56ZM235.897 52.56V48.92H239.537L239.577 48.96V49C239.577 49.4267 239.523 49.8267 239.417 50.2C239.31 50.5467 239.15 50.88 238.937 51.2C238.723 51.4933 238.457 51.7467 238.137 51.96C237.843 52.1733 237.51 52.3333 237.137 52.44C236.79 52.5467 236.403 52.6 235.977 52.6H235.937L235.897 52.56ZM235.897 45.44L235.937 45.4H235.977C236.403 45.4 236.79 45.4533 237.137 45.56C237.51 45.6667 237.843 45.8267 238.137 46.04C238.457 46.2533 238.723 46.52 238.937 46.84C239.15 47.1333 239.31 47.4667 239.417 47.84C239.523 48.1867 239.577 48.5733 239.577 49V49.04L239.537 49.08H235.897V45.44ZM236.057 45.44V49.08H232.417L232.377 49.04V49C232.377 48.5733 232.43 48.1867 232.537 47.84C232.643 47.4667 232.803 47.1333 233.017 46.84C233.23 46.52 233.497 46.2533 233.817 46.04C234.11 45.8267 234.43 45.6667 234.777 45.56C235.15 45.4533 235.55 45.4 235.977 45.4H236.017L236.057 45.44ZM236.057 48.56L236.017 48.6H235.977C235.55 48.6 235.15 48.5467 234.777 48.44C234.43 48.3333 234.11 48.1733 233.817 47.96C233.497 47.7467 233.23 47.4933 233.017 47.2C232.803 46.88 232.643 46.5467 232.537 46.2C232.43 45.8267 232.377 45.4267 232.377 45V44.96L232.417 44.92H236.057V48.56ZM235.897 48.56V44.92H239.537L239.577 44.96V45C239.577 45.4267 239.523 45.8267 239.417 46.2C239.31 46.5467 239.15 46.88 238.937 47.2C238.723 47.4933 238.457 47.7467 238.137 47.96C237.843 48.1733 237.51 48.3333 237.137 48.44C236.79 48.5467 236.403 48.6 235.977 48.6H235.937L235.897 48.56ZM235.897 41.44L235.937 41.4H235.977C236.403 41.4 236.79 41.4533 237.137 41.56C237.51 41.6667 237.843 41.8267 238.137 42.04C238.457 42.2533 238.723 42.52 238.937 42.84C239.15 43.1333 239.31 43.4667 239.417 43.84C239.523 44.1867 239.577 44.5733 239.577 45V45.04L239.537 45.08H235.897V41.44ZM236.057 41.44V45.08H232.417L232.377 45.04V45C232.377 44.5733 232.43 44.1867 232.537 43.84C232.643 43.4667 232.803 43.1333 233.017 42.84C233.23 42.52 233.497 42.2533 233.817 42.04C234.11 41.8267 234.43 41.6667 234.777 41.56C235.15 41.4533 235.55 41.4 235.977 41.4H236.017L236.057 41.44ZM236.057 44.56L236.017 44.6H235.977C235.55 44.6 235.15 44.5467 234.777 44.44C234.43 44.3333 234.11 44.1733 233.817 43.96C233.497 43.7467 233.23 43.4933 233.017 43.2C232.803 42.88 232.643 42.5467 232.537 42.2C232.43 41.8267 232.377 41.4267 232.377 41V40.96L232.417 40.92H236.057V44.56ZM235.897 44.56V40.92H239.537L239.577 40.96V41C239.577 41.4267 239.523 41.8267 239.417 42.2C239.31 42.5467 239.15 42.88 238.937 43.2C238.723 43.4933 238.457 43.7467 238.137 43.96C237.843 44.1733 237.51 44.3333 237.137 44.44C236.79 44.5467 236.403 44.6 235.977 44.6H235.937L235.897 44.56ZM235.897 37.44L235.937 37.4H235.977C236.403 37.4 236.79 37.4533 237.137 37.56C237.51 37.6667 237.843 37.8267 238.137 38.04C238.457 38.2533 238.723 38.52 238.937 38.84C239.15 39.1333 239.31 39.4667 239.417 39.84C239.523 40.1867 239.577 40.5733 239.577 41V41.04L239.537 41.08H235.897V37.44ZM236.057 37.44V41.08H232.417L232.377 41.04V41C232.377 40.5733 232.43 40.1867 232.537 39.84C232.643 39.4667 232.803 39.1333 233.017 38.84C233.23 38.52 233.497 38.2533 233.817 38.04C234.11 37.8267 234.43 37.6667 234.777 37.56C235.15 37.4533 235.55 37.4 235.977 37.4H236.017L236.057 37.44ZM240.057 56.56L240.017 56.6H239.977C239.55 56.6 239.15 56.5467 238.777 56.44C238.43 56.3333 238.097 56.1733 237.777 55.96C237.483 55.7467 237.23 55.48 237.017 55.16C236.803 54.8667 236.643 54.5467 236.537 54.2C236.43 53.8267 236.377 53.4267 236.377 53V52.96L236.417 52.92H240.057V56.56ZM239.897 56.56V52.92H243.537L243.577 52.96V53C243.577 53.4267 243.523 53.8267 243.417 54.2C243.31 54.5467 243.15 54.8667 242.937 55.16C242.723 55.48 242.457 55.7467 242.137 55.96C241.843 56.1733 241.51 56.3333 241.137 56.44C240.79 56.5467 240.403 56.6 239.977 56.6H239.937L239.897 56.56ZM239.897 49.44L239.937 49.4H239.977C240.403 49.4 240.79 49.4533 241.137 49.56C241.51 49.6667 241.843 49.8267 242.137 50.04C242.457 50.2533 242.723 50.52 242.937 50.84C243.15 51.1333 243.31 51.4667 243.417 51.84C243.523 52.1867 243.577 52.5733 243.577 53V53.04L243.537 53.08H239.897V49.44ZM240.057 49.44V53.08H236.417L236.377 53.04V53C236.377 52.5733 236.43 52.1867 236.537 51.84C236.643 51.4667 236.803 51.1333 237.017 50.84C237.23 50.52 237.483 50.2533 237.777 50.04C238.097 49.8267 238.43 49.6667 238.777 49.56C239.15 49.4533 239.55 49.4 239.977 49.4H240.017L240.057 49.44ZM240.057 40.56L240.017 40.6H239.977C239.55 40.6 239.15 40.5467 238.777 40.44C238.43 40.3333 238.097 40.1733 237.777 39.96C237.483 39.7467 237.23 39.4933 237.017 39.2C236.803 38.88 236.643 38.5467 236.537 38.2C236.43 37.8267 236.377 37.4267 236.377 37V36.96L236.417 36.92H240.057V40.56ZM239.897 40.56V36.92H243.537L243.577 36.96V37C243.577 37.4267 243.523 37.8267 243.417 38.2C243.31 38.5467 243.15 38.88 242.937 39.2C242.723 39.4933 242.457 39.7467 242.137 39.96C241.843 40.1733 241.51 40.3333 241.137 40.44C240.79 40.5467 240.403 40.6 239.977 40.6H239.937L239.897 40.56ZM239.897 33.44L239.937 33.4H239.977C240.403 33.4 240.79 33.4533 241.137 33.56C241.51 33.6667 241.843 33.8267 242.137 34.04C242.457 34.2533 242.723 34.52 242.937 34.84C243.15 35.1333 243.31 35.4667 243.417 35.84C243.523 36.1867 243.577 36.5733 243.577 37V37.04L243.537 37.08H239.897V33.44ZM240.057 33.44V37.08H236.417L236.377 37.04V37C236.377 36.5733 236.43 36.1867 236.537 35.84C236.643 35.4667 236.803 35.1333 237.017 34.84C237.23 34.52 237.483 34.2533 237.777 34.04C238.097 33.8267 238.43 33.6667 238.777 33.56C239.15 33.4533 239.55 33.4 239.977 33.4H240.017L240.057 33.44ZM244.057 56.56L244.017 56.6H243.977C243.55 56.6 243.15 56.5467 242.777 56.44C242.43 56.3333 242.097 56.1733 241.777 55.96C241.483 55.7467 241.23 55.48 241.017 55.16C240.803 54.8667 240.643 54.5467 240.537 54.2C240.43 53.8267 240.377 53.4267 240.377 53V52.96L240.417 52.92H244.057V56.56ZM243.897 56.56V52.92H247.537L247.577 52.96V53C247.577 53.4267 247.523 53.8267 247.417 54.2C247.31 54.5467 247.15 54.8667 246.937 55.16C246.723 55.48 246.457 55.7467 246.137 55.96C245.843 56.1733 245.51 56.3333 245.137 56.44C244.79 56.5467 244.403 56.6 243.977 56.6H243.937L243.897 56.56ZM243.897 49.44L243.937 49.4H243.977C244.403 49.4 244.79 49.4533 245.137 49.56C245.51 49.6667 245.843 49.8267 246.137 50.04C246.457 50.2533 246.723 50.52 246.937 50.84C247.15 51.1333 247.31 51.4667 247.417 51.84C247.523 52.1867 247.577 52.5733 247.577 53V53.04L247.537 53.08H243.897V49.44ZM244.057 49.44V53.08H240.417L240.377 53.04V53C240.377 52.5733 240.43 52.1867 240.537 51.84C240.643 51.4667 240.803 51.1333 241.017 50.84C241.23 50.52 241.483 50.2533 241.777 50.04C242.097 49.8267 242.43 49.6667 242.777 49.56C243.15 49.4533 243.55 49.4 243.977 49.4H244.017L244.057 49.44ZM244.057 40.56L244.017 40.6H243.977C243.55 40.6 243.15 40.5467 242.777 40.44C242.43 40.3333 242.097 40.1733 241.777 39.96C241.483 39.7467 241.23 39.4933 241.017 39.2C240.803 38.88 240.643 38.5467 240.537 38.2C240.43 37.8267 240.377 37.4267 240.377 37V36.96L240.417 36.92H244.057V40.56ZM243.897 40.56V36.92H247.537L247.577 36.96V37C247.577 37.4267 247.523 37.8267 247.417 38.2C247.31 38.5467 247.15 38.88 246.937 39.2C246.723 39.4933 246.457 39.7467 246.137 39.96C245.843 40.1733 245.51 40.3333 245.137 40.44C244.79 40.5467 244.403 40.6 243.977 40.6H243.937L243.897 40.56ZM243.897 33.44L243.937 33.4H243.977C244.403 33.4 244.79 33.4533 245.137 33.56C245.51 33.6667 245.843 33.8267 246.137 34.04C246.457 34.2533 246.723 34.52 246.937 34.84C247.15 35.1333 247.31 35.4667 247.417 35.84C247.523 36.1867 247.577 36.5733 247.577 37V37.04L247.537 37.08H243.897V33.44ZM244.057 33.44V37.08H240.417L240.377 37.04V37C240.377 36.5733 240.43 36.1867 240.537 35.84C240.643 35.4667 240.803 35.1333 241.017 34.84C241.23 34.52 241.483 34.2533 241.777 34.04C242.097 33.8267 242.43 33.6667 242.777 33.56C243.15 33.4533 243.55 33.4 243.977 33.4H244.017L244.057 33.44ZM248.057 56.56L248.017 56.6H247.977C247.55 56.6 247.15 56.5467 246.777 56.44C246.43 56.3333 246.097 56.1733 245.777 55.96C245.483 55.7467 245.23 55.48 245.017 55.16C244.803 54.8667 244.643 54.5467 244.537 54.2C244.43 53.8267 244.377 53.4267 244.377 53V52.96L244.417 52.92H248.057V56.56ZM247.897 56.56V52.92H251.537L251.577 52.96V53C251.577 53.4267 251.523 53.8267 251.417 54.2C251.31 54.5467 251.15 54.8667 250.937 55.16C250.723 55.48 250.457 55.7467 250.137 55.96C249.843 56.1733 249.51 56.3333 249.137 56.44C248.79 56.5467 248.403 56.6 247.977 56.6H247.937L247.897 56.56ZM247.897 49.44L247.937 49.4H247.977C248.403 49.4 248.79 49.4533 249.137 49.56C249.51 49.6667 249.843 49.8267 250.137 50.04C250.457 50.2533 250.723 50.52 250.937 50.84C251.15 51.1333 251.31 51.4667 251.417 51.84C251.523 52.1867 251.577 52.5733 251.577 53V53.04L251.537 53.08H247.897V49.44ZM248.057 49.44V53.08H244.417L244.377 53.04V53C244.377 52.5733 244.43 52.1867 244.537 51.84C244.643 51.4667 244.803 51.1333 245.017 50.84C245.23 50.52 245.483 50.2533 245.777 50.04C246.097 49.8267 246.43 49.6667 246.777 49.56C247.15 49.4533 247.55 49.4 247.977 49.4H248.017L248.057 49.44ZM248.057 40.56L248.017 40.6H247.977C247.55 40.6 247.15 40.5467 246.777 40.44C246.43 40.3333 246.097 40.1733 245.777 39.96C245.483 39.7467 245.23 39.4933 245.017 39.2C244.803 38.88 244.643 38.5467 244.537 38.2C244.43 37.8267 244.377 37.4267 244.377 37V36.96L244.417 36.92H248.057V40.56ZM247.897 40.56V36.92H251.537L251.577 36.96V37C251.577 37.4267 251.523 37.8267 251.417 38.2C251.31 38.5467 251.15 38.88 250.937 39.2C250.723 39.4933 250.457 39.7467 250.137 39.96C249.843 40.1733 249.51 40.3333 249.137 40.44C248.79 40.5467 248.403 40.6 247.977 40.6H247.937L247.897 40.56ZM247.897 33.44L247.937 33.4H247.977C248.403 33.4 248.79 33.4533 249.137 33.56C249.51 33.6667 249.843 33.8267 250.137 34.04C250.457 34.2533 250.723 34.52 250.937 34.84C251.15 35.1333 251.31 35.4667 251.417 35.84C251.523 36.1867 251.577 36.5733 251.577 37V37.04L251.537 37.08H247.897V33.44ZM248.057 33.44V37.08H244.417L244.377 37.04V37C244.377 36.5733 244.43 36.1867 244.537 35.84C244.643 35.4667 244.803 35.1333 245.017 34.84C245.23 34.52 245.483 34.2533 245.777 34.04C246.097 33.8267 246.43 33.6667 246.777 33.56C247.15 33.4533 247.55 33.4 247.977 33.4H248.017L248.057 33.44ZM252.057 52.56L252.017 52.6H251.977C251.55 52.6 251.15 52.5467 250.777 52.44C250.43 52.3333 250.097 52.1733 249.777 51.96C249.483 51.7467 249.23 51.4933 249.017 51.2C248.803 50.88 248.643 50.5467 248.537 50.2C248.43 49.8267 248.377 49.4267 248.377 49V48.96L248.417 48.92H252.057V52.56ZM251.897 52.56V48.92H255.537L255.577 48.96V49C255.577 49.4267 255.523 49.8267 255.417 50.2C255.31 50.5467 255.15 50.88 254.937 51.2C254.723 51.4933 254.457 51.7467 254.137 51.96C253.843 52.1733 253.51 52.3333 253.137 52.44C252.79 52.5467 252.403 52.6 251.977 52.6H251.937L251.897 52.56ZM251.897 45.44L251.937 45.4H251.977C252.403 45.4 252.79 45.4533 253.137 45.56C253.51 45.6667 253.843 45.8267 254.137 46.04C254.457 46.2533 254.723 46.52 254.937 46.84C255.15 47.1333 255.31 47.4667 255.417 47.84C255.523 48.1867 255.577 48.5733 255.577 49V49.04L255.537 49.08H251.897V45.44ZM252.057 45.44V49.08H248.417L248.377 49.04V49C248.377 48.5733 248.43 48.1867 248.537 47.84C248.643 47.4667 248.803 47.1333 249.017 46.84C249.23 46.52 249.483 46.2533 249.777 46.04C250.097 45.8267 250.43 45.6667 250.777 45.56C251.15 45.4533 251.55 45.4 251.977 45.4H252.017L252.057 45.44ZM252.057 40.56L252.017 40.6H251.977C251.55 40.6 251.15 40.5467 250.777 40.44C250.43 40.3333 250.097 40.1733 249.777 39.96C249.483 39.7467 249.23 39.4933 249.017 39.2C248.803 38.88 248.643 38.5467 248.537 38.2C248.43 37.8267 248.377 37.4267 248.377 37V36.96L248.417 36.92H252.057V40.56ZM251.897 40.56V36.92H255.537L255.577 36.96V37C255.577 37.4267 255.523 37.8267 255.417 38.2C255.31 38.5467 255.15 38.88 254.937 39.2C254.723 39.4933 254.457 39.7467 254.137 39.96C253.843 40.1733 253.51 40.3333 253.137 40.44C252.79 40.5467 252.403 40.6 251.977 40.6H251.937L251.897 40.56ZM251.897 33.44L251.937 33.4H251.977C252.403 33.4 252.79 33.4533 253.137 33.56C253.51 33.6667 253.843 33.8267 254.137 34.04C254.457 34.2533 254.723 34.52 254.937 34.84C255.15 35.1333 255.31 35.4667 255.417 35.84C255.523 36.1867 255.577 36.5733 255.577 37V37.04L255.537 37.08H251.897V33.44ZM252.057 33.44V37.08H248.417L248.377 37.04V37C248.377 36.5733 248.43 36.1867 248.537 35.84C248.643 35.4667 248.803 35.1333 249.017 34.84C249.23 34.52 249.483 34.2533 249.777 34.04C250.097 33.8267 250.43 33.6667 250.777 33.56C251.15 33.4533 251.55 33.4 251.977 33.4H252.017L252.057 33.44ZM262.041 40.56L262.001 40.6H261.961C261.534 40.6 261.134 40.5467 260.761 40.44C260.414 40.3333 260.094 40.1733 259.801 39.96C259.481 39.7467 259.214 39.4933 259.001 39.2C258.788 38.88 258.628 38.5467 258.521 38.2C258.414 37.8267 258.361 37.4267 258.361 37V36.96L258.401 36.92H262.041V40.56ZM261.881 40.56V36.92H265.521L265.561 36.96V37C265.561 37.4267 265.508 37.8267 265.401 38.2C265.294 38.5467 265.134 38.88 264.921 39.2C264.708 39.4933 264.441 39.7467 264.121 39.96C263.828 40.1733 263.494 40.3333 263.121 40.44C262.774 40.5467 262.388 40.6 261.961 40.6H261.921L261.881 40.56ZM261.881 33.44L261.921 33.4H261.961C262.388 33.4 262.774 33.4533 263.121 33.56C263.494 33.6667 263.828 33.8267 264.121 34.04C264.441 34.2533 264.708 34.52 264.921 34.84C265.134 35.1333 265.294 35.4667 265.401 35.84C265.508 36.1867 265.561 36.5733 265.561 37V37.04L265.521 37.08H261.881V33.44ZM262.041 33.44V37.08H258.401L258.361 37.04V37C258.361 36.5733 258.414 36.1867 258.521 35.84C258.628 35.4667 258.788 35.1333 259.001 34.84C259.214 34.52 259.481 34.2533 259.801 34.04C260.094 33.8267 260.414 33.6667 260.761 33.56C261.134 33.4533 261.534 33.4 261.961 33.4H262.001L262.041 33.44ZM266.041 52.56L266.001 52.6H265.961C265.534 52.6 265.134 52.5467 264.761 52.44C264.414 52.3333 264.081 52.1733 263.761 51.96C263.468 51.7467 263.214 51.4933 263.001 51.2C262.788 50.88 262.628 50.5467 262.521 50.2C262.414 49.8267 262.361 49.4267 262.361 49V48.96L262.401 48.92H266.041V52.56ZM265.881 52.56V48.92H269.521L269.561 48.96V49C269.561 49.4267 269.508 49.8267 269.401 50.2C269.294 50.5467 269.134 50.88 268.921 51.2C268.708 51.4933 268.441 51.7467 268.121 51.96C267.828 52.1733 267.494 52.3333 267.121 52.44C266.774 52.5467 266.388 52.6 265.961 52.6H265.921L265.881 52.56ZM265.881 45.44L265.921 45.4H265.961C266.388 45.4 266.774 45.4533 267.121 45.56C267.494 45.6667 267.828 45.8267 268.121 46.04C268.441 46.2533 268.708 46.52 268.921 46.84C269.134 47.1333 269.294 47.4667 269.401 47.84C269.508 48.1867 269.561 48.5733 269.561 49V49.04L269.521 49.08H265.881V45.44ZM266.041 45.44V49.08H262.401L262.361 49.04V49C262.361 48.5733 262.414 48.1867 262.521 47.84C262.628 47.4667 262.788 47.1333 263.001 46.84C263.214 46.52 263.468 46.2533 263.761 46.04C264.081 45.8267 264.414 45.6667 264.761 45.56C265.134 45.4533 265.534 45.4 265.961 45.4H266.001L266.041 45.44ZM266.041 48.56L266.001 48.6H265.961C265.534 48.6 265.134 48.5467 264.761 48.44C264.414 48.3333 264.081 48.1733 263.761 47.96C263.468 47.7467 263.214 47.4933 263.001 47.2C262.788 46.88 262.628 46.5467 262.521 46.2C262.414 45.8267 262.361 45.4267 262.361 45V44.96L262.401 44.92H266.041V48.56ZM265.881 48.56V44.92H269.521L269.561 44.96V45C269.561 45.4267 269.508 45.8267 269.401 46.2C269.294 46.5467 269.134 46.88 268.921 47.2C268.708 47.4933 268.441 47.7467 268.121 47.96C267.828 48.1733 267.494 48.3333 267.121 48.44C266.774 48.5467 266.388 48.6 265.961 48.6H265.921L265.881 48.56ZM265.881 41.44L265.921 41.4H265.961C266.388 41.4 266.774 41.4533 267.121 41.56C267.494 41.6667 267.828 41.8267 268.121 42.04C268.441 42.2533 268.708 42.52 268.921 42.84C269.134 43.1333 269.294 43.4667 269.401 43.84C269.508 44.1867 269.561 44.5733 269.561 45V45.04L269.521 45.08H265.881V41.44ZM266.041 41.44V45.08H262.401L262.361 45.04V45C262.361 44.5733 262.414 44.1867 262.521 43.84C262.628 43.4667 262.788 43.1333 263.001 42.84C263.214 42.52 263.468 42.2533 263.761 42.04C264.081 41.8267 264.414 41.6667 264.761 41.56C265.134 41.4533 265.534 41.4 265.961 41.4H266.001L266.041 41.44ZM266.041 44.56L266.001 44.6H265.961C265.534 44.6 265.134 44.5467 264.761 44.44C264.414 44.3333 264.081 44.1733 263.761 43.96C263.468 43.7467 263.214 43.4933 263.001 43.2C262.788 42.88 262.628 42.5467 262.521 42.2C262.414 41.8267 262.361 41.4267 262.361 41V40.96L262.401 40.92H266.041V44.56ZM265.881 44.56V40.92H269.521L269.561 40.96V41C269.561 41.4267 269.508 41.8267 269.401 42.2C269.294 42.5467 269.134 42.88 268.921 43.2C268.708 43.4933 268.441 43.7467 268.121 43.96C267.828 44.1733 267.494 44.3333 267.121 44.44C266.774 44.5467 266.388 44.6 265.961 44.6H265.921L265.881 44.56ZM265.881 37.44L265.921 37.4H265.961C266.388 37.4 266.774 37.4533 267.121 37.56C267.494 37.6667 267.828 37.8267 268.121 38.04C268.441 38.2533 268.708 38.52 268.921 38.84C269.134 39.1333 269.294 39.4667 269.401 39.84C269.508 40.1867 269.561 40.5733 269.561 41V41.04L269.521 41.08H265.881V37.44ZM266.041 37.44V41.08H262.401L262.361 41.04V41C262.361 40.5733 262.414 40.1867 262.521 39.84C262.628 39.4667 262.788 39.1333 263.001 38.84C263.214 38.52 263.468 38.2533 263.761 38.04C264.081 37.8267 264.414 37.6667 264.761 37.56C265.134 37.4533 265.534 37.4 265.961 37.4H266.001L266.041 37.44ZM266.041 40.56L266.001 40.6H265.961C265.534 40.6 265.134 40.5467 264.761 40.44C264.414 40.3333 264.081 40.1733 263.761 39.96C263.468 39.7467 263.214 39.4933 263.001 39.2C262.788 38.88 262.628 38.5467 262.521 38.2C262.414 37.8267 262.361 37.4267 262.361 37V36.96L262.401 36.92H266.041V40.56ZM265.881 40.56V36.92H269.521L269.561 36.96V37C269.561 37.4267 269.508 37.8267 269.401 38.2C269.294 38.5467 269.134 38.88 268.921 39.2C268.708 39.4933 268.441 39.7467 268.121 39.96C267.828 40.1733 267.494 40.3333 267.121 40.44C266.774 40.5467 266.388 40.6 265.961 40.6H265.921L265.881 40.56ZM265.881 33.44L265.921 33.4H265.961C266.388 33.4 266.774 33.4533 267.121 33.56C267.494 33.6667 267.828 33.8267 268.121 34.04C268.441 34.2533 268.708 34.52 268.921 34.84C269.134 35.1333 269.294 35.4667 269.401 35.84C269.508 36.1867 269.561 36.5733 269.561 37V37.04L269.521 37.08H265.881V33.44ZM266.041 33.44V37.08H262.401L262.361 37.04V37C262.361 36.5733 262.414 36.1867 262.521 35.84C262.628 35.4667 262.788 35.1333 263.001 34.84C263.214 34.52 263.468 34.2533 263.761 34.04C264.081 33.8267 264.414 33.6667 264.761 33.56C265.134 33.4533 265.534 33.4 265.961 33.4H266.001L266.041 33.44ZM266.041 36.56L266.001 36.6H265.961C265.534 36.6 265.134 36.5467 264.761 36.44C264.414 36.3333 264.081 36.1733 263.761 35.96C263.468 35.7467 263.214 35.4933 263.001 35.2C262.788 34.88 262.628 34.5467 262.521 34.2C262.414 33.8267 262.361 33.4267 262.361 33V32.96L262.401 32.92H266.041V36.56ZM265.881 36.56V32.92H269.521L269.561 32.96V33C269.561 33.4267 269.508 33.8267 269.401 34.2C269.294 34.5467 269.134 34.88 268.921 35.2C268.708 35.4933 268.441 35.7467 268.121 35.96C267.828 36.1733 267.494 36.3333 267.121 36.44C266.774 36.5467 266.388 36.6 265.961 36.6H265.921L265.881 36.56ZM265.881 29.44L265.921 29.4H265.961C266.388 29.4 266.774 29.4533 267.121 29.56C267.494 29.6667 267.828 29.8267 268.121 30.04C268.441 30.2533 268.708 30.52 268.921 30.84C269.134 31.1333 269.294 31.4667 269.401 31.84C269.508 32.1867 269.561 32.5733 269.561 33V33.04L269.521 33.08H265.881V29.44ZM266.041 29.44V33.08H262.401L262.361 33.04V33C262.361 32.5733 262.414 32.1867 262.521 31.84C262.628 31.4667 262.788 31.1333 263.001 30.84C263.214 30.52 263.468 30.2533 263.761 30.04C264.081 29.8267 264.414 29.6667 264.761 29.56C265.134 29.4533 265.534 29.4 265.961 29.4H266.001L266.041 29.44ZM270.041 56.56L270.001 56.6H269.961C269.534 56.6 269.134 56.5467 268.761 56.44C268.414 56.3333 268.081 56.1733 267.761 55.96C267.468 55.7467 267.214 55.48 267.001 55.16C266.788 54.8667 266.628 54.5467 266.521 54.2C266.414 53.8267 266.361 53.4267 266.361 53V52.96L266.401 52.92H270.041V56.56ZM269.881 56.56V52.92H273.521L273.561 52.96V53C273.561 53.4267 273.508 53.8267 273.401 54.2C273.294 54.5467 273.134 54.8667 272.921 55.16C272.708 55.48 272.441 55.7467 272.121 55.96C271.828 56.1733 271.494 56.3333 271.121 56.44C270.774 56.5467 270.388 56.6 269.961 56.6H269.921L269.881 56.56ZM269.881 49.44L269.921 49.4H269.961C270.388 49.4 270.774 49.4533 271.121 49.56C271.494 49.6667 271.828 49.8267 272.121 50.04C272.441 50.2533 272.708 50.52 272.921 50.84C273.134 51.1333 273.294 51.4667 273.401 51.84C273.508 52.1867 273.561 52.5733 273.561 53V53.04L273.521 53.08H269.881V49.44ZM270.041 49.44V53.08H266.401L266.361 53.04V53C266.361 52.5733 266.414 52.1867 266.521 51.84C266.628 51.4667 266.788 51.1333 267.001 50.84C267.214 50.52 267.468 50.2533 267.761 50.04C268.081 49.8267 268.414 49.6667 268.761 49.56C269.134 49.4533 269.534 49.4 269.961 49.4H270.001L270.041 49.44ZM270.041 40.56L270.001 40.6H269.961C269.534 40.6 269.134 40.5467 268.761 40.44C268.414 40.3333 268.081 40.1733 267.761 39.96C267.468 39.7467 267.214 39.4933 267.001 39.2C266.788 38.88 266.628 38.5467 266.521 38.2C266.414 37.8267 266.361 37.4267 266.361 37V36.96L266.401 36.92H270.041V40.56ZM269.881 40.56V36.92H273.521L273.561 36.96V37C273.561 37.4267 273.508 37.8267 273.401 38.2C273.294 38.5467 273.134 38.88 272.921 39.2C272.708 39.4933 272.441 39.7467 272.121 39.96C271.828 40.1733 271.494 40.3333 271.121 40.44C270.774 40.5467 270.388 40.6 269.961 40.6H269.921L269.881 40.56ZM269.881 33.44L269.921 33.4H269.961C270.388 33.4 270.774 33.4533 271.121 33.56C271.494 33.6667 271.828 33.8267 272.121 34.04C272.441 34.2533 272.708 34.52 272.921 34.84C273.134 35.1333 273.294 35.4667 273.401 35.84C273.508 36.1867 273.561 36.5733 273.561 37V37.04L273.521 37.08H269.881V33.44ZM270.041 33.44V37.08H266.401L266.361 37.04V37C266.361 36.5733 266.414 36.1867 266.521 35.84C266.628 35.4667 266.788 35.1333 267.001 34.84C267.214 34.52 267.468 34.2533 267.761 34.04C268.081 33.8267 268.414 33.6667 268.761 33.56C269.134 33.4533 269.534 33.4 269.961 33.4H270.001L270.041 33.44ZM274.041 56.56L274.001 56.6H273.961C273.534 56.6 273.134 56.5467 272.761 56.44C272.414 56.3333 272.081 56.1733 271.761 55.96C271.468 55.7467 271.214 55.48 271.001 55.16C270.788 54.8667 270.628 54.5467 270.521 54.2C270.414 53.8267 270.361 53.4267 270.361 53V52.96L270.401 52.92H274.041V56.56ZM273.881 56.56V52.92H277.521L277.561 52.96V53C277.561 53.4267 277.508 53.8267 277.401 54.2C277.294 54.5467 277.134 54.8667 276.921 55.16C276.708 55.48 276.441 55.7467 276.121 55.96C275.828 56.1733 275.494 56.3333 275.121 56.44C274.774 56.5467 274.388 56.6 273.961 56.6H273.921L273.881 56.56ZM273.881 49.44L273.921 49.4H273.961C274.388 49.4 274.774 49.4533 275.121 49.56C275.494 49.6667 275.828 49.8267 276.121 50.04C276.441 50.2533 276.708 50.52 276.921 50.84C277.134 51.1333 277.294 51.4667 277.401 51.84C277.508 52.1867 277.561 52.5733 277.561 53V53.04L277.521 53.08H273.881V49.44ZM274.041 49.44V53.08H270.401L270.361 53.04V53C270.361 52.5733 270.414 52.1867 270.521 51.84C270.628 51.4667 270.788 51.1333 271.001 50.84C271.214 50.52 271.468 50.2533 271.761 50.04C272.081 49.8267 272.414 49.6667 272.761 49.56C273.134 49.4533 273.534 49.4 273.961 49.4H274.001L274.041 49.44ZM274.041 40.56L274.001 40.6H273.961C273.534 40.6 273.134 40.5467 272.761 40.44C272.414 40.3333 272.081 40.1733 271.761 39.96C271.468 39.7467 271.214 39.4933 271.001 39.2C270.788 38.88 270.628 38.5467 270.521 38.2C270.414 37.8267 270.361 37.4267 270.361 37V36.96L270.401 36.92H274.041V40.56ZM273.881 40.56V36.92H277.521L277.561 36.96V37C277.561 37.4267 277.508 37.8267 277.401 38.2C277.294 38.5467 277.134 38.88 276.921 39.2C276.708 39.4933 276.441 39.7467 276.121 39.96C275.828 40.1733 275.494 40.3333 275.121 40.44C274.774 40.5467 274.388 40.6 273.961 40.6H273.921L273.881 40.56ZM273.881 33.44L273.921 33.4H273.961C274.388 33.4 274.774 33.4533 275.121 33.56C275.494 33.6667 275.828 33.8267 276.121 34.04C276.441 34.2533 276.708 34.52 276.921 34.84C277.134 35.1333 277.294 35.4667 277.401 35.84C277.508 36.1867 277.561 36.5733 277.561 37V37.04L277.521 37.08H273.881V33.44ZM274.041 33.44V37.08H270.401L270.361 37.04V37C270.361 36.5733 270.414 36.1867 270.521 35.84C270.628 35.4667 270.788 35.1333 271.001 34.84C271.214 34.52 271.468 34.2533 271.761 34.04C272.081 33.8267 272.414 33.6667 272.761 33.56C273.134 33.4533 273.534 33.4 273.961 33.4H274.001L274.041 33.44ZM278.041 56.56L278.001 56.6H277.961C277.534 56.6 277.134 56.5467 276.761 56.44C276.414 56.3333 276.081 56.1733 275.761 55.96C275.468 55.7467 275.214 55.48 275.001 55.16C274.788 54.8667 274.628 54.5467 274.521 54.2C274.414 53.8267 274.361 53.4267 274.361 53V52.96L274.401 52.92H278.041V56.56ZM277.881 56.56V52.92H281.521L281.561 52.96V53C281.561 53.4267 281.508 53.8267 281.401 54.2C281.294 54.5467 281.134 54.8667 280.921 55.16C280.708 55.48 280.441 55.7467 280.121 55.96C279.828 56.1733 279.494 56.3333 279.121 56.44C278.774 56.5467 278.388 56.6 277.961 56.6H277.921L277.881 56.56ZM277.881 49.44L277.921 49.4H277.961C278.388 49.4 278.774 49.4533 279.121 49.56C279.494 49.6667 279.828 49.8267 280.121 50.04C280.441 50.2533 280.708 50.52 280.921 50.84C281.134 51.1333 281.294 51.4667 281.401 51.84C281.508 52.1867 281.561 52.5733 281.561 53V53.04L281.521 53.08H277.881V49.44ZM278.041 49.44V53.08H274.401L274.361 53.04V53C274.361 52.5733 274.414 52.1867 274.521 51.84C274.628 51.4667 274.788 51.1333 275.001 50.84C275.214 50.52 275.468 50.2533 275.761 50.04C276.081 49.8267 276.414 49.6667 276.761 49.56C277.134 49.4533 277.534 49.4 277.961 49.4H278.001L278.041 49.44ZM278.041 40.56L278.001 40.6H277.961C277.534 40.6 277.134 40.5467 276.761 40.44C276.414 40.3333 276.081 40.1733 275.761 39.96C275.468 39.7467 275.214 39.4933 275.001 39.2C274.788 38.88 274.628 38.5467 274.521 38.2C274.414 37.8267 274.361 37.4267 274.361 37V36.96L274.401 36.92H278.041V40.56ZM277.881 40.56V36.92H281.521L281.561 36.96V37C281.561 37.4267 281.508 37.8267 281.401 38.2C281.294 38.5467 281.134 38.88 280.921 39.2C280.708 39.4933 280.441 39.7467 280.121 39.96C279.828 40.1733 279.494 40.3333 279.121 40.44C278.774 40.5467 278.388 40.6 277.961 40.6H277.921L277.881 40.56ZM277.881 33.44L277.921 33.4H277.961C278.388 33.4 278.774 33.4533 279.121 33.56C279.494 33.6667 279.828 33.8267 280.121 34.04C280.441 34.2533 280.708 34.52 280.921 34.84C281.134 35.1333 281.294 35.4667 281.401 35.84C281.508 36.1867 281.561 36.5733 281.561 37V37.04L281.521 37.08H277.881V33.44ZM278.041 33.44V37.08H274.401L274.361 37.04V37C274.361 36.5733 274.414 36.1867 274.521 35.84C274.628 35.4667 274.788 35.1333 275.001 34.84C275.214 34.52 275.468 34.2533 275.761 34.04C276.081 33.8267 276.414 33.6667 276.761 33.56C277.134 33.4533 277.534 33.4 277.961 33.4H278.001L278.041 33.44Z" fill="#656565"/>
</svg>
